M48
;DRILL file {KiCad 5.0.1} date Mon 14 Jan 2019 11:50:28 AM CET
;FORMAT={-:-/ absolute / metric / decimal}
FMAT,2
METRIC,TZ
T1C0.400
T2C0.650
T3C0.700
T4C1.000
T5C4.100
T6C0.900
T7C1.800
T8C3.000
T9C4.000
%
G90
G05
M71
T1
X73.4Y-33.6
X74.5Y-48.9
X75.1Y-68.
X75.3Y-87.2
X75.576Y-30.476
X79.2Y-27.8
X80.8Y-31.8
X81.45Y-87.925
X82.8Y-53.4
X83.5Y-95.34
X83.6Y-27.8
X83.7Y-30.3
X84.1Y-38.1
X85.Y-36.2
X85.4Y-104.2
X86.537Y-29.
X86.812Y-38.775
X86.9Y-64.919
X88.8Y-36.2
X90.4Y-38.2
X90.6Y-32.6
X92.7Y-67.9
X92.8Y-33.7
X93.1Y-86.9
X94.6Y-32.8
X96.Y-37.117
X96.8Y-33.7
X99.2Y-37.
X100.275Y-68.625
X101.7Y-49.3
X101.775Y-31.
X103.8Y-104.8
X104.082Y-93.4
X104.4Y-35.2
X104.4Y-38.2
X105.331Y-102.4
X105.5Y-95.9
X106.1Y-30.
X107.Y-62.2
X107.2Y-31.8
X108.118Y-29.622
X108.225Y-45.025
X108.555Y-85.
X108.6Y-91.1
X108.6Y-92.3
X108.7Y-97.8
X108.7Y-98.9
X108.7Y-100.
X108.8Y-33.8
X108.9Y-82.
X109.6Y-87.9
X110.8Y-87.9
X110.8Y-97.6
X111.55Y-91.05
X111.6Y-90.
X111.7Y-44.3
X111.862Y-29.537
X111.9Y-87.9
X112.1Y-63.3
X112.7Y-89.
X113.Y-87.9
X114.1Y-87.9
X115.2Y-87.9
X116.Y-97.575
X117.3Y-87.9
X118.4Y-88.
X119.5Y-88.
X120.6Y-88.
X120.6Y-101.072
X120.75Y-92.3
X120.8Y-95.6
X120.8Y-97.8
X120.8Y-98.9
X120.854Y-96.673
X123.Y-105.64
X123.126Y-102.4
X124.Y-90.2
X124.6Y-40.182
X125.006Y-79.3
X125.013Y-102.013
X126.776Y-60.5
X128.8Y-79.9
X129.75Y-103.9
X130.2Y-60.4
X131.7Y-42.
X132.3Y-103.2
X137.7Y-85.7
X138.889Y-85.314
X139.487Y-84.513
X139.5Y-83.5
X141.371Y-103.925
X141.6Y-45.3
X142.425Y-63.208
X143.08Y-77.8
X145.9Y-83.4
X148.5Y-82.3
X150.1Y-44.3
X150.7Y-63.3
X151.231Y-105.7
X162.671Y-95.571
X163.4Y-63.294
X164.9Y-50.4
X166.4Y-98.864
X167.418Y-65.6
X169.5Y-46.4
X173.9Y-85.625
X175.5Y-84.1
T4
X110.78Y-95.95
X113.32Y-95.95
X115.86Y-95.95
X118.4Y-95.95
T5
X86.151Y-89.04
X86.151Y-50.94
X162.351Y-47.327
X162.351Y-89.04
X124.251Y-64.001
T6
X99.9Y-27.715
X102.9Y-27.715
X99.9Y-27.715
X102.9Y-27.715
T7
X90.596Y-41.415
X100.756Y-41.415
X166.796Y-57.988
X176.956Y-57.988
X90.596Y-98.565
X100.756Y-98.565
X71.546Y-79.515
X81.706Y-79.515
X147.746Y-55.702
X157.906Y-55.702
X172.385Y-107.907
X175.015Y-98.093
X147.746Y-74.752
X157.906Y-74.752
X166.796Y-38.938
X176.956Y-38.938
X71.546Y-60.465
X81.706Y-60.465
X166.796Y-77.038
X176.956Y-77.038
X90.596Y-60.465
X100.756Y-60.465
X128.696Y-72.276
X138.856Y-72.276
X128.62Y-95.4
X138.78Y-95.4
X71.546Y-41.415
X81.706Y-41.415
X109.646Y-36.652
X119.806Y-36.652
X90.596Y-79.515
X100.756Y-79.515
X128.696Y-34.176
X138.856Y-34.176
X109.646Y-55.702
X119.806Y-55.702
X109.646Y-74.752
X119.806Y-74.752
X128.696Y-53.226
X138.856Y-53.226
X71.546Y-98.565
X81.706Y-98.565
X147.746Y-36.652
X157.906Y-36.652
X150.244Y-96.869
X160.058Y-99.499
T8
X150.813Y-99.651
X151.383Y-102.434
X156.29Y-103.748
X158.174Y-101.624
X91.866Y-43.955
X93.136Y-46.495
X98.216Y-46.495
X99.486Y-43.955
X168.066Y-60.528
X169.336Y-63.068
X174.416Y-63.068
X175.686Y-60.528
X91.866Y-101.105
X93.136Y-103.645
X98.216Y-103.645
X99.486Y-101.105
X72.816Y-82.055
X74.086Y-84.595
X79.166Y-84.595
X80.436Y-82.055
X149.016Y-58.242
X150.286Y-60.782
X155.366Y-60.782
X156.636Y-58.242
X168.136Y-104.139
X169.45Y-99.232
X170.26Y-106.023
X172.233Y-98.662
X149.016Y-77.292
X150.286Y-79.832
X155.366Y-79.832
X156.636Y-77.292
X168.066Y-41.478
X169.336Y-44.018
X174.416Y-44.018
X175.686Y-41.478
X72.816Y-63.005
X74.086Y-65.545
X79.166Y-65.545
X80.436Y-63.005
X168.066Y-79.578
X169.336Y-82.118
X174.416Y-82.118
X175.686Y-79.578
X91.866Y-63.005
X93.136Y-65.545
X98.216Y-65.545
X99.486Y-63.005
X129.966Y-74.816
X131.236Y-77.356
X136.316Y-77.356
X137.586Y-74.816
X129.89Y-97.94
X131.16Y-100.48
X136.24Y-100.48
X137.51Y-97.94
X72.816Y-43.955
X74.086Y-46.495
X79.166Y-46.495
X80.436Y-43.955
X110.916Y-39.192
X112.186Y-41.732
X117.266Y-41.732
X118.536Y-39.192
X91.866Y-82.055
X93.136Y-84.595
X98.216Y-84.595
X99.486Y-82.055
X129.966Y-36.716
X131.236Y-39.256
X136.316Y-39.256
X137.586Y-36.716
X110.916Y-58.242
X112.186Y-60.782
X117.266Y-60.782
X118.536Y-58.242
X110.916Y-77.292
X112.186Y-79.832
X117.266Y-79.832
X118.536Y-77.292
X129.966Y-55.766
X131.236Y-58.306
X136.316Y-58.306
X137.586Y-55.766
X72.816Y-101.105
X74.086Y-103.645
X79.166Y-103.645
X80.436Y-101.105
X149.016Y-39.192
X150.286Y-41.732
X155.366Y-41.732
X156.636Y-39.192
T9
X114.726Y-74.752
X133.776Y-53.226
X76.626Y-98.565
X152.826Y-36.652
X155.151Y-98.184
X95.676Y-41.415
X171.876Y-57.988
X95.676Y-98.565
X76.626Y-79.515
X152.826Y-55.702
X173.7Y-103.
X152.826Y-74.752
X171.876Y-38.938
X76.626Y-60.465
X171.876Y-77.038
X95.676Y-60.465
X133.776Y-72.276
X133.7Y-95.4
X76.626Y-41.415
X114.726Y-36.652
X95.676Y-79.515
X133.776Y-34.176
X114.726Y-55.702
T2
X89.955Y-30.685G85X89.955Y-31.085
G05
X94.795Y-30.685G85X94.795Y-31.085
G05
X89.98Y-30.67G85X89.98Y-31.07
G05
X94.82Y-30.67G85X94.82Y-31.07
G05
T3
X89.645Y-27.635G85X89.645Y-28.135
G05
X95.105Y-27.635G85X95.105Y-28.135
G05
X89.67Y-27.62G85X89.67Y-28.12
G05
X95.13Y-27.62G85X95.13Y-28.12
G05
T0
M30
