M48
; DRILL file {KiCad 5.1.10} date Tue Sep  7 21:41:55 2021
; FORMAT={-:-/ absolute / metric / decimal}
; #@! TF.CreationDate,2021-09-07T21:41:55+02:00
; #@! TF.GenerationSoftware,Kicad,Pcbnew,5.1.10
; #@! TF.FileFunction,NonPlated,1,2,NPTH
FMAT,2
METRIC
T1C1.700
T2C1.900
T3C3.000
T4C4.100
%
G90
G05
T1
X78.7Y-63.82
X78.7Y-82.82
X78.7Y-101.82
X78.7Y-120.82
X87.7Y-63.82
X87.7Y-82.82
X87.7Y-101.82
X87.7Y-120.82
X97.7Y-63.82
X97.7Y-82.82
X97.7Y-101.82
X97.7Y-120.82
X106.7Y-63.82
X106.7Y-82.82
X106.7Y-101.82
X106.7Y-120.82
X116.7Y-57.645
X116.7Y-76.645
X116.7Y-95.645
X116.7Y-114.645
X125.7Y-57.645
X125.7Y-76.645
X125.7Y-95.645
X125.7Y-114.645
X135.7Y-55.745
X135.7Y-74.745
X135.7Y-93.745
X135.7Y-112.745
X136.414Y-139.323
X144.7Y-55.745
X144.7Y-74.745
X144.7Y-93.745
X144.7Y-112.745
X145.38Y-140.107
X154.7Y-59.545
X154.7Y-78.545
X154.7Y-97.545
X154.7Y-116.545
X156.157Y-142.642
X163.7Y-59.545
X163.7Y-78.545
X163.7Y-97.545
X163.7Y-116.545
X165.021Y-144.204
X173.7Y-63.82
X173.7Y-82.82
X173.7Y-101.82
X173.7Y-120.82
X175.924Y-146.382
X182.7Y-63.82
X182.7Y-82.82
X182.7Y-101.82
X182.7Y-120.82
X184.618Y-148.712
T2
X78.12Y-63.82
X78.12Y-82.82
X78.12Y-101.82
X78.12Y-120.82
X88.28Y-63.82
X88.28Y-82.82
X88.28Y-101.82
X88.28Y-120.82
X97.12Y-63.82
X97.12Y-82.82
X97.12Y-101.82
X97.12Y-120.82
X107.28Y-63.82
X107.28Y-82.82
X107.28Y-101.82
X107.28Y-120.82
X116.12Y-57.645
X116.12Y-76.645
X116.12Y-95.645
X116.12Y-114.645
X126.28Y-57.645
X126.28Y-76.645
X126.28Y-95.645
X126.28Y-114.645
X135.12Y-55.745
X135.12Y-74.745
X135.12Y-93.745
X135.12Y-112.745
X135.836Y-139.272
X145.28Y-55.745
X145.28Y-74.745
X145.28Y-93.745
X145.28Y-112.745
X145.958Y-140.158
X154.12Y-59.545
X154.12Y-78.545
X154.12Y-97.545
X154.12Y-116.545
X155.586Y-142.541
X164.28Y-59.545
X164.28Y-78.545
X164.28Y-97.545
X164.28Y-116.545
X165.592Y-144.305
X173.12Y-63.82
X173.12Y-82.82
X173.12Y-101.82
X173.12Y-120.82
X175.364Y-146.232
X183.28Y-63.82
X183.28Y-82.82
X183.28Y-101.82
X183.28Y-120.82
X185.178Y-148.862
T3
X79.39Y-61.28
X79.39Y-80.28
X79.39Y-99.28
X79.39Y-118.28
X80.66Y-58.74
X80.66Y-77.74
X80.66Y-96.74
X80.66Y-115.74
X85.74Y-58.74
X85.74Y-77.74
X85.74Y-96.74
X85.74Y-115.74
X87.01Y-61.28
X87.01Y-80.28
X87.01Y-99.28
X87.01Y-118.28
X98.39Y-61.28
X98.39Y-80.28
X98.39Y-99.28
X98.39Y-118.28
X99.66Y-58.74
X99.66Y-77.74
X99.66Y-96.74
X99.66Y-115.74
X104.74Y-58.74
X104.74Y-77.74
X104.74Y-96.74
X104.74Y-115.74
X106.01Y-61.28
X106.01Y-80.28
X106.01Y-99.28
X106.01Y-118.28
X117.39Y-55.105
X117.39Y-74.105
X117.39Y-93.105
X117.39Y-112.105
X118.66Y-52.565
X118.66Y-71.565
X118.66Y-90.565
X118.66Y-109.565
X123.74Y-52.565
X123.74Y-71.565
X123.74Y-90.565
X123.74Y-109.565
X125.01Y-55.105
X125.01Y-74.105
X125.01Y-93.105
X125.01Y-112.105
X136.39Y-53.205
X136.39Y-72.205
X136.39Y-91.205
X136.39Y-110.205
X137.323Y-136.853
X137.66Y-50.665
X137.66Y-69.665
X137.66Y-88.665
X137.66Y-107.665
X138.809Y-134.433
X142.74Y-50.665
X142.74Y-69.665
X142.74Y-88.665
X142.74Y-107.665
X143.87Y-134.876
X144.01Y-53.205
X144.01Y-72.205
X144.01Y-91.205
X144.01Y-110.205
X144.914Y-137.517
X155.39Y-57.005
X155.39Y-76.005
X155.39Y-95.005
X155.39Y-114.005
X156.66Y-54.465
X156.66Y-73.465
X156.66Y-92.465
X156.66Y-111.465
X157.278Y-140.26
X158.97Y-137.979
X161.74Y-54.465
X161.74Y-73.465
X161.74Y-92.465
X161.74Y-111.465
X163.01Y-57.005
X163.01Y-76.005
X163.01Y-95.005
X163.01Y-114.005
X163.973Y-138.861
X164.782Y-141.583
X174.39Y-61.28
X174.39Y-80.28
X174.39Y-99.28
X174.39Y-118.28
X175.66Y-58.74
X175.66Y-77.74
X175.66Y-96.74
X175.66Y-115.74
X177.248Y-144.107
X179.132Y-141.983
X180.74Y-58.74
X180.74Y-77.74
X180.74Y-96.74
X180.74Y-115.74
X182.01Y-61.28
X182.01Y-80.28
X182.01Y-99.28
X182.01Y-118.28
X184.039Y-143.297
X184.609Y-146.08
T4
X83.2Y-63.82
X83.2Y-82.82
X83.2Y-101.82
X83.2Y-120.82
X102.2Y-63.82
X102.2Y-82.82
X102.2Y-101.82
X102.2Y-120.82
X121.2Y-57.645
X121.2Y-76.645
X121.2Y-95.645
X121.2Y-114.645
X140.2Y-55.745
X140.2Y-74.745
X140.2Y-93.745
X140.2Y-112.745
X140.897Y-139.715
X159.2Y-59.545
X159.2Y-78.545
X159.2Y-97.545
X159.2Y-116.545
X160.589Y-143.423
X178.2Y-63.82
X178.2Y-82.82
X178.2Y-101.82
X178.2Y-120.82
X180.271Y-147.547
T0
M30
