%TF.GenerationSoftware,KiCad,Pcbnew,5.1.10*%
%TF.CreationDate,2021-09-07T21:41:42+02:00*%
%TF.ProjectId,mini,6d696e69-2e6b-4696-9361-645f70636258,rev?*%
%TF.SameCoordinates,Original*%
%TF.FileFunction,Other,Fab,Top*%
%FSLAX46Y46*%
G04 Gerber Fmt 4.6, Leading zero omitted, Abs format (unit mm)*
G04 Created by KiCad (PCBNEW 5.1.10) date 2021-09-07 21:41:42*
%MOMM*%
%LPD*%
G01*
G04 APERTURE LIST*
%ADD10C,0.120000*%
%ADD11C,0.150000*%
G04 APERTURE END LIST*
D10*
X208247457Y-144649223D02*
X206694543Y-150444777D01*
X210368777Y-148323457D02*
X204573223Y-146770543D01*
X213563766Y-142967895D02*
X214367465Y-144218521D01*
X203421544Y-140250295D02*
X213563766Y-142967895D01*
X200315716Y-151841404D02*
X203421544Y-140250295D01*
X211520456Y-154843705D02*
X200315716Y-151841404D01*
X214367465Y-144218521D02*
X211520456Y-154843705D01*
X210471000Y-147547000D02*
G75*
G03*
X210471000Y-147547000I-3000000J0D01*
G01*
D11*
X203028393Y-151192826D02*
X202482155Y-151391554D01*
X202880496Y-151744783D02*
X201914570Y-151485964D01*
X202013168Y-151117993D01*
X202083814Y-151038324D01*
X202142135Y-151004653D01*
X202246453Y-150983306D01*
X202384442Y-151020280D01*
X202464110Y-151090926D01*
X202497782Y-151149247D01*
X202519129Y-151253565D01*
X202420532Y-151621536D01*
X202222688Y-150336053D02*
X202271987Y-150152067D01*
X202342633Y-150072399D01*
X202459275Y-150005055D01*
X202655586Y-150008358D01*
X202977561Y-150094631D01*
X203149222Y-150189926D01*
X203216566Y-150306568D01*
X203237913Y-150410886D01*
X203188614Y-150594872D01*
X203117968Y-150674540D01*
X203001326Y-150741883D01*
X202805015Y-150738581D01*
X202483040Y-150652308D01*
X202311379Y-150557013D01*
X202244035Y-150440370D01*
X202222688Y-150336053D01*
X202407559Y-149646106D02*
X202555456Y-149094148D01*
X203447433Y-149628946D02*
X202481507Y-149370127D01*
X203743226Y-148525031D02*
X203595330Y-149076988D01*
X203669278Y-148801010D02*
X202703352Y-148542190D01*
X202816692Y-148671158D01*
X202884036Y-148787800D01*
X202905383Y-148892118D01*
X209173333Y-126748571D02*
X209506666Y-126748571D01*
X209649523Y-127272380D02*
X209173333Y-127272380D01*
X209173333Y-126272380D01*
X209649523Y-126272380D01*
X210649523Y-127177142D02*
X210601904Y-127224761D01*
X210459047Y-127272380D01*
X210363809Y-127272380D01*
X210220952Y-127224761D01*
X210125714Y-127129523D01*
X210078095Y-127034285D01*
X210030476Y-126843809D01*
X210030476Y-126700952D01*
X210078095Y-126510476D01*
X210125714Y-126415238D01*
X210220952Y-126320000D01*
X210363809Y-126272380D01*
X210459047Y-126272380D01*
X210601904Y-126320000D01*
X210649523Y-126367619D01*
X211601904Y-127272380D02*
X211030476Y-127272380D01*
X211316190Y-127272380D02*
X211316190Y-126272380D01*
X211220952Y-126415238D01*
X211125714Y-126510476D01*
X211030476Y-126558095D01*
X211982857Y-126367619D02*
X212030476Y-126320000D01*
X212125714Y-126272380D01*
X212363809Y-126272380D01*
X212459047Y-126320000D01*
X212506666Y-126367619D01*
X212554285Y-126462857D01*
X212554285Y-126558095D01*
X212506666Y-126700952D01*
X211935238Y-127272380D01*
X212554285Y-127272380D01*
X192846333Y-126748571D02*
X193179666Y-126748571D01*
X193322523Y-127272380D02*
X192846333Y-127272380D01*
X192846333Y-126272380D01*
X193322523Y-126272380D01*
X194322523Y-127177142D02*
X194274904Y-127224761D01*
X194132047Y-127272380D01*
X194036809Y-127272380D01*
X193893952Y-127224761D01*
X193798714Y-127129523D01*
X193751095Y-127034285D01*
X193703476Y-126843809D01*
X193703476Y-126700952D01*
X193751095Y-126510476D01*
X193798714Y-126415238D01*
X193893952Y-126320000D01*
X194036809Y-126272380D01*
X194132047Y-126272380D01*
X194274904Y-126320000D01*
X194322523Y-126367619D01*
X195274904Y-127272380D02*
X194703476Y-127272380D01*
X194989190Y-127272380D02*
X194989190Y-126272380D01*
X194893952Y-126415238D01*
X194798714Y-126510476D01*
X194703476Y-126558095D01*
X196227285Y-127272380D02*
X195655857Y-127272380D01*
X195941571Y-127272380D02*
X195941571Y-126272380D01*
X195846333Y-126415238D01*
X195751095Y-126510476D01*
X195655857Y-126558095D01*
X92357142Y-73677142D02*
X92309523Y-73724761D01*
X92166666Y-73772380D01*
X92071428Y-73772380D01*
X91928571Y-73724761D01*
X91833333Y-73629523D01*
X91785714Y-73534285D01*
X91738095Y-73343809D01*
X91738095Y-73200952D01*
X91785714Y-73010476D01*
X91833333Y-72915238D01*
X91928571Y-72820000D01*
X92071428Y-72772380D01*
X92166666Y-72772380D01*
X92309523Y-72820000D01*
X92357142Y-72867619D01*
X93309523Y-73772380D02*
X92738095Y-73772380D01*
X93023809Y-73772380D02*
X93023809Y-72772380D01*
X92928571Y-72915238D01*
X92833333Y-73010476D01*
X92738095Y-73058095D01*
X94261904Y-73772380D02*
X93690476Y-73772380D01*
X93976190Y-73772380D02*
X93976190Y-72772380D01*
X93880952Y-72915238D01*
X93785714Y-73010476D01*
X93690476Y-73058095D01*
X130710101Y-85689974D02*
X130710101Y-85757318D01*
X130642757Y-85892005D01*
X130575414Y-85959348D01*
X130440727Y-86026692D01*
X130306040Y-86026692D01*
X130205025Y-85993020D01*
X130036666Y-85892005D01*
X129935651Y-85790990D01*
X129834635Y-85622631D01*
X129800964Y-85521616D01*
X129800964Y-85386929D01*
X129868307Y-85252242D01*
X129935651Y-85184898D01*
X130070338Y-85117555D01*
X130137681Y-85117555D01*
X130306040Y-84814509D02*
X130743773Y-84376776D01*
X130777444Y-84881852D01*
X130878460Y-84780837D01*
X130979475Y-84747165D01*
X131046819Y-84747165D01*
X131147834Y-84780837D01*
X131316193Y-84949196D01*
X131349864Y-85050211D01*
X131349864Y-85117555D01*
X131316193Y-85218570D01*
X131114162Y-85420600D01*
X131013147Y-85454272D01*
X130945803Y-85454272D01*
X130979475Y-84141074D02*
X131417208Y-83703341D01*
X131450880Y-84208417D01*
X131551895Y-84107402D01*
X131652910Y-84073730D01*
X131720254Y-84073730D01*
X131821269Y-84107402D01*
X131989628Y-84275761D01*
X132023299Y-84376776D01*
X132023299Y-84444119D01*
X131989628Y-84545135D01*
X131787597Y-84747165D01*
X131686582Y-84780837D01*
X131619238Y-84780837D01*
X149868142Y-128543142D02*
X149820523Y-128590761D01*
X149677666Y-128638380D01*
X149582428Y-128638380D01*
X149439571Y-128590761D01*
X149344333Y-128495523D01*
X149296714Y-128400285D01*
X149249095Y-128209809D01*
X149249095Y-128066952D01*
X149296714Y-127876476D01*
X149344333Y-127781238D01*
X149439571Y-127686000D01*
X149582428Y-127638380D01*
X149677666Y-127638380D01*
X149820523Y-127686000D01*
X149868142Y-127733619D01*
X150772904Y-127638380D02*
X150296714Y-127638380D01*
X150249095Y-128114571D01*
X150296714Y-128066952D01*
X150391952Y-128019333D01*
X150630047Y-128019333D01*
X150725285Y-128066952D01*
X150772904Y-128114571D01*
X150820523Y-128209809D01*
X150820523Y-128447904D01*
X150772904Y-128543142D01*
X150725285Y-128590761D01*
X150630047Y-128638380D01*
X150391952Y-128638380D01*
X150296714Y-128590761D01*
X150249095Y-128543142D01*
X151725285Y-127638380D02*
X151249095Y-127638380D01*
X151201476Y-128114571D01*
X151249095Y-128066952D01*
X151344333Y-128019333D01*
X151582428Y-128019333D01*
X151677666Y-128066952D01*
X151725285Y-128114571D01*
X151772904Y-128209809D01*
X151772904Y-128447904D01*
X151725285Y-128543142D01*
X151677666Y-128590761D01*
X151582428Y-128638380D01*
X151344333Y-128638380D01*
X151249095Y-128590761D01*
X151201476Y-128543142D01*
X92710101Y-111814974D02*
X92710101Y-111882318D01*
X92642757Y-112017005D01*
X92575414Y-112084348D01*
X92440727Y-112151692D01*
X92306040Y-112151692D01*
X92205025Y-112118020D01*
X92036666Y-112017005D01*
X91935651Y-111915990D01*
X91834635Y-111747631D01*
X91800964Y-111646616D01*
X91800964Y-111511929D01*
X91868307Y-111377242D01*
X91935651Y-111309898D01*
X92070338Y-111242555D01*
X92137681Y-111242555D01*
X93450880Y-111208883D02*
X93046819Y-111612944D01*
X93248849Y-111410913D02*
X92541742Y-110703806D01*
X92575414Y-110872165D01*
X92575414Y-111006852D01*
X92541742Y-111107868D01*
X93383536Y-109862013D02*
X93046819Y-110198730D01*
X93349864Y-110569119D01*
X93349864Y-110501776D01*
X93383536Y-110400761D01*
X93551895Y-110232402D01*
X93652910Y-110198730D01*
X93720254Y-110198730D01*
X93821269Y-110232402D01*
X93989628Y-110400761D01*
X94023299Y-110501776D01*
X94023299Y-110569119D01*
X93989628Y-110670135D01*
X93821269Y-110838493D01*
X93720254Y-110872165D01*
X93652910Y-110872165D01*
X168357142Y-71539642D02*
X168309523Y-71587261D01*
X168166666Y-71634880D01*
X168071428Y-71634880D01*
X167928571Y-71587261D01*
X167833333Y-71492023D01*
X167785714Y-71396785D01*
X167738095Y-71206309D01*
X167738095Y-71063452D01*
X167785714Y-70872976D01*
X167833333Y-70777738D01*
X167928571Y-70682500D01*
X168071428Y-70634880D01*
X168166666Y-70634880D01*
X168309523Y-70682500D01*
X168357142Y-70730119D01*
X169261904Y-70634880D02*
X168785714Y-70634880D01*
X168738095Y-71111071D01*
X168785714Y-71063452D01*
X168880952Y-71015833D01*
X169119047Y-71015833D01*
X169214285Y-71063452D01*
X169261904Y-71111071D01*
X169309523Y-71206309D01*
X169309523Y-71444404D01*
X169261904Y-71539642D01*
X169214285Y-71587261D01*
X169119047Y-71634880D01*
X168880952Y-71634880D01*
X168785714Y-71587261D01*
X168738095Y-71539642D01*
X170261904Y-71634880D02*
X169690476Y-71634880D01*
X169976190Y-71634880D02*
X169976190Y-70634880D01*
X169880952Y-70777738D01*
X169785714Y-70872976D01*
X169690476Y-70920595D01*
M02*
