%TF.GenerationSoftware,KiCad,Pcbnew,5.1.10*%
%TF.CreationDate,2021-09-07T21:41:42+02:00*%
%TF.ProjectId,mini,6d696e69-2e6b-4696-9361-645f70636258,rev?*%
%TF.SameCoordinates,Original*%
%TF.FileFunction,Paste,Top*%
%TF.FilePolarity,Positive*%
%FSLAX46Y46*%
G04 Gerber Fmt 4.6, Leading zero omitted, Abs format (unit mm)*
G04 Created by KiCad (PCBNEW 5.1.10) date 2021-09-07 21:41:42*
%MOMM*%
%LPD*%
G01*
G04 APERTURE LIST*
%ADD10C,0.100000*%
%ADD11R,1.400000X1.300000*%
%ADD12R,1.300000X1.400000*%
%ADD13R,2.300000X2.000000*%
%ADD14R,1.700000X1.000000*%
G04 APERTURE END LIST*
D10*
G36*
X177460010Y-140457907D02*
G01*
X176942372Y-142389759D01*
X174720742Y-141794475D01*
X175238380Y-139862623D01*
X177460010Y-140457907D01*
G37*
G36*
X189069868Y-146198361D02*
G01*
X188552230Y-148130213D01*
X186330600Y-147534929D01*
X186848238Y-145603077D01*
X189069868Y-146198361D01*
G37*
D11*
X81425000Y-112376000D03*
X84975000Y-112376000D03*
X176425000Y-131376000D03*
X179975000Y-131376000D03*
X157425000Y-127101000D03*
X160975000Y-127101000D03*
X138425000Y-123301000D03*
X141975000Y-123301000D03*
D12*
X195600000Y-140825000D03*
X195600000Y-144375000D03*
D11*
X176425000Y-112376000D03*
X179975000Y-112376000D03*
X157425000Y-108101000D03*
X160975000Y-108101000D03*
X138425000Y-104301000D03*
X141975000Y-104301000D03*
X119425000Y-106201000D03*
X122975000Y-106201000D03*
X100425000Y-112376000D03*
X103975000Y-112376000D03*
X176425000Y-93375600D03*
X179975000Y-93375600D03*
X157425000Y-89100600D03*
X160975000Y-89100600D03*
X138425000Y-85300600D03*
X141975000Y-85300600D03*
X119425000Y-87200600D03*
X122975000Y-87200600D03*
X100425000Y-93375600D03*
X103975000Y-93375600D03*
X81425000Y-93375600D03*
X84975000Y-93375600D03*
X176425000Y-74375600D03*
X179975000Y-74375600D03*
X157425000Y-70100600D03*
X160975000Y-70100600D03*
X138425000Y-66300600D03*
X141975000Y-66300600D03*
X119425000Y-68200600D03*
X122975000Y-68200600D03*
X100425000Y-74375600D03*
X103975000Y-74375600D03*
X81425000Y-74375600D03*
X84975000Y-74375600D03*
X176425000Y-55375600D03*
X179975000Y-55375600D03*
X157425000Y-51100600D03*
X160975000Y-51100600D03*
X138425000Y-47300600D03*
X141975000Y-47300600D03*
X119425000Y-49200600D03*
X122975000Y-49200600D03*
X100425000Y-55375600D03*
X103975000Y-55375600D03*
X81425000Y-55375600D03*
X84975000Y-55375600D03*
D10*
G36*
X157170851Y-136605878D02*
G01*
X156823555Y-138575493D01*
X154558497Y-138176102D01*
X154905793Y-136206487D01*
X157170851Y-136605878D01*
G37*
G36*
X169236844Y-141312621D02*
G01*
X168889548Y-143282236D01*
X166624490Y-142882845D01*
X166971786Y-140913230D01*
X169236844Y-141312621D01*
G37*
D13*
X77500000Y-58700000D03*
X90200000Y-61240000D03*
X96500000Y-58700000D03*
X109200000Y-61240000D03*
X115500000Y-52525000D03*
X128200000Y-55065000D03*
X134500000Y-50625000D03*
X147200000Y-53165000D03*
X153500000Y-54425000D03*
X166200000Y-56965000D03*
X172500000Y-58700000D03*
X185200000Y-61240000D03*
X77500000Y-77700000D03*
X90200000Y-80240000D03*
X96500000Y-77700000D03*
X109200000Y-80240000D03*
X115500000Y-71525000D03*
X128200000Y-74065000D03*
X134500000Y-69625000D03*
X147200000Y-72165000D03*
X153500000Y-73425000D03*
X166200000Y-75965000D03*
X172500000Y-77700000D03*
X185200000Y-80240000D03*
X77500000Y-96700000D03*
X90200000Y-99240000D03*
X96500000Y-96700000D03*
X109200000Y-99240000D03*
X115500000Y-90525000D03*
X128200000Y-93065000D03*
X134500000Y-88625000D03*
X147200000Y-91165000D03*
X153500000Y-92425000D03*
X166200000Y-94965000D03*
X172500000Y-96700000D03*
X185200000Y-99240000D03*
X77500000Y-115700000D03*
X90200000Y-118240000D03*
X96500000Y-115700000D03*
X109200000Y-118240000D03*
X115500000Y-109525000D03*
X128200000Y-112065000D03*
X134500000Y-107625000D03*
X147200000Y-110165000D03*
X153500000Y-111425000D03*
X166200000Y-113965000D03*
X172500000Y-115700000D03*
X185200000Y-118240000D03*
D10*
G36*
X136897708Y-133221729D02*
G01*
X136723396Y-135214119D01*
X134432148Y-135013661D01*
X134606460Y-133021271D01*
X136897708Y-133221729D01*
G37*
G36*
X149328005Y-136858942D02*
G01*
X149153693Y-138851332D01*
X146862445Y-138650874D01*
X147036757Y-136658484D01*
X149328005Y-136858942D01*
G37*
D14*
X85950000Y-69820000D03*
X85950000Y-68420000D03*
X80450000Y-69820000D03*
X80450000Y-68420000D03*
X104950000Y-69820000D03*
X104950000Y-68420000D03*
X99450000Y-69820000D03*
X99450000Y-68420000D03*
X123950000Y-63645000D03*
X123950000Y-62245000D03*
X118450000Y-63645000D03*
X118450000Y-62245000D03*
X142950000Y-61745000D03*
X142950000Y-60345000D03*
X137450000Y-61745000D03*
X137450000Y-60345000D03*
X161950000Y-65545000D03*
X161950000Y-64145000D03*
X156450000Y-65545000D03*
X156450000Y-64145000D03*
X180950000Y-69820000D03*
X180950000Y-68420000D03*
X175450000Y-69820000D03*
X175450000Y-68420000D03*
X85950000Y-88820000D03*
X85950000Y-87420000D03*
X80450000Y-88820000D03*
X80450000Y-87420000D03*
X104950000Y-88820000D03*
X104950000Y-87420000D03*
X99450000Y-88820000D03*
X99450000Y-87420000D03*
X123950000Y-82645000D03*
X123950000Y-81245000D03*
X118450000Y-82645000D03*
X118450000Y-81245000D03*
X142950000Y-80745000D03*
X142950000Y-79345000D03*
X137450000Y-80745000D03*
X137450000Y-79345000D03*
X161950000Y-84545000D03*
X161950000Y-83145000D03*
X156450000Y-84545000D03*
X156450000Y-83145000D03*
X180950000Y-88820000D03*
X180950000Y-87420000D03*
X175450000Y-88820000D03*
X175450000Y-87420000D03*
X85950000Y-107820000D03*
X85950000Y-106420000D03*
X80450000Y-107820000D03*
X80450000Y-106420000D03*
X104950000Y-107820000D03*
X104950000Y-106420000D03*
X99450000Y-107820000D03*
X99450000Y-106420000D03*
X123950000Y-101645000D03*
X123950000Y-100245000D03*
X118450000Y-101645000D03*
X118450000Y-100245000D03*
X142950000Y-99745000D03*
X142950000Y-98345000D03*
X137450000Y-99745000D03*
X137450000Y-98345000D03*
X161950000Y-103545000D03*
X161950000Y-102145000D03*
X156450000Y-103545000D03*
X156450000Y-102145000D03*
X180950000Y-107820000D03*
X180950000Y-106420000D03*
X175450000Y-107820000D03*
X175450000Y-106420000D03*
X85950000Y-126820000D03*
X85950000Y-125420000D03*
X80450000Y-126820000D03*
X80450000Y-125420000D03*
X104950000Y-126820000D03*
X104950000Y-125420000D03*
X99450000Y-126820000D03*
X99450000Y-125420000D03*
X123950000Y-120645000D03*
X123950000Y-119245000D03*
X118450000Y-120645000D03*
X118450000Y-119245000D03*
X142950000Y-118745000D03*
X142950000Y-117345000D03*
X137450000Y-118745000D03*
X137450000Y-117345000D03*
X161950000Y-122545000D03*
X161950000Y-121145000D03*
X156450000Y-122545000D03*
X156450000Y-121145000D03*
X180950000Y-126820000D03*
X180950000Y-125420000D03*
X175450000Y-126820000D03*
X175450000Y-125420000D03*
D10*
G36*
X142223183Y-146355030D02*
G01*
X142310338Y-145358835D01*
X144003869Y-145507000D01*
X143916714Y-146503195D01*
X142223183Y-146355030D01*
G37*
G36*
X142345201Y-144960357D02*
G01*
X142432356Y-143964162D01*
X144125887Y-144112327D01*
X144038732Y-145108522D01*
X142345201Y-144960357D01*
G37*
G36*
X136744113Y-145875673D02*
G01*
X136831268Y-144879478D01*
X138524799Y-145027643D01*
X138437644Y-146023838D01*
X136744113Y-145875673D01*
G37*
G36*
X136866131Y-144481000D02*
G01*
X136953286Y-143484805D01*
X138646817Y-143632970D01*
X138559662Y-144629165D01*
X136866131Y-144481000D01*
G37*
G36*
X161331757Y-150154701D02*
G01*
X161505405Y-149169893D01*
X163179579Y-149465095D01*
X163005931Y-150449903D01*
X161331757Y-150154701D01*
G37*
G36*
X161574864Y-148775970D02*
G01*
X161748512Y-147791162D01*
X163422686Y-148086364D01*
X163249038Y-149071172D01*
X161574864Y-148775970D01*
G37*
G36*
X155915314Y-149199636D02*
G01*
X156088962Y-148214828D01*
X157763136Y-148510030D01*
X157589488Y-149494838D01*
X155915314Y-149199636D01*
G37*
G36*
X156158421Y-147820905D02*
G01*
X156332069Y-146836097D01*
X158006243Y-147131299D01*
X157832595Y-148116107D01*
X156158421Y-147820905D01*
G37*
G36*
X180423677Y-154317867D02*
G01*
X180682496Y-153351941D01*
X182324569Y-153791933D01*
X182065750Y-154757859D01*
X180423677Y-154317867D01*
G37*
G36*
X180786023Y-152965571D02*
G01*
X181044842Y-151999645D01*
X182686915Y-152439637D01*
X182428096Y-153405563D01*
X180786023Y-152965571D01*
G37*
G36*
X175111085Y-152894363D02*
G01*
X175369904Y-151928437D01*
X177011977Y-152368429D01*
X176753158Y-153334355D01*
X175111085Y-152894363D01*
G37*
G36*
X175473431Y-151542067D02*
G01*
X175732250Y-150576141D01*
X177374323Y-151016133D01*
X177115504Y-151982059D01*
X175473431Y-151542067D01*
G37*
M02*
