%TF.GenerationSoftware,KiCad,Pcbnew,5.1.10*%
%TF.CreationDate,2021-09-07T21:41:42+02:00*%
%TF.ProjectId,mini,6d696e69-2e6b-4696-9361-645f70636258,rev?*%
%TF.SameCoordinates,Original*%
%TF.FileFunction,Profile,NP*%
%FSLAX46Y46*%
G04 Gerber Fmt 4.6, Leading zero omitted, Abs format (unit mm)*
G04 Created by KiCad (PCBNEW 5.1.10) date 2021-09-07 21:41:42*
%MOMM*%
%LPD*%
G01*
G04 APERTURE LIST*
%TA.AperFunction,Profile*%
%ADD10C,0.150000*%
%TD*%
%TA.AperFunction,Profile*%
%ADD11C,0.100000*%
%TD*%
G04 APERTURE END LIST*
D10*
X213613891Y-156955093D02*
G75*
G02*
X211900000Y-158000000I-1513892J555092D01*
G01*
X149150000Y-149850000D02*
G75*
G02*
X149650000Y-150350000I0J-500000D01*
G01*
X149775000Y-153400000D02*
G75*
G02*
X149275000Y-152900000I0J500000D01*
G01*
X167375000Y-156550000D02*
G75*
G02*
X167875000Y-157050000I0J-500000D01*
G01*
X167575000Y-158100000D02*
X167875000Y-157050000D01*
X168075000Y-158600000D02*
G75*
G02*
X167575000Y-158100000I0J500000D01*
G01*
X149650000Y-150350000D02*
X149275000Y-152900000D01*
X189850000Y-152000000D02*
X211900000Y-158000000D01*
X209850000Y-71250000D02*
X216200000Y-71250000D01*
X187750000Y-54400000D02*
X187750000Y-70200000D01*
X168750000Y-50050000D02*
X168750000Y-52400000D01*
X149750000Y-46300000D02*
X149750000Y-48050000D01*
X148750000Y-45300000D02*
G75*
G02*
X149750000Y-46300000I0J-1000000D01*
G01*
D11*
X110700000Y-53550000D02*
X74650000Y-53550000D01*
X73650000Y-54550000D02*
X73700000Y-129200000D01*
X217100000Y-144900000D02*
X217150000Y-138100000D01*
X217150000Y-138100000D02*
X217200000Y-72250000D01*
X186750000Y-53400000D02*
X169750000Y-53400000D01*
X167750000Y-49050000D02*
X150750000Y-49050000D01*
X148750000Y-45300000D02*
X131600000Y-45300000D01*
D10*
X186202417Y-162245753D02*
X189005590Y-152109148D01*
X189005590Y-152109147D02*
G75*
G02*
X189850000Y-152000000I544410J-890853D01*
G01*
X186202416Y-162245753D02*
G75*
G02*
X184600000Y-163050000I-1402417J795752D01*
G01*
X206850000Y-90400000D02*
G75*
G02*
X203850000Y-93400000I-3000000J0D01*
G01*
X200900000Y-93400000D02*
G75*
G02*
X197900000Y-90400000I0J3000000D01*
G01*
X203850000Y-93400000D02*
X200900000Y-93400000D01*
X206850000Y-74250000D02*
X206850000Y-90400000D01*
X197900000Y-74200000D02*
X197900000Y-90400000D01*
X206850000Y-74250000D02*
G75*
G02*
X209850000Y-71250000I3000000J0D01*
G01*
X194850007Y-71200417D02*
G75*
G02*
X197900000Y-74200000I49993J-2999583D01*
G01*
X131850000Y-148325000D02*
G75*
G02*
X130850000Y-147325000I0J1000000D01*
G01*
X129850000Y-123700000D02*
G75*
G02*
X130850000Y-124700000I0J-1000000D01*
G01*
X111800000Y-124700000D02*
G75*
G02*
X112800000Y-123700000I1000000J0D01*
G01*
X111800000Y-129200000D02*
G75*
G02*
X110800000Y-130200000I-1000000J0D01*
G01*
X111800000Y-124700000D02*
X111800000Y-129200000D01*
X129850000Y-123700000D02*
X112800000Y-123700000D01*
X130850000Y-147325000D02*
X130850000Y-124700000D01*
X168075000Y-158600000D02*
X184600000Y-163050000D01*
X149775000Y-153400000D02*
X167375000Y-156550000D01*
X131850000Y-148325000D02*
X149150000Y-149850000D01*
X74700000Y-130200000D02*
X110800000Y-130200000D01*
X150750000Y-49050000D02*
G75*
G02*
X149750000Y-48050000I0J1000000D01*
G01*
X130602901Y-46345018D02*
G75*
G02*
X129650000Y-47200000I-900405J45018D01*
G01*
X74700000Y-130200000D02*
G75*
G02*
X73700000Y-129200000I0J1000000D01*
G01*
X188750000Y-71200000D02*
G75*
G02*
X187750000Y-70200000I0J1000000D01*
G01*
X188750000Y-71200000D02*
X194850000Y-71200000D01*
X169750000Y-53400000D02*
G75*
G02*
X168750000Y-52400000I0J1000000D01*
G01*
X112700000Y-47200000D02*
X129650000Y-47200000D01*
X111700000Y-52550000D02*
X111700000Y-48200000D01*
X73650000Y-54550000D02*
G75*
G02*
X74650000Y-53550000I1000000J0D01*
G01*
X216200000Y-71250000D02*
G75*
G02*
X217200000Y-72250000I0J-1000000D01*
G01*
X186750000Y-53400000D02*
G75*
G02*
X187750000Y-54400000I0J-1000000D01*
G01*
X167750000Y-49050000D02*
G75*
G02*
X168750000Y-50050000I0J-1000000D01*
G01*
X130601018Y-46345103D02*
G75*
G02*
X131600000Y-45300000I998982J45103D01*
G01*
X111700000Y-48200000D02*
G75*
G02*
X112700000Y-47200000I1000000J0D01*
G01*
X111700000Y-52550000D02*
G75*
G02*
X110700000Y-53550000I-1000000J0D01*
G01*
D11*
X213613891Y-156955093D02*
X217100000Y-144900000D01*
M02*
