M48
; DRILL file {KiCad 5.1.10} date Tue Sep  7 21:41:55 2021
; FORMAT={-:-/ absolute / metric / decimal}
; #@! TF.CreationDate,2021-09-07T21:41:55+02:00
; #@! TF.GenerationSoftware,Kicad,Pcbnew,5.1.10
; #@! TF.FileFunction,Plated,1,2,PTH
FMAT,2
METRIC
T1C0.400
T2C0.813
T3C0.914
T4C1.000
T5C1.500
T6C4.100
%
G90
G05
T1
X76.2Y-85.295
X76.2Y-104.222
X76.2Y-123.312
X78.873Y-69.82
X78.873Y-126.82
X78.899Y-88.82
X81.725Y-105.05
X82.072Y-109.165
X83.318Y-125.42
X83.79Y-89.498
X84.016Y-87.42
X84.367Y-107.82
X84.371Y-68.927
X87.464Y-70.663
X87.526Y-106.42
X88.064Y-68.579
X88.161Y-89.096
X88.161Y-126.12
X90.885Y-59.515
X91.862Y-125.42
X97.764Y-87.01
X99.054Y-105.218
X101.148Y-107.059
X101.867Y-88.82
X102.098Y-69.82
X102.846Y-87.504
X102.848Y-106.177
X103.361Y-88.885
X103.372Y-107.82
X103.38Y-126.658
X103.389Y-70.064
X106.507Y-125.42
X107.197Y-68.42
X109.752Y-78.115
X109.752Y-97.445
X111.052Y-61.24
X111.282Y-117.942
X111.282Y-123.461
X114.2Y-76.453
X116.872Y-63.614
X116.89Y-101.468
X116.898Y-120.645
X119.972Y-121.484
X120.1Y-101.926
X120.988Y-82.645
X122.381Y-81.245
X122.381Y-100.245
X122.381Y-119.245
X122.384Y-62.245
X123.223Y-104.267
X125.225Y-59.407
X125.502Y-63.645
X125.509Y-101.645
X125.52Y-82.645
X125.935Y-119.786
X126.629Y-78.327
X127.53Y-82.216
X128.2Y-98.466
X128.2Y-107.809
X131.264Y-55.58
X133.2Y-96.44
X133.2Y-114.984
X135.372Y-117.942
X135.887Y-98.281
X135.897Y-61.745
X135.898Y-79.345
X136.147Y-144.485
X136.789Y-142.23
X139.006Y-118.745
X139.036Y-79.745
X139.353Y-62.67
X139.361Y-144.162
X140.191Y-99.97
X140.57Y-120.29
X141.373Y-62.047
X141.378Y-99.745
X141.378Y-118.745
X141.391Y-80.745
X141.526Y-102.148
X141.618Y-144.536
X141.675Y-97.265
X142.711Y-76.48
X144.516Y-117.298
X144.715Y-146.116
X146.344Y-84.225
X146.963Y-60.345
X147.765Y-51.417
X150.625Y-85.056
X152.2Y-81.361
X153.324Y-142.659
X154.316Y-122.545
X154.506Y-121.145
X154.895Y-83.567
X155.089Y-101.134
X155.175Y-105.1
X155.455Y-147.849
X158.767Y-84.883
X159.922Y-102.145
X160.253Y-83.145
X160.393Y-64.733
X160.992Y-85.936
X163.352Y-123.503
X163.511Y-64.145
X163.524Y-84.545
X163.524Y-103.545
X163.543Y-121.716
X164.517Y-149.915
X166.2Y-116.754
X166.972Y-55.229
X167.097Y-153.638
X167.151Y-124.65
X167.313Y-122.503
X168.071Y-95.064
X168.59Y-153.085
X168.79Y-103.545
X171.677Y-67.429
X172.545Y-75.988
X173.883Y-124.873
X173.89Y-87.054
X174.175Y-105.05
X176.489Y-109.28
X177.045Y-149.858
X177.14Y-133.452
X177.422Y-70.316
X177.566Y-88.82
X177.851Y-69.188
X178.556Y-98.675
X179.391Y-88.885
X179.392Y-107.82
X179.398Y-125.42
X179.492Y-67.521
X179.675Y-86.082
X179.692Y-153.661
X182.307Y-70.821
X182.486Y-110.365
X182.505Y-87.42
X182.521Y-126.82
X183.438Y-131.133
X184.024Y-110.717
X184.467Y-152.836
X186.041Y-75.791
X186.041Y-88.661
X186.654Y-115.699
X198.2Y-135.8
X198.25Y-114.05
X209.412Y-133.67
T2
X80.2Y-55.376
X80.2Y-74.376
X80.2Y-93.376
X80.2Y-112.376
X86.2Y-55.376
X86.2Y-74.376
X86.2Y-93.376
X86.2Y-112.376
X99.2Y-55.376
X99.2Y-74.376
X99.2Y-93.376
X99.2Y-112.376
X105.2Y-55.376
X105.2Y-74.376
X105.2Y-93.376
X105.2Y-112.376
X118.2Y-49.201
X118.2Y-68.201
X118.2Y-87.201
X118.2Y-106.201
X124.2Y-49.201
X124.2Y-68.201
X124.2Y-87.201
X124.2Y-106.201
X137.2Y-47.301
X137.2Y-66.301
X137.2Y-85.301
X137.2Y-104.301
X137.2Y-123.301
X143.2Y-47.301
X143.2Y-66.301
X143.2Y-85.301
X143.2Y-104.301
X143.2Y-123.301
X156.2Y-51.101
X156.2Y-70.101
X156.2Y-89.101
X156.2Y-108.101
X156.2Y-127.101
X162.2Y-51.101
X162.2Y-70.101
X162.2Y-89.101
X162.2Y-108.101
X162.2Y-127.101
X175.2Y-55.376
X175.2Y-74.376
X175.2Y-93.376
X175.2Y-112.376
X175.2Y-131.376
X181.2Y-55.376
X181.2Y-74.376
X181.2Y-93.376
X181.2Y-112.376
X181.2Y-131.376
X195.6Y-139.6
X195.6Y-145.6
T3
X189.735Y-75.9
X189.735Y-78.44
X189.735Y-80.98
X189.735Y-83.52
X189.735Y-86.06
X189.735Y-88.6
X189.735Y-91.14
X189.735Y-93.68
X189.735Y-96.22
X189.735Y-98.76
X189.735Y-101.3
X189.735Y-103.84
X189.735Y-106.38
X189.735Y-108.92
X189.735Y-111.46
X189.735Y-114.0
X189.735Y-116.54
X189.735Y-119.08
X192.205Y-75.95
X192.205Y-78.49
X192.205Y-81.03
X192.205Y-83.57
X192.205Y-86.11
X192.205Y-88.65
X192.205Y-91.19
X192.205Y-93.73
X192.205Y-96.27
X192.205Y-98.81
X192.205Y-101.35
X192.205Y-103.89
X192.205Y-106.43
X192.205Y-108.97
X192.205Y-111.51
X192.205Y-114.05
X192.205Y-116.59
X192.205Y-119.13
X212.595Y-75.9
X212.595Y-78.44
X212.595Y-80.98
X212.595Y-83.52
X212.595Y-86.06
X212.595Y-88.6
X212.595Y-91.14
X212.595Y-93.68
X212.595Y-96.22
X212.595Y-98.76
X212.595Y-101.3
X212.595Y-103.84
X212.595Y-106.38
X212.595Y-108.92
X212.595Y-111.46
X212.595Y-114.0
X212.595Y-116.54
X212.595Y-119.08
X215.065Y-75.95
X215.065Y-78.49
X215.065Y-81.03
X215.065Y-83.57
X215.065Y-86.11
X215.065Y-88.65
X215.065Y-91.19
X215.065Y-93.73
X215.065Y-96.27
X215.065Y-98.81
X215.065Y-101.35
X215.065Y-103.89
X215.065Y-106.43
X215.065Y-108.97
X215.065Y-111.51
X215.065Y-114.05
X215.065Y-116.59
X215.065Y-119.13
T4
X203.244Y-153.661
X206.997Y-139.656
X208.074Y-154.956
X209.412Y-140.303
X211.827Y-140.95
T6
X92.7Y-73.32
X92.7Y-111.32
X130.7Y-85.195
X150.211Y-128.186
X168.7Y-71.182
X194.213Y-126.82
X210.54Y-126.82
T5
G00X202.23Y-145.47
M15
G01X201.894Y-146.725
M16
G05
G00X213.048Y-148.369
M15
G01X212.712Y-149.624
M16
G05
T0
M30
