<?xml version="1.0" standalone="no"?>
 <!DOCTYPE svg PUBLIC "-//W3C//DTD SVG 1.1//EN" 
 "http://www.w3.org/Graphics/SVG/1.1/DTD/svg11.dtd"> 
<svg
  xmlns:svg="http://www.w3.org/2000/svg"
  xmlns="http://www.w3.org/2000/svg"
  xmlns:xlink="http://www.w3.org/1999/xlink"
  version="1.1"
  width="14.368780cm" height="11.790680cm" viewBox="0 0 56570 46420">
<title>SVG Picture created as elanor-Dwgs_User.svg date 2021/09/14 16:07:54 </title>
  <desc>Picture generated by PCBNEW </desc>
<g style="fill:#000000; fill-opacity:1;stroke:#000000; stroke-opacity:1;
stroke-linecap:round; stroke-linejoin:round;"
 transform="translate(0 0) scale(1 1)">
</g>
<g style="fill:#000000; fill-opacity:0.0; 
stroke:#000000; stroke-width:-0.000393701; stroke-opacity:1; 
stroke-linecap:round; stroke-linejoin:round;">
</g>
<g style="fill:#000000; fill-opacity:0.0; 
stroke:#000000; stroke-width:59.0551; stroke-opacity:1; 
stroke-linecap:round; stroke-linejoin:round;">
<path d="M39839 33880
L47084 35821
" />
<path d="M47084 35821
L44172 46688
" />
<path d="M44172 46688
L36928 44747
" />
<path d="M39839 33880
L36928 44747
" />
<path d="M39955 37289
L40057 36908
" />
<path d="M45381 38335
L45001 38233
" />
<path d="M38732 41852
L38631 42232
" />
<path d="M43574 43557
L43955 43659
" />
<path d="M43955 43659
L44056 43279
" />
<path d="M40057 36908
L40437 37010
" />
<path d="M45381 38335
L45279 38715
" />
<path d="M38631 42232
L39011 42334
" />
<path d="M31378 33393
L38764 34695
" />
<path d="M38764 34695
L37136 43928
" />
<path d="M37136 43928
L29750 42625
" />
<path d="M31378 33393
L29750 42625
" />
<path d="M31953 35855
L32022 35468
" />
<path d="M37450 36425
L37062 36356
" />
<path d="M31133 40508
L31064 40896
" />
<path d="M36105 41784
L36492 41853
" />
<path d="M36492 41853
L36561 41465
" />
<path d="M32022 35468
L32409 35536
" />
<path d="M37450 36425
L37381 36812
" />
<path d="M31064 40896
L31452 40964
" />
<path d="M39 3570
L7539 3570
" />
<path d="M7539 3570
L7539 11070
" />
<path d="M7539 11070
L39 11070
" />
<path d="M39 11070
L39 3570
" />
<path d="M1033 4958
L1033 4564
" />
<path d="M6545 4564
L6151 4564
" />
<path d="M1033 9683
L1033 10076
" />
<path d="M6151 10076
L6545 10076
" />
<path d="M6545 10076
L6545 9683
" />
<path d="M1033 4564
L1427 4564
" />
<path d="M6545 4564
L6545 4958
" />
<path d="M1033 10076
L1427 10076
" />
<path d="M7519 3570
L15019 3570
" />
<path d="M15019 3570
L15019 11070
" />
<path d="M15019 11070
L7519 11070
" />
<path d="M7519 11070
L7519 3570
" />
<path d="M8513 4958
L8513 4564
" />
<path d="M14025 4564
L13631 4564
" />
<path d="M8513 9683
L8513 10076
" />
<path d="M13631 10076
L14025 10076
" />
<path d="M14025 10076
L14025 9683
" />
<path d="M8513 4564
L8907 4564
" />
<path d="M14025 4564
L14025 4958
" />
<path d="M8513 10076
L8907 10076
" />
<path d="M15000 1139
L22500 1139
" />
<path d="M22500 1139
L22500 8639
" />
<path d="M22500 8639
L15000 8639
" />
<path d="M15000 8639
L15000 1139
" />
<path d="M15994 2527
L15994 2133
" />
<path d="M21505 2133
L21112 2133
" />
<path d="M15994 7251
L15994 7645
" />
<path d="M21112 7645
L21505 7645
" />
<path d="M21505 7645
L21505 7251
" />
<path d="M15994 2133
L16387 2133
" />
<path d="M21505 2133
L21505 2527
" />
<path d="M15994 7645
L16387 7645
" />
<path d="M22480 391
L29980 391
" />
<path d="M29980 391
L29980 7891
" />
<path d="M29980 7891
L22480 7891
" />
<path d="M22480 7891
L22480 391
" />
<path d="M23474 1779
L23474 1385
" />
<path d="M28986 1385
L28592 1385
" />
<path d="M23474 6503
L23474 6897
" />
<path d="M28592 6897
L28986 6897
" />
<path d="M28986 6897
L28986 6503
" />
<path d="M23474 1385
L23868 1385
" />
<path d="M28986 1385
L28986 1779
" />
<path d="M23474 6897
L23868 6897
" />
<path d="M29960 1887
L37460 1887
" />
<path d="M37460 1887
L37460 9387
" />
<path d="M37460 9387
L29960 9387
" />
<path d="M29960 9387
L29960 1887
" />
<path d="M30954 3275
L30954 2881
" />
<path d="M36466 2881
L36072 2881
" />
<path d="M30954 8000
L30954 8393
" />
<path d="M36072 8393
L36466 8393
" />
<path d="M36466 8393
L36466 8000
" />
<path d="M30954 2881
L31348 2881
" />
<path d="M36466 2881
L36466 3275
" />
<path d="M30954 8393
L31348 8393
" />
<path d="M37440 3570
L44940 3570
" />
<path d="M44940 3570
L44940 11070
" />
<path d="M44940 11070
L37440 11070
" />
<path d="M37440 11070
L37440 3570
" />
<path d="M38435 4958
L38435 4564
" />
<path d="M43946 4564
L43553 4564
" />
<path d="M38435 9683
L38435 10076
" />
<path d="M43553 10076
L43946 10076
" />
<path d="M43946 10076
L43946 9683
" />
<path d="M38435 4564
L38828 4564
" />
<path d="M43946 4564
L43946 4958
" />
<path d="M38435 10076
L38828 10076
" />
<path d="M39 11051
L7539 11051
" />
<path d="M7539 11051
L7539 18551
" />
<path d="M7539 18551
L39 18551
" />
<path d="M39 18551
L39 11051
" />
<path d="M1033 12438
L1033 12045
" />
<path d="M6545 12045
L6151 12045
" />
<path d="M1033 17163
L1033 17557
" />
<path d="M6151 17557
L6545 17557
" />
<path d="M6545 17557
L6545 17163
" />
<path d="M1033 12045
L1427 12045
" />
<path d="M6545 12045
L6545 12438
" />
<path d="M1033 17557
L1427 17557
" />
<path d="M7519 11051
L15019 11051
" />
<path d="M15019 11051
L15019 18551
" />
<path d="M15019 18551
L7519 18551
" />
<path d="M7519 18551
L7519 11051
" />
<path d="M8513 12438
L8513 12045
" />
<path d="M14025 12045
L13631 12045
" />
<path d="M8513 17163
L8513 17557
" />
<path d="M13631 17557
L14025 17557
" />
<path d="M14025 17557
L14025 17163
" />
<path d="M8513 12045
L8907 12045
" />
<path d="M14025 12045
L14025 12438
" />
<path d="M8513 17557
L8907 17557
" />
<path d="M15000 8620
L22500 8620
" />
<path d="M22500 8620
L22500 16120
" />
<path d="M22500 16120
L15000 16120
" />
<path d="M15000 16120
L15000 8620
" />
<path d="M15994 10007
L15994 9614
" />
<path d="M21505 9614
L21112 9614
" />
<path d="M15994 14732
L15994 15125
" />
<path d="M21112 15125
L21505 15125
" />
<path d="M21505 15125
L21505 14732
" />
<path d="M15994 9614
L16387 9614
" />
<path d="M21505 9614
L21505 10007
" />
<path d="M15994 15125
L16387 15125
" />
<path d="M22480 7872
L29980 7872
" />
<path d="M29980 7872
L29980 15372
" />
<path d="M29980 15372
L22480 15372
" />
<path d="M22480 15372
L22480 7872
" />
<path d="M23474 9259
L23474 8866
" />
<path d="M28986 8866
L28592 8866
" />
<path d="M23474 13984
L23474 14377
" />
<path d="M28592 14377
L28986 14377
" />
<path d="M28986 14377
L28986 13984
" />
<path d="M23474 8866
L23868 8866
" />
<path d="M28986 8866
L28986 9259
" />
<path d="M23474 14377
L23868 14377
" />
<path d="M29960 9368
L37460 9368
" />
<path d="M37460 9368
L37460 16868
" />
<path d="M37460 16868
L29960 16868
" />
<path d="M29960 16868
L29960 9368
" />
<path d="M30954 10755
L30954 10362
" />
<path d="M36466 10362
L36072 10362
" />
<path d="M30954 15480
L30954 15874
" />
<path d="M36072 15874
L36466 15874
" />
<path d="M36466 15874
L36466 15480
" />
<path d="M30954 10362
L31348 10362
" />
<path d="M36466 10362
L36466 10755
" />
<path d="M30954 15874
L31348 15874
" />
<path d="M37440 11051
L44940 11051
" />
<path d="M44940 11051
L44940 18551
" />
<path d="M44940 18551
L37440 18551
" />
<path d="M37440 18551
L37440 11051
" />
<path d="M38435 12438
L38435 12045
" />
<path d="M43946 12045
L43553 12045
" />
<path d="M38435 17163
L38435 17557
" />
<path d="M43553 17557
L43946 17557
" />
<path d="M43946 17557
L43946 17163
" />
<path d="M38435 12045
L38828 12045
" />
<path d="M43946 12045
L43946 12438
" />
<path d="M38435 17557
L38828 17557
" />
<path d="M39 18531
L7539 18531
" />
<path d="M7539 18531
L7539 26031
" />
<path d="M7539 26031
L39 26031
" />
<path d="M39 26031
L39 18531
" />
<path d="M1033 19919
L1033 19525
" />
<path d="M6545 19525
L6151 19525
" />
<path d="M1033 24643
L1033 25037
" />
<path d="M6151 25037
L6545 25037
" />
<path d="M6545 25037
L6545 24643
" />
<path d="M1033 19525
L1427 19525
" />
<path d="M6545 19525
L6545 19919
" />
<path d="M1033 25037
L1427 25037
" />
<path d="M7519 18531
L15019 18531
" />
<path d="M15019 18531
L15019 26031
" />
<path d="M15019 26031
L7519 26031
" />
<path d="M7519 26031
L7519 18531
" />
<path d="M8513 19919
L8513 19525
" />
<path d="M14025 19525
L13631 19525
" />
<path d="M8513 24643
L8513 25037
" />
<path d="M13631 25037
L14025 25037
" />
<path d="M14025 25037
L14025 24643
" />
<path d="M8513 19525
L8907 19525
" />
<path d="M14025 19525
L14025 19919
" />
<path d="M8513 25037
L8907 25037
" />
<path d="M15000 16100
L22500 16100
" />
<path d="M22500 16100
L22500 23600
" />
<path d="M22500 23600
L15000 23600
" />
<path d="M15000 23600
L15000 16100
" />
<path d="M15994 17488
L15994 17094
" />
<path d="M21505 17094
L21112 17094
" />
<path d="M15994 22212
L15994 22606
" />
<path d="M21112 22606
L21505 22606
" />
<path d="M21505 22606
L21505 22212
" />
<path d="M15994 17094
L16387 17094
" />
<path d="M21505 17094
L21505 17488
" />
<path d="M15994 22606
L16387 22606
" />
<path d="M22480 15352
L29980 15352
" />
<path d="M29980 15352
L29980 22852
" />
<path d="M29980 22852
L22480 22852
" />
<path d="M22480 22852
L22480 15352
" />
<path d="M23474 16740
L23474 16346
" />
<path d="M28986 16346
L28592 16346
" />
<path d="M23474 21464
L23474 21858
" />
<path d="M28592 21858
L28986 21858
" />
<path d="M28986 21858
L28986 21464
" />
<path d="M23474 16346
L23868 16346
" />
<path d="M28986 16346
L28986 16740
" />
<path d="M23474 21858
L23868 21858
" />
<path d="M29960 16848
L37460 16848
" />
<path d="M37460 16848
L37460 24348
" />
<path d="M37460 24348
L29960 24348
" />
<path d="M29960 24348
L29960 16848
" />
<path d="M30954 18236
L30954 17842
" />
<path d="M36466 17842
L36072 17842
" />
<path d="M30954 22960
L30954 23354
" />
<path d="M36072 23354
L36466 23354
" />
<path d="M36466 23354
L36466 22960
" />
<path d="M30954 17842
L31348 17842
" />
<path d="M36466 17842
L36466 18236
" />
<path d="M30954 23354
L31348 23354
" />
<path d="M37440 18531
L44940 18531
" />
<path d="M44940 18531
L44940 26031
" />
<path d="M44940 26031
L37440 26031
" />
<path d="M37440 26031
L37440 18531
" />
<path d="M38435 19919
L38435 19525
" />
<path d="M43946 19525
L43553 19525
" />
<path d="M38435 24643
L38435 25037
" />
<path d="M43553 25037
L43946 25037
" />
<path d="M43946 25037
L43946 24643
" />
<path d="M38435 19525
L38828 19525
" />
<path d="M43946 19525
L43946 19919
" />
<path d="M38435 25037
L38828 25037
" />
<path d="M39 26011
L7539 26011
" />
<path d="M7539 26011
L7539 33511
" />
<path d="M7539 33511
L39 33511
" />
<path d="M39 33511
L39 26011
" />
<path d="M1033 27399
L1033 27005
" />
<path d="M6545 27005
L6151 27005
" />
<path d="M1033 32124
L1033 32517
" />
<path d="M6151 32517
L6545 32517
" />
<path d="M6545 32517
L6545 32124
" />
<path d="M1033 27005
L1427 27005
" />
<path d="M6545 27005
L6545 27399
" />
<path d="M1033 32517
L1427 32517
" />
<path d="M7519 26011
L15019 26011
" />
<path d="M15019 26011
L15019 33511
" />
<path d="M15019 33511
L7519 33511
" />
<path d="M7519 33511
L7519 26011
" />
<path d="M8513 27399
L8513 27005
" />
<path d="M14025 27005
L13631 27005
" />
<path d="M8513 32124
L8513 32517
" />
<path d="M13631 32517
L14025 32517
" />
<path d="M14025 32517
L14025 32124
" />
<path d="M8513 27005
L8907 27005
" />
<path d="M14025 27005
L14025 27399
" />
<path d="M8513 32517
L8907 32517
" />
<path d="M15000 23580
L22500 23580
" />
<path d="M22500 23580
L22500 31080
" />
<path d="M22500 31080
L15000 31080
" />
<path d="M15000 31080
L15000 23580
" />
<path d="M15994 24968
L15994 24574
" />
<path d="M21505 24574
L21112 24574
" />
<path d="M15994 29692
L15994 30086
" />
<path d="M21112 30086
L21505 30086
" />
<path d="M21505 30086
L21505 29692
" />
<path d="M15994 24574
L16387 24574
" />
<path d="M21505 24574
L21505 24968
" />
<path d="M15994 30086
L16387 30086
" />
<path d="M22480 22832
L29980 22832
" />
<path d="M29980 22832
L29980 30332
" />
<path d="M29980 30332
L22480 30332
" />
<path d="M22480 30332
L22480 22832
" />
<path d="M23474 24220
L23474 23826
" />
<path d="M28986 23826
L28592 23826
" />
<path d="M23474 28944
L23474 29338
" />
<path d="M28592 29338
L28986 29338
" />
<path d="M28986 29338
L28986 28944
" />
<path d="M23474 23826
L23868 23826
" />
<path d="M28986 23826
L28986 24220
" />
<path d="M23474 29338
L23868 29338
" />
<path d="M29960 24328
L37460 24328
" />
<path d="M37460 24328
L37460 31828
" />
<path d="M37460 31828
L29960 31828
" />
<path d="M29960 31828
L29960 24328
" />
<path d="M30954 25716
L30954 25322
" />
<path d="M36466 25322
L36072 25322
" />
<path d="M30954 30440
L30954 30834
" />
<path d="M36072 30834
L36466 30834
" />
<path d="M36466 30834
L36466 30440
" />
<path d="M30954 25322
L31348 25322
" />
<path d="M36466 25322
L36466 25716
" />
<path d="M30954 30834
L31348 30834
" />
<path d="M37440 26011
L44940 26011
" />
<path d="M44940 26011
L44940 33511
" />
<path d="M44940 33511
L37440 33511
" />
<path d="M37440 33511
L37440 26011
" />
<path d="M38435 27399
L38435 27005
" />
<path d="M43946 27005
L43553 27005
" />
<path d="M38435 32124
L38435 32517
" />
<path d="M43553 32517
L43946 32517
" />
<path d="M43946 32517
L43946 32124
" />
<path d="M38435 27005
L38828 27005
" />
<path d="M43946 27005
L43946 27399
" />
<path d="M38435 32517
L38828 32517
" />
<path d="M23095 33138
L30567 33791
" />
<path d="M30567 33791
L29913 41263
" />
<path d="M29913 41263
L22442 40609
" />
<path d="M22442 40609
L23095 33138
" />
<path d="M23965 34607
L23999 34215
" />
<path d="M29490 34695
L29098 34661
" />
<path d="M23553 39313
L23519 39706
" />
<path d="M28617 40152
L29009 40186
" />
<path d="M29009 40186
L29044 39794
" />
<path d="M23999 34215
L24391 34249
" />
<path d="M29490 34695
L29456 35087
" />
<path d="M23519 39706
L23911 39740
" />
</g>
<g style="fill:#000000; fill-opacity:0.0; 
stroke:#000000; stroke-width:47.2441; stroke-opacity:1; 
stroke-linecap:round; stroke-linejoin:round;">
<path d="M3159 8856
L4419 8856
" />
<path d="M3159 9958
L4419 9958
" />
<path d="M3159 8856
L3159 9958
" />
<path d="M4419 8856
L4419 9958
" />
<path d="M3159 8994
L2631 8994
" />
<path d="M2631 8994
L2631 9261
" />
<path d="M2631 9261
L3159 9261
" />
<path d="M3159 9545
L2631 9545
" />
<path d="M2631 9812
L3159 9812
" />
<path d="M2631 9545
L2631 9812
" />
<path d="M4419 9812
L4946 9812
" />
<path d="M4946 9545
L4419 9545
" />
<path d="M4946 9812
L4946 9545
" />
<path d="M4419 9261
L4946 9261
" />
<path d="M4946 8994
L4419 8994
" />
<path d="M4946 9261
L4946 8994
" />
<path d="M10639 8856
L11899 8856
" />
<path d="M10639 9958
L11899 9958
" />
<path d="M10639 8856
L10639 9958
" />
<path d="M11899 8856
L11899 9958
" />
<path d="M10639 8994
L10112 8994
" />
<path d="M10112 8994
L10112 9261
" />
<path d="M10112 9261
L10639 9261
" />
<path d="M10639 9545
L10112 9545
" />
<path d="M10112 9812
L10639 9812
" />
<path d="M10112 9545
L10112 9812
" />
<path d="M11899 9812
L12427 9812
" />
<path d="M12427 9545
L11899 9545
" />
<path d="M12427 9812
L12427 9545
" />
<path d="M11899 9261
L12427 9261
" />
<path d="M12427 8994
L11899 8994
" />
<path d="M12427 9261
L12427 8994
" />
<path d="M18120 6425
L19379 6425
" />
<path d="M18120 7527
L19379 7527
" />
<path d="M18120 6425
L18120 7527
" />
<path d="M19379 6425
L19379 7527
" />
<path d="M18120 6562
L17592 6562
" />
<path d="M17592 6562
L17592 6830
" />
<path d="M17592 6830
L18120 6830
" />
<path d="M18120 7114
L17592 7114
" />
<path d="M17592 7381
L18120 7381
" />
<path d="M17592 7114
L17592 7381
" />
<path d="M19379 7381
L19907 7381
" />
<path d="M19907 7114
L19379 7114
" />
<path d="M19907 7381
L19907 7114
" />
<path d="M19379 6830
L19907 6830
" />
<path d="M19907 6562
L19379 6562
" />
<path d="M19907 6830
L19907 6562
" />
<path d="M25600 5677
L26860 5677
" />
<path d="M25600 6779
L26860 6779
" />
<path d="M25600 5677
L25600 6779
" />
<path d="M26860 5677
L26860 6779
" />
<path d="M25600 5814
L25072 5814
" />
<path d="M25072 5814
L25072 6082
" />
<path d="M25072 6082
L25600 6082
" />
<path d="M25600 6366
L25072 6366
" />
<path d="M25072 6633
L25600 6633
" />
<path d="M25072 6366
L25072 6633
" />
<path d="M26860 6633
L27387 6633
" />
<path d="M27387 6366
L26860 6366
" />
<path d="M27387 6633
L27387 6366
" />
<path d="M26860 6082
L27387 6082
" />
<path d="M27387 5814
L26860 5814
" />
<path d="M27387 6082
L27387 5814
" />
<path d="M33080 7173
L34340 7173
" />
<path d="M33080 8275
L34340 8275
" />
<path d="M33080 7173
L33080 8275
" />
<path d="M34340 7173
L34340 8275
" />
<path d="M33080 7311
L32553 7311
" />
<path d="M32553 7311
L32553 7578
" />
<path d="M32553 7578
L33080 7578
" />
<path d="M33080 7862
L32553 7862
" />
<path d="M32553 8129
L33080 8129
" />
<path d="M32553 7862
L32553 8129
" />
<path d="M34340 8129
L34868 8129
" />
<path d="M34868 7862
L34340 7862
" />
<path d="M34868 8129
L34868 7862
" />
<path d="M34340 7578
L34868 7578
" />
<path d="M34868 7311
L34340 7311
" />
<path d="M34868 7578
L34868 7311
" />
<path d="M40561 8856
L41820 8856
" />
<path d="M40561 9958
L41820 9958
" />
<path d="M40561 8856
L40561 9958
" />
<path d="M41820 8856
L41820 9958
" />
<path d="M40561 8994
L40033 8994
" />
<path d="M40033 8994
L40033 9261
" />
<path d="M40033 9261
L40561 9261
" />
<path d="M40561 9545
L40033 9545
" />
<path d="M40033 9812
L40561 9812
" />
<path d="M40033 9545
L40033 9812
" />
<path d="M41820 9812
L42348 9812
" />
<path d="M42348 9545
L41820 9545
" />
<path d="M42348 9812
L42348 9545
" />
<path d="M41820 9261
L42348 9261
" />
<path d="M42348 8994
L41820 8994
" />
<path d="M42348 9261
L42348 8994
" />
<path d="M3159 16336
L4419 16336
" />
<path d="M3159 17438
L4419 17438
" />
<path d="M3159 16336
L3159 17438
" />
<path d="M4419 16336
L4419 17438
" />
<path d="M3159 16474
L2631 16474
" />
<path d="M2631 16474
L2631 16742
" />
<path d="M2631 16742
L3159 16742
" />
<path d="M3159 17025
L2631 17025
" />
<path d="M2631 17293
L3159 17293
" />
<path d="M2631 17025
L2631 17293
" />
<path d="M4419 17293
L4946 17293
" />
<path d="M4946 17025
L4419 17025
" />
<path d="M4946 17293
L4946 17025
" />
<path d="M4419 16742
L4946 16742
" />
<path d="M4946 16474
L4419 16474
" />
<path d="M4946 16742
L4946 16474
" />
<path d="M10639 16336
L11899 16336
" />
<path d="M10639 17438
L11899 17438
" />
<path d="M10639 16336
L10639 17438
" />
<path d="M11899 16336
L11899 17438
" />
<path d="M10639 16474
L10112 16474
" />
<path d="M10112 16474
L10112 16742
" />
<path d="M10112 16742
L10639 16742
" />
<path d="M10639 17025
L10112 17025
" />
<path d="M10112 17293
L10639 17293
" />
<path d="M10112 17025
L10112 17293
" />
<path d="M11899 17293
L12427 17293
" />
<path d="M12427 17025
L11899 17025
" />
<path d="M12427 17293
L12427 17025
" />
<path d="M11899 16742
L12427 16742
" />
<path d="M12427 16474
L11899 16474
" />
<path d="M12427 16742
L12427 16474
" />
<path d="M18120 13905
L19379 13905
" />
<path d="M18120 15007
L19379 15007
" />
<path d="M18120 13905
L18120 15007
" />
<path d="M19379 13905
L19379 15007
" />
<path d="M18120 14043
L17592 14043
" />
<path d="M17592 14043
L17592 14311
" />
<path d="M17592 14311
L18120 14311
" />
<path d="M18120 14594
L17592 14594
" />
<path d="M17592 14862
L18120 14862
" />
<path d="M17592 14594
L17592 14862
" />
<path d="M19379 14862
L19907 14862
" />
<path d="M19907 14594
L19379 14594
" />
<path d="M19907 14862
L19907 14594
" />
<path d="M19379 14311
L19907 14311
" />
<path d="M19907 14043
L19379 14043
" />
<path d="M19907 14311
L19907 14043
" />
<path d="M25600 13157
L26860 13157
" />
<path d="M25600 14259
L26860 14259
" />
<path d="M25600 13157
L25600 14259
" />
<path d="M26860 13157
L26860 14259
" />
<path d="M25600 13295
L25072 13295
" />
<path d="M25072 13295
L25072 13562
" />
<path d="M25072 13562
L25600 13562
" />
<path d="M25600 13846
L25072 13846
" />
<path d="M25072 14114
L25600 14114
" />
<path d="M25072 13846
L25072 14114
" />
<path d="M26860 14114
L27387 14114
" />
<path d="M27387 13846
L26860 13846
" />
<path d="M27387 14114
L27387 13846
" />
<path d="M26860 13562
L27387 13562
" />
<path d="M27387 13295
L26860 13295
" />
<path d="M27387 13562
L27387 13295
" />
<path d="M33080 14653
L34340 14653
" />
<path d="M33080 15755
L34340 15755
" />
<path d="M33080 14653
L33080 15755
" />
<path d="M34340 14653
L34340 15755
" />
<path d="M33080 14791
L32553 14791
" />
<path d="M32553 14791
L32553 15059
" />
<path d="M32553 15059
L33080 15059
" />
<path d="M33080 15342
L32553 15342
" />
<path d="M32553 15610
L33080 15610
" />
<path d="M32553 15342
L32553 15610
" />
<path d="M34340 15610
L34868 15610
" />
<path d="M34868 15342
L34340 15342
" />
<path d="M34868 15610
L34868 15342
" />
<path d="M34340 15059
L34868 15059
" />
<path d="M34868 14791
L34340 14791
" />
<path d="M34868 15059
L34868 14791
" />
<path d="M40561 16336
L41820 16336
" />
<path d="M40561 17438
L41820 17438
" />
<path d="M40561 16336
L40561 17438
" />
<path d="M41820 16336
L41820 17438
" />
<path d="M40561 16474
L40033 16474
" />
<path d="M40033 16474
L40033 16742
" />
<path d="M40033 16742
L40561 16742
" />
<path d="M40561 17025
L40033 17025
" />
<path d="M40033 17293
L40561 17293
" />
<path d="M40033 17025
L40033 17293
" />
<path d="M41820 17293
L42348 17293
" />
<path d="M42348 17025
L41820 17025
" />
<path d="M42348 17293
L42348 17025
" />
<path d="M41820 16742
L42348 16742
" />
<path d="M42348 16474
L41820 16474
" />
<path d="M42348 16742
L42348 16474
" />
<path d="M3159 23816
L4419 23816
" />
<path d="M3159 24919
L4419 24919
" />
<path d="M3159 23816
L3159 24919
" />
<path d="M4419 23816
L4419 24919
" />
<path d="M3159 23954
L2631 23954
" />
<path d="M2631 23954
L2631 24222
" />
<path d="M2631 24222
L3159 24222
" />
<path d="M3159 24505
L2631 24505
" />
<path d="M2631 24773
L3159 24773
" />
<path d="M2631 24505
L2631 24773
" />
<path d="M4419 24773
L4946 24773
" />
<path d="M4946 24505
L4419 24505
" />
<path d="M4946 24773
L4946 24505
" />
<path d="M4419 24222
L4946 24222
" />
<path d="M4946 23954
L4419 23954
" />
<path d="M4946 24222
L4946 23954
" />
<path d="M10639 23816
L11899 23816
" />
<path d="M10639 24919
L11899 24919
" />
<path d="M10639 23816
L10639 24919
" />
<path d="M11899 23816
L11899 24919
" />
<path d="M10639 23954
L10112 23954
" />
<path d="M10112 23954
L10112 24222
" />
<path d="M10112 24222
L10639 24222
" />
<path d="M10639 24505
L10112 24505
" />
<path d="M10112 24773
L10639 24773
" />
<path d="M10112 24505
L10112 24773
" />
<path d="M11899 24773
L12427 24773
" />
<path d="M12427 24505
L11899 24505
" />
<path d="M12427 24773
L12427 24505
" />
<path d="M11899 24222
L12427 24222
" />
<path d="M12427 23954
L11899 23954
" />
<path d="M12427 24222
L12427 23954
" />
<path d="M18120 21385
L19379 21385
" />
<path d="M18120 22488
L19379 22488
" />
<path d="M18120 21385
L18120 22488
" />
<path d="M19379 21385
L19379 22488
" />
<path d="M18120 21523
L17592 21523
" />
<path d="M17592 21523
L17592 21791
" />
<path d="M17592 21791
L18120 21791
" />
<path d="M18120 22074
L17592 22074
" />
<path d="M17592 22342
L18120 22342
" />
<path d="M17592 22074
L17592 22342
" />
<path d="M19379 22342
L19907 22342
" />
<path d="M19907 22074
L19379 22074
" />
<path d="M19907 22342
L19907 22074
" />
<path d="M19379 21791
L19907 21791
" />
<path d="M19907 21523
L19379 21523
" />
<path d="M19907 21791
L19907 21523
" />
<path d="M25600 20637
L26860 20637
" />
<path d="M25600 21740
L26860 21740
" />
<path d="M25600 20637
L25600 21740
" />
<path d="M26860 20637
L26860 21740
" />
<path d="M25600 20775
L25072 20775
" />
<path d="M25072 20775
L25072 21043
" />
<path d="M25072 21043
L25600 21043
" />
<path d="M25600 21326
L25072 21326
" />
<path d="M25072 21594
L25600 21594
" />
<path d="M25072 21326
L25072 21594
" />
<path d="M26860 21594
L27387 21594
" />
<path d="M27387 21326
L26860 21326
" />
<path d="M27387 21594
L27387 21326
" />
<path d="M26860 21043
L27387 21043
" />
<path d="M27387 20775
L26860 20775
" />
<path d="M27387 21043
L27387 20775
" />
<path d="M33080 22133
L34340 22133
" />
<path d="M33080 23236
L34340 23236
" />
<path d="M33080 22133
L33080 23236
" />
<path d="M34340 22133
L34340 23236
" />
<path d="M33080 22271
L32553 22271
" />
<path d="M32553 22271
L32553 22539
" />
<path d="M32553 22539
L33080 22539
" />
<path d="M33080 22822
L32553 22822
" />
<path d="M32553 23090
L33080 23090
" />
<path d="M32553 22822
L32553 23090
" />
<path d="M34340 23090
L34868 23090
" />
<path d="M34868 22822
L34340 22822
" />
<path d="M34868 23090
L34868 22822
" />
<path d="M34340 22539
L34868 22539
" />
<path d="M34868 22271
L34340 22271
" />
<path d="M34868 22539
L34868 22271
" />
<path d="M40561 23816
L41820 23816
" />
<path d="M40561 24919
L41820 24919
" />
<path d="M40561 23816
L40561 24919
" />
<path d="M41820 23816
L41820 24919
" />
<path d="M40561 23954
L40033 23954
" />
<path d="M40033 23954
L40033 24222
" />
<path d="M40033 24222
L40561 24222
" />
<path d="M40561 24505
L40033 24505
" />
<path d="M40033 24773
L40561 24773
" />
<path d="M40033 24505
L40033 24773
" />
<path d="M41820 24773
L42348 24773
" />
<path d="M42348 24505
L41820 24505
" />
<path d="M42348 24773
L42348 24505
" />
<path d="M41820 24222
L42348 24222
" />
<path d="M42348 23954
L41820 23954
" />
<path d="M42348 24222
L42348 23954
" />
<path d="M3159 31297
L4419 31297
" />
<path d="M3159 32399
L4419 32399
" />
<path d="M3159 31297
L3159 32399
" />
<path d="M4419 31297
L4419 32399
" />
<path d="M3159 31435
L2631 31435
" />
<path d="M2631 31435
L2631 31702
" />
<path d="M2631 31702
L3159 31702
" />
<path d="M3159 31986
L2631 31986
" />
<path d="M2631 32253
L3159 32253
" />
<path d="M2631 31986
L2631 32253
" />
<path d="M4419 32253
L4946 32253
" />
<path d="M4946 31986
L4419 31986
" />
<path d="M4946 32253
L4946 31986
" />
<path d="M4419 31702
L4946 31702
" />
<path d="M4946 31435
L4419 31435
" />
<path d="M4946 31702
L4946 31435
" />
<path d="M10639 31297
L11899 31297
" />
<path d="M10639 32399
L11899 32399
" />
<path d="M10639 31297
L10639 32399
" />
<path d="M11899 31297
L11899 32399
" />
<path d="M10639 31435
L10112 31435
" />
<path d="M10112 31435
L10112 31702
" />
<path d="M10112 31702
L10639 31702
" />
<path d="M10639 31986
L10112 31986
" />
<path d="M10112 32253
L10639 32253
" />
<path d="M10112 31986
L10112 32253
" />
<path d="M11899 32253
L12427 32253
" />
<path d="M12427 31986
L11899 31986
" />
<path d="M12427 32253
L12427 31986
" />
<path d="M11899 31702
L12427 31702
" />
<path d="M12427 31435
L11899 31435
" />
<path d="M12427 31702
L12427 31435
" />
<path d="M18120 28866
L19379 28866
" />
<path d="M18120 29968
L19379 29968
" />
<path d="M18120 28866
L18120 29968
" />
<path d="M19379 28866
L19379 29968
" />
<path d="M18120 29003
L17592 29003
" />
<path d="M17592 29003
L17592 29271
" />
<path d="M17592 29271
L18120 29271
" />
<path d="M18120 29555
L17592 29555
" />
<path d="M17592 29822
L18120 29822
" />
<path d="M17592 29555
L17592 29822
" />
<path d="M19379 29822
L19907 29822
" />
<path d="M19907 29555
L19379 29555
" />
<path d="M19907 29822
L19907 29555
" />
<path d="M19379 29271
L19907 29271
" />
<path d="M19907 29003
L19379 29003
" />
<path d="M19907 29271
L19907 29003
" />
<path d="M25600 28118
L26860 28118
" />
<path d="M25600 29220
L26860 29220
" />
<path d="M25600 28118
L25600 29220
" />
<path d="M26860 28118
L26860 29220
" />
<path d="M25600 28255
L25072 28255
" />
<path d="M25072 28255
L25072 28523
" />
<path d="M25072 28523
L25600 28523
" />
<path d="M25600 28807
L25072 28807
" />
<path d="M25072 29074
L25600 29074
" />
<path d="M25072 28807
L25072 29074
" />
<path d="M26860 29074
L27387 29074
" />
<path d="M27387 28807
L26860 28807
" />
<path d="M27387 29074
L27387 28807
" />
<path d="M26860 28523
L27387 28523
" />
<path d="M27387 28255
L26860 28255
" />
<path d="M27387 28523
L27387 28255
" />
<path d="M33080 29614
L34340 29614
" />
<path d="M33080 30716
L34340 30716
" />
<path d="M33080 29614
L33080 30716
" />
<path d="M34340 29614
L34340 30716
" />
<path d="M33080 29751
L32553 29751
" />
<path d="M32553 29751
L32553 30019
" />
<path d="M32553 30019
L33080 30019
" />
<path d="M33080 30303
L32553 30303
" />
<path d="M32553 30570
L33080 30570
" />
<path d="M32553 30303
L32553 30570
" />
<path d="M34340 30570
L34868 30570
" />
<path d="M34868 30303
L34340 30303
" />
<path d="M34868 30570
L34868 30303
" />
<path d="M34340 30019
L34868 30019
" />
<path d="M34868 29751
L34340 29751
" />
<path d="M34868 30019
L34868 29751
" />
<path d="M40561 31297
L41820 31297
" />
<path d="M40561 32399
L41820 32399
" />
<path d="M40561 31297
L40561 32399
" />
<path d="M41820 31297
L41820 32399
" />
<path d="M40561 31435
L40033 31435
" />
<path d="M40033 31435
L40033 31702
" />
<path d="M40033 31702
L40561 31702
" />
<path d="M40561 31986
L40033 31986
" />
<path d="M40033 32253
L40561 32253
" />
<path d="M40033 31986
L40033 32253
" />
<path d="M41820 32253
L42348 32253
" />
<path d="M42348 31986
L41820 31986
" />
<path d="M42348 32253
L42348 31986
" />
<path d="M41820 31702
L42348 31702
" />
<path d="M42348 31435
L41820 31435
" />
<path d="M42348 31702
L42348 31435
" />
<path d="M25743 38675
L26998 38784
" />
<path d="M25647 39773
L26902 39883
" />
<path d="M25743 38675
L25647 39773
" />
<path d="M26998 38784
L26902 39883
" />
<path d="M25731 38812
L25205 38766
" />
<path d="M25205 38766
L25182 39033
" />
<path d="M25182 39033
L25708 39079
" />
<path d="M25683 39361
L25157 39315
" />
<path d="M25134 39582
L25659 39628
" />
<path d="M25157 39315
L25134 39582
" />
<path d="M26915 39738
L27440 39783
" />
<path d="M27463 39517
L26938 39471
" />
<path d="M27440 39783
L27463 39517
" />
<path d="M26963 39188
L27488 39234
" />
<path d="M27511 38968
L26986 38922
" />
<path d="M27488 39234
L27511 38968
" />
<path d="M33370 40063
L34611 40282
" />
<path d="M33179 41149
L34419 41367
" />
<path d="M33370 40063
L33179 41149
" />
<path d="M34611 40282
L34419 41367
" />
<path d="M33346 40199
L32827 40107
" />
<path d="M32827 40107
L32780 40371
" />
<path d="M32780 40371
L33300 40462
" />
<path d="M33250 40742
L32731 40650
" />
<path d="M32684 40914
L33204 41005
" />
<path d="M32731 40650
L32684 40914
" />
<path d="M34445 41224
L34964 41316
" />
<path d="M35011 41052
L34491 40960
" />
<path d="M34964 41316
L35011 41052
" />
<path d="M34540 40681
L35060 40773
" />
<path d="M35106 40509
L34587 40418
" />
<path d="M35060 40773
L35106 40509
" />
<path d="M41000 41604
L42217 41930
" />
<path d="M40715 42669
L41931 42995
" />
<path d="M41000 41604
L40715 42669
" />
<path d="M42217 41930
L41931 42995
" />
<path d="M40964 41737
L40455 41601
" />
<path d="M40455 41601
L40385 41859
" />
<path d="M40385 41859
L40895 41996
" />
<path d="M40822 42270
L40312 42133
" />
<path d="M40243 42392
L40752 42528
" />
<path d="M40312 42133
L40243 42392
" />
<path d="M41969 42854
L42479 42991
" />
<path d="M42548 42732
L42038 42596
" />
<path d="M42479 42991
L42548 42732
" />
<path d="M42112 42322
L42621 42458
" />
<path d="M42691 42200
L42181 42063
" />
<path d="M42621 42458
L42691 42200
" />
<g >
</g>
<g >
</g>
<g >
</g>
<g >
</g>
<g >
</g>
<g >
</g>
<g >
</g>
<g >
</g>
<g >
</g>
<g >
</g>
<g >
</g>
<g >
</g>
<g >
</g>
<g >
</g>
<g >
</g>
<g >
</g>
<g >
</g>
<g >
</g>
<g >
</g>
<g >
</g>
<g >
</g>
<g >
</g>
<g >
</g>
<g >
</g>
<g >
</g>
<g >
</g>
<g >
</g>
<g >
</g>
<g >
</g>
<g >
</g>
<g >
</g>
<g >
</g>
<g >
</g>
<g >
</g>
<g >
</g>
<g >
</g>
<g >
</g>
<g >
</g>
<g >
</g>
<g >
</g>
<g >
</g>
<g >
</g>
<g >
</g>
<g >
</g>
<g >
</g>
<g >
</g>
<g >
</g>
<g >
</g>
<g >
</g>
<g >
</g>
<g >
</g>
<g >
</g>
<g >
</g>
<g >
</g>
<g >
</g>
<g >
</g>
<g >
</g>
<g >
</g>
<g >
</g>
<g >
</g>
<g >
</g>
<g >
</g>
<g >
</g>
<g >
</g>
<g >
</g>
<g >
</g>
<g >
</g>
<g >
</g>
<g >
</g>
<g >
</g>
<g >
</g>
<g >
</g>
<g >
</g>
<g >
</g>
<g >
</g>
<g >
</g>
<g >
</g>
<g >
</g>
<g >
</g>
<g >
</g>
<g >
</g>
<g >
</g>
<g >
</g>
<g >
</g>
<g >
</g>
<g >
</g>
<g >
</g>
<g >
</g>
<g >
</g>
<g >
</g>
<g >
</g>
<g >
</g>
<g >
</g>
<g >
</g>
<g >
</g>
<g >
</g>
<g >
</g>
</g>
<g style="fill:#000000; fill-opacity:0.0; 
stroke:#000000; stroke-width:47.2441; stroke-opacity:1; 
stroke-linecap:round; stroke-linejoin:round;">
</g>
<g style="fill:#000000; fill-opacity:0.0; 
stroke:#000000; stroke-width:59.0551; stroke-opacity:1; 
stroke-linecap:round; stroke-linejoin:round;">
<path d="M54458.7 44399.6 A634.823 634.823 0.0 0 0 55133.4 43988.2" />
<path d="M29950.8 41387.8 A196.85 196.85 0.0 0 0 29753.9 41190.9" />
<path d="M29803.1 42391.7 A196.85 196.85 0.0 0 0 30000 42588.6" />
<path d="M37126 44025.6 A196.85 196.85 0.0 0 0 36929.1 43828.7" />
<path d="M37007 44438
L37125 44025
" />
<path d="M37007.9 44439 A196.85 196.85 0.0 0 0 37204.7 44635.8" />
<path d="M29950 41387
L29803 42391
" />
<path d="M45777 42037
L54458 44399
" />
<path d="M53651 10246
L56151 10246
" />
<path d="M44950 3612
L44950 9832
" />
<path d="M37470 1899
L37470 2824
" />
<path d="M29990 423
L29990 1112
" />
<path d="M29990.2 423.229 A393.701 393.701 0.0 0 0 29596.5 29.528" />
</g>
<g style="fill:#000000; fill-opacity:0.0; 
stroke:#000000; stroke-width:39.3701; stroke-opacity:1; 
stroke-linecap:round; stroke-linejoin:round;">
<path d="M14616 3277
L423 3277
" />
<path d="M29 3671
L49 33061
" />
<path d="M56505 39242
L56525 36564
" />
<path d="M56525 36564
L56545 10639
" />
<path d="M44557 3218
L37864 3218
" />
<path d="M37076 1505
L30383 1505
" />
<path d="M29596 29
L22844 29
" />
</g>
<g style="fill:#000000; fill-opacity:0.0; 
stroke:#000000; stroke-width:59.0551; stroke-opacity:1; 
stroke-linecap:round; stroke-linejoin:round;">
<path d="M44341 46071
L45445 42080
" />
<path d="M45777.6 42037.4 A411.036 411.036 0.0 0 0 45445.1 42080.4" />
<path d="M43710.6 46387.8 A634.823 634.823 0.0 0 0 44341.5 46071.2" />
<path d="M51289.4 18966.5 A1181.1 1181.1 0.0 0 0 52470.5 17785.4" />
<path d="M48946.9 17785.4 A1181.1 1181.1 0.0 0 0 50128 18966.5" />
<path d="M51289 18966
L50127 18966
" />
<path d="M52470 11427
L52470 17785
" />
<path d="M48946 11407
L48946 17785
" />
<path d="M53651.6 10246.1 A1181.1 1181.1 0.0 0 0 52470.5 11427.2" />
<path d="M48946.9 11407.5 A1181.1 1181.1 0.0 0 0 47746.1 10226.5" />
<path d="M22549.2 40196.9 A393.701 393.701 0.0 0 0 22942.9 40590.6" />
<path d="M22549.2 31289.4 A393.701 393.701 0.0 0 0 22155.5 30895.7" />
<path d="M15442.9 30895.7 A393.701 393.701 0.0 0 0 15049.2 31289.4" />
<path d="M14655.5 33454.7 A393.701 393.701 0.0 0 0 15049.2 33061" />
<path d="M15049 31289
L15049 33061
" />
<path d="M22155 30895
L15442 30895
" />
<path d="M22549 40196
L22549 31289
" />
<path d="M37204 44635
L43710 46387
" />
<path d="M30000 42588
L36929 43828
" />
<path d="M22942 40590
L29753 41190
" />
<path d="M442 33454
L14655 33454
" />
<path d="M29990.2 1112.21 A393.701 393.701 0.0 0 0 30383.9 1505.91" />
<path d="M22076.8 777.56 A354.933 354.933 0.0 0 0 22451.9 440.952" />
<path d="M49.213 33061 A393.701 393.701 0.0 0 0 442.914 33454.7" />
<path d="M44950.8 9832.68 A393.701 393.701 0.0 0 0 45344.5 10226.4" />
<path d="M45344 10226
L47746 10226
" />
<path d="M37470.5 2824.8 A393.701 393.701 0.0 0 0 37864.2 3218.5" />
<path d="M15403 777
L22076 777
" />
<path d="M15009 2883
L15009 1171
" />
<path d="M423.229 3277.56 A393.701 393.701 0.0 0 0 29.528 3671.26" />
<path d="M56545.3 10639.8 A393.701 393.701 0.0 0 0 56151.6 10246.1" />
<path d="M44950.8 3612.21 A393.701 393.701 0.0 0 0 44557.1 3218.5" />
<path d="M37470.5 1899.61 A393.701 393.701 0.0 0 0 37076.8 1505.91" />
<path d="M22844.5 29.528 A393.701 393.701 0.0 0 0 22451.2 440.986" />
<path d="M15403.5 777.559 A393.701 393.701 0.0 0 0 15009.8 1171.26" />
<path d="M14616.1 3277.56 A393.701 393.701 0.0 0 0 15009.8 2883.86" />
</g>
<g style="fill:#000000; fill-opacity:0.0; 
stroke:#000000; stroke-width:39.3701; stroke-opacity:1; 
stroke-linecap:round; stroke-linejoin:round;">
<path d="M55133 43988
L56505 39242
" />
<g >
</g>
<g >
</g>
<g >
</g>
<g >
</g>
<g >
</g>
<g >
</g>
<g >
</g>
<g >
</g>
<g >
</g>
<g >
</g>
<g >
</g>
<g >
</g>
<g >
</g>
<g >
</g>
<g >
</g>
<g >
</g>
<g >
</g>
<g >
</g>
<g >
</g>
<g >
</g>
<g >
</g>
<g >
</g>
<g >
</g>
<g >
</g>
<g >
</g>
<g >
</g>
<g >
</g>
<g >
</g>
<g >
</g>
<g >
</g>
<g >
</g>
<g >
</g>
<g >
</g>
<g >
</g>
<g >
</g>
<g >
</g>
<g >
</g>
<g >
</g>
<g >
</g>
<g >
</g>
<g >
</g>
<g >
</g>
<g >
</g>
<g >
</g>
<g >
</g>
<g >
</g>
<g >
</g>
<g >
</g>
<g >
</g>
<g >
</g>
<g >
</g>
<g >
</g>
<g >
</g>
<g >
</g>
<g >
</g>
<g >
</g>
<g >
</g>
<g >
</g>
<g >
</g>
<g >
</g>
<g >
</g>
<g >
</g>
<g >
</g>
<g >
</g>
<g >
</g>
<g >
</g>
<g >
</g>
<g >
</g>
<g >
</g>
<g >
</g>
<g >
</g>
<g >
</g>
<g >
</g>
<g >
</g>
<g >
</g>
<g >
</g>
<g >
</g>
<g >
</g>
<g >
</g>
<g >
</g>
<g >
</g>
<g >
</g>
<g >
</g>
<g >
</g>
<g >
</g>
<g >
</g>
<g >
</g>
<g >
</g>
<g >
</g>
<g >
</g>
<g >
</g>
<g >
</g>
<g >
</g>
<g >
</g>
<g >
</g>
<g >
</g>
<g >
</g>
</g> 
</svg>
