<?xml version="1.0" standalone="no"?>
 <!DOCTYPE svg PUBLIC "-//W3C//DTD SVG 1.1//EN" 
 "http://www.w3.org/Graphics/SVG/1.1/DTD/svg11.dtd"> 
<svg
  xmlns:svg="http://www.w3.org/2000/svg"
  xmlns="http://www.w3.org/2000/svg"
  xmlns:xlink="http://www.w3.org/1999/xlink"
  version="1.1"
  width="14.368780cm" height="11.790680cm" viewBox="0 0 56570 46420">
<title>SVG Picture created as elanor-Cmts_User.svg date 2021/09/14 16:07:54 </title>
  <desc>Picture generated by PCBNEW </desc>
<g style="fill:#000000; fill-opacity:1;stroke:#000000; stroke-opacity:1;
stroke-linecap:round; stroke-linejoin:round;"
 transform="translate(0 0) scale(1 1)">
</g>
<g style="fill:#000000; fill-opacity:0.0; 
stroke:#000000; stroke-width:-0.000393701; stroke-opacity:1; 
stroke-linecap:round; stroke-linejoin:round;">
</g>
<g style="fill:#000000; fill-opacity:0.0; 
stroke:#000000; stroke-width:59.0551; stroke-opacity:1; 
stroke-linecap:round; stroke-linejoin:round;">
<circle cx="53923.2" cy="32124" r="866.142" /> 
<circle cx="47495.3" cy="32124" r="866.142" /> 
<circle cx="7529.53" cy="11061" r="866.142" /> 
<circle cx="22490.2" cy="15736.2" r="866.142" /> 
<circle cx="30171.7" cy="32661.8" r="866.142" /> 
<circle cx="7529.53" cy="26021.7" r="866.142" /> 
<circle cx="37450.8" cy="10219.5" r="866.142" /> 
<g >
</g>
<g >
</g>
<g >
</g>
<g >
</g>
<g >
</g>
<g >
</g>
<g >
</g>
<g >
</g>
<g >
</g>
<g >
</g>
<g >
</g>
<g >
</g>
<g >
</g>
<g >
</g>
<g >
</g>
<g >
</g>
<g >
</g>
<g >
</g>
<g >
</g>
<g >
</g>
<g >
</g>
<g >
</g>
<g >
</g>
<g >
</g>
<g >
</g>
<g >
</g>
<g >
</g>
<g >
</g>
<g >
</g>
<g >
</g>
<g >
</g>
<g >
</g>
<g >
</g>
<g >
</g>
<g >
</g>
<g >
</g>
<g >
</g>
<g >
</g>
<g >
</g>
<g >
</g>
<g >
</g>
<g >
</g>
<g >
</g>
<g >
</g>
<g >
</g>
<g >
</g>
<g >
</g>
<g >
</g>
<g >
</g>
<g >
</g>
<g >
</g>
<g >
</g>
<g >
</g>
<g >
</g>
<g >
</g>
<g >
</g>
<g >
</g>
<g >
</g>
<g >
</g>
<g >
</g>
<g >
</g>
<g >
</g>
<g >
</g>
<g >
</g>
<g >
</g>
<g >
</g>
<g >
</g>
<g >
</g>
<g >
</g>
<g >
</g>
<g >
</g>
<g >
</g>
<g >
</g>
<g >
</g>
<g >
</g>
<g >
</g>
<g >
</g>
<g >
</g>
<g >
</g>
<g >
</g>
<g >
</g>
<g >
</g>
<g >
</g>
<g >
</g>
<g >
</g>
<g >
</g>
<g >
</g>
<g >
</g>
<g >
</g>
<g >
</g>
<g >
</g>
<g >
</g>
<g >
</g>
<g >
</g>
<g >
</g>
<g >
</g>
<g >
</g>
</g>
<g style="fill:#000000; fill-opacity:0.0; 
stroke:#000000; stroke-width:59.0551; stroke-opacity:1; 
stroke-linecap:round; stroke-linejoin:round;">
<path d="M54458.7 44399.6 A634.823 634.823 0.0 0 0 55133.4 43988.2" />
<path d="M29950.8 41387.8 A196.85 196.85 0.0 0 0 29753.9 41190.9" />
<path d="M29803.1 42391.7 A196.85 196.85 0.0 0 0 30000 42588.6" />
<path d="M37126 44025.6 A196.85 196.85 0.0 0 0 36929.1 43828.7" />
<path d="M37007 44438
L37125 44025
" />
<path d="M37007.9 44439 A196.85 196.85 0.0 0 0 37204.7 44635.8" />
<path d="M29950 41387
L29803 42391
" />
<path d="M45777 42037
L54458 44399
" />
<path d="M53651 10246
L56151 10246
" />
<path d="M44950 3612
L44950 9832
" />
<path d="M37470 1899
L37470 2824
" />
<path d="M29990 423
L29990 1112
" />
<path d="M29990.2 423.229 A393.701 393.701 0.0 0 0 29596.5 29.528" />
</g>
<g style="fill:#000000; fill-opacity:0.0; 
stroke:#000000; stroke-width:39.3701; stroke-opacity:1; 
stroke-linecap:round; stroke-linejoin:round;">
<path d="M14616 3277
L423 3277
" />
<path d="M29 3671
L49 33061
" />
<path d="M56505 39242
L56525 36564
" />
<path d="M56525 36564
L56545 10639
" />
<path d="M44557 3218
L37864 3218
" />
<path d="M37076 1505
L30383 1505
" />
<path d="M29596 29
L22844 29
" />
</g>
<g style="fill:#000000; fill-opacity:0.0; 
stroke:#000000; stroke-width:59.0551; stroke-opacity:1; 
stroke-linecap:round; stroke-linejoin:round;">
<path d="M44341 46071
L45445 42080
" />
<path d="M45777.6 42037.4 A411.036 411.036 0.0 0 0 45445.1 42080.4" />
<path d="M43710.6 46387.8 A634.823 634.823 0.0 0 0 44341.5 46071.2" />
<path d="M51289.4 18966.5 A1181.1 1181.1 0.0 0 0 52470.5 17785.4" />
<path d="M48946.9 17785.4 A1181.1 1181.1 0.0 0 0 50128 18966.5" />
<path d="M51289 18966
L50127 18966
" />
<path d="M52470 11427
L52470 17785
" />
<path d="M48946 11407
L48946 17785
" />
<path d="M53651.6 10246.1 A1181.1 1181.1 0.0 0 0 52470.5 11427.2" />
<path d="M48946.9 11407.5 A1181.1 1181.1 0.0 0 0 47746.1 10226.5" />
<path d="M22549.2 40196.9 A393.701 393.701 0.0 0 0 22942.9 40590.6" />
<path d="M22549.2 31289.4 A393.701 393.701 0.0 0 0 22155.5 30895.7" />
<path d="M15442.9 30895.7 A393.701 393.701 0.0 0 0 15049.2 31289.4" />
<path d="M14655.5 33454.7 A393.701 393.701 0.0 0 0 15049.2 33061" />
<path d="M15049 31289
L15049 33061
" />
<path d="M22155 30895
L15442 30895
" />
<path d="M22549 40196
L22549 31289
" />
<path d="M37204 44635
L43710 46387
" />
<path d="M30000 42588
L36929 43828
" />
<path d="M22942 40590
L29753 41190
" />
<path d="M442 33454
L14655 33454
" />
<path d="M29990.2 1112.21 A393.701 393.701 0.0 0 0 30383.9 1505.91" />
<path d="M22076.8 777.56 A354.933 354.933 0.0 0 0 22451.9 440.952" />
<path d="M49.213 33061 A393.701 393.701 0.0 0 0 442.914 33454.7" />
<path d="M44950.8 9832.68 A393.701 393.701 0.0 0 0 45344.5 10226.4" />
<path d="M45344 10226
L47746 10226
" />
<path d="M37470.5 2824.8 A393.701 393.701 0.0 0 0 37864.2 3218.5" />
<path d="M15403 777
L22076 777
" />
<path d="M15009 2883
L15009 1171
" />
<path d="M423.229 3277.56 A393.701 393.701 0.0 0 0 29.528 3671.26" />
<path d="M56545.3 10639.8 A393.701 393.701 0.0 0 0 56151.6 10246.1" />
<path d="M44950.8 3612.21 A393.701 393.701 0.0 0 0 44557.1 3218.5" />
<path d="M37470.5 1899.61 A393.701 393.701 0.0 0 0 37076.8 1505.91" />
<path d="M22844.5 29.528 A393.701 393.701 0.0 0 0 22451.2 440.986" />
<path d="M15403.5 777.559 A393.701 393.701 0.0 0 0 15009.8 1171.26" />
<path d="M14616.1 3277.56 A393.701 393.701 0.0 0 0 15009.8 2883.86" />
</g>
<g style="fill:#000000; fill-opacity:0.0; 
stroke:#000000; stroke-width:39.3701; stroke-opacity:1; 
stroke-linecap:round; stroke-linejoin:round;">
<path d="M55133 43988
L56505 39242
" />
<g >
</g>
<g >
</g>
<g >
</g>
<g >
</g>
<g >
</g>
<g >
</g>
<g >
</g>
<g >
</g>
<g >
</g>
<g >
</g>
<g >
</g>
<g >
</g>
<g >
</g>
<g >
</g>
<g >
</g>
<g >
</g>
<g >
</g>
<g >
</g>
<g >
</g>
<g >
</g>
<g >
</g>
<g >
</g>
<g >
</g>
<g >
</g>
<g >
</g>
<g >
</g>
<g >
</g>
<g >
</g>
<g >
</g>
<g >
</g>
<g >
</g>
<g >
</g>
<g >
</g>
<g >
</g>
<g >
</g>
<g >
</g>
<g >
</g>
<g >
</g>
<g >
</g>
<g >
</g>
<g >
</g>
<g >
</g>
<g >
</g>
<g >
</g>
<g >
</g>
<g >
</g>
<g >
</g>
<g >
</g>
<g >
</g>
<g >
</g>
<g >
</g>
<g >
</g>
<g >
</g>
<g >
</g>
<g >
</g>
<g >
</g>
<g >
</g>
<g >
</g>
<g >
</g>
<g >
</g>
<g >
</g>
<g >
</g>
<g >
</g>
<g >
</g>
<g >
</g>
<g >
</g>
<g >
</g>
<g >
</g>
<g >
</g>
<g >
</g>
<g >
</g>
<g >
</g>
<g >
</g>
<g >
</g>
<g >
</g>
<g >
</g>
<g >
</g>
<g >
</g>
<g >
</g>
<g >
</g>
<g >
</g>
<g >
</g>
<g >
</g>
<g >
</g>
<g >
</g>
<g >
</g>
<g >
</g>
<g >
</g>
<g >
</g>
<g >
</g>
<g >
</g>
<g >
</g>
<g >
</g>
<g >
</g>
<g >
</g>
<g >
</g>
<g >
</g>
</g> 
</svg>
