<?xml version="1.0" standalone="no"?>
 <!DOCTYPE svg PUBLIC "-//W3C//DTD SVG 1.1//EN" 
 "http://www.w3.org/Graphics/SVG/1.1/DTD/svg11.dtd"> 
<svg xmlns="http://www.w3.org/2000/svg" version="1.1" 
    width="29.7002cm" height="21.0007cm" viewBox="0 0 116930 82680 ">
<title>SVG Picture created as mini-F_Fab.svg date 2020/05/23 11:48:22 </title>
  <desc>Picture generated by PCBNEW </desc>
<g style="fill:#000000; fill-opacity:1;stroke:#000000; stroke-opacity:1;
stroke-linecap:round; stroke-linejoin:round; "
 transform="translate(0 0) scale(1 1)">
</g>
<g style="fill:#000000; fill-opacity:0.0; 
stroke:#000000; stroke-width:-0.000393701; stroke-opacity:1; 
stroke-linecap:round; stroke-linejoin:round;">
</g>
<g style="fill:#000000; fill-opacity:0.0; 
stroke:#000000; stroke-width:39.3701; stroke-opacity:1; 
stroke-linecap:round; stroke-linejoin:round;">
</g>
<g style="fill:#000000; fill-opacity:0.0; 
stroke:#000000; stroke-width:59.0551; stroke-opacity:1; 
stroke-linecap:round; stroke-linejoin:round;">
<rect x="69685.9" y="65357.2" width="42519.7" height="12598.4" rx="0" />
</g>
<g style="fill:#000000; fill-opacity:0.0; 
stroke:#000000; stroke-width:39.3701; stroke-opacity:1; 
stroke-linecap:round; stroke-linejoin:round;">
</g>
<g style="fill:#000000; fill-opacity:0.0; 
stroke:#000000; stroke-width:59.0551; stroke-opacity:1; 
stroke-linecap:round; stroke-linejoin:round;">
<rect x="3937.01" y="3937.01" width="109056" height="74806" rx="0" />
</g>
<g style="fill:#000000; fill-opacity:0.0; 
stroke:#000000; stroke-width:39.3701; stroke-opacity:1; 
stroke-linecap:round; stroke-linejoin:round;">
</g>
<g style="fill:#000000; fill-opacity:0.0; 
stroke:#000000; stroke-width:59.0551; stroke-opacity:1; 
stroke-linecap:round; stroke-linejoin:round;">
<rect x="4724.41" y="4724.41" width="107481" height="73231.2" rx="0" />
</g>
<g style="fill:#000000; fill-opacity:0.0; 
stroke:#000000; stroke-width:39.3701; stroke-opacity:1; 
stroke-linecap:round; stroke-linejoin:round;">
</g>
<g style="fill:#000000; fill-opacity:0.0; 
stroke:#000000; stroke-width:59.0551; stroke-opacity:1; 
stroke-linecap:round; stroke-linejoin:round;">
<path d="M23622 4724
L23622 3937
" />
</g>
<g style="fill:#000000; fill-opacity:0.0; 
stroke:#000000; stroke-width:39.3701; stroke-opacity:1; 
stroke-linecap:round; stroke-linejoin:round;">
</g>
<g style="fill:#000000; fill-opacity:0.0; 
stroke:#000000; stroke-width:59.0551; stroke-opacity:1; 
stroke-linecap:round; stroke-linejoin:round;">
<path d="M43307 4724
L43307 3937
" />
</g>
<g style="fill:#000000; fill-opacity:0.0; 
stroke:#000000; stroke-width:39.3701; stroke-opacity:1; 
stroke-linecap:round; stroke-linejoin:round;">
</g>
<g style="fill:#000000; fill-opacity:0.0; 
stroke:#000000; stroke-width:59.0551; stroke-opacity:1; 
stroke-linecap:round; stroke-linejoin:round;">
<path d="M62992 4724
L62992 3937
" />
</g>
<g style="fill:#000000; fill-opacity:0.0; 
stroke:#000000; stroke-width:39.3701; stroke-opacity:1; 
stroke-linecap:round; stroke-linejoin:round;">
</g>
<g style="fill:#000000; fill-opacity:0.0; 
stroke:#000000; stroke-width:59.0551; stroke-opacity:1; 
stroke-linecap:round; stroke-linejoin:round;">
<path d="M82677 4724
L82677 3937
" />
</g>
<g style="fill:#000000; fill-opacity:0.0; 
stroke:#000000; stroke-width:39.3701; stroke-opacity:1; 
stroke-linecap:round; stroke-linejoin:round;">
</g>
<g style="fill:#000000; fill-opacity:0.0; 
stroke:#000000; stroke-width:59.0551; stroke-opacity:1; 
stroke-linecap:round; stroke-linejoin:round;">
<path d="M102362 4724
L102362 3937
" />
</g>
<g style="fill:#000000; fill-opacity:0.0; 
stroke:#000000; stroke-width:39.3701; stroke-opacity:1; 
stroke-linecap:round; stroke-linejoin:round;">
</g>
<g style="fill:#000000; fill-opacity:0.0; 
stroke:#000000; stroke-width:59.0551; stroke-opacity:1; 
stroke-linecap:round; stroke-linejoin:round;">
<text x="13779.5" y="4586.61"
textLength="525.825" font-size="682.415" lengthAdjust="spacingAndGlyphs"
text-anchor="start" opacity="0">1</text>
<path d="M14199 4562
L13906 4562
" />
<path d="M14052 4562
L14052 4050
L14004 4123
L13955 4172
L13906 4196
" />
</g>
<g style="fill:#000000; fill-opacity:0.0; 
stroke:#000000; stroke-width:39.3701; stroke-opacity:1; 
stroke-linecap:round; stroke-linejoin:round;">
</g>
<g style="fill:#000000; fill-opacity:0.0; 
stroke:#000000; stroke-width:59.0551; stroke-opacity:1; 
stroke-linecap:round; stroke-linejoin:round;">
<text x="33464.6" y="4586.61"
textLength="546.494" font-size="682.415" lengthAdjust="spacingAndGlyphs"
text-anchor="start" opacity="0">2</text>
<path d="M33591 4099
L33615 4074
L33664 4050
L33786 4050
L33835 4074
L33859 4099
L33884 4147
L33884 4196
L33859 4269
L33567 4562
L33884 4562
" />
</g>
<g style="fill:#000000; fill-opacity:0.0; 
stroke:#000000; stroke-width:39.3701; stroke-opacity:1; 
stroke-linecap:round; stroke-linejoin:round;">
</g>
<g style="fill:#000000; fill-opacity:0.0; 
stroke:#000000; stroke-width:59.0551; stroke-opacity:1; 
stroke-linecap:round; stroke-linejoin:round;">
<text x="53149.6" y="4586.61"
textLength="546.494" font-size="682.415" lengthAdjust="spacingAndGlyphs"
text-anchor="start" opacity="0">3</text>
<path d="M53252 4050
L53569 4050
L53398 4245
L53471 4245
L53520 4269
L53544 4294
L53569 4342
L53569 4464
L53544 4513
L53520 4537
L53471 4562
L53325 4562
L53276 4537
L53252 4513
" />
</g>
<g style="fill:#000000; fill-opacity:0.0; 
stroke:#000000; stroke-width:39.3701; stroke-opacity:1; 
stroke-linecap:round; stroke-linejoin:round;">
</g>
<g style="fill:#000000; fill-opacity:0.0; 
stroke:#000000; stroke-width:59.0551; stroke-opacity:1; 
stroke-linecap:round; stroke-linejoin:round;">
<text x="72834.6" y="4586.61"
textLength="546.494" font-size="682.415" lengthAdjust="spacingAndGlyphs"
text-anchor="start" opacity="0">4</text>
<path d="M73205 4221
L73205 4562
" />
<path d="M73083 4026
L72961 4391
L73278 4391
" />
</g>
<g style="fill:#000000; fill-opacity:0.0; 
stroke:#000000; stroke-width:39.3701; stroke-opacity:1; 
stroke-linecap:round; stroke-linejoin:round;">
</g>
<g style="fill:#000000; fill-opacity:0.0; 
stroke:#000000; stroke-width:59.0551; stroke-opacity:1; 
stroke-linecap:round; stroke-linejoin:round;">
<text x="92519.7" y="4586.61"
textLength="546.494" font-size="682.415" lengthAdjust="spacingAndGlyphs"
text-anchor="start" opacity="0">5</text>
<path d="M92914 4050
L92671 4050
L92646 4294
L92671 4269
L92719 4245
L92841 4245
L92890 4269
L92914 4294
L92939 4342
L92939 4464
L92914 4513
L92890 4537
L92841 4562
L92719 4562
L92671 4537
L92646 4513
" />
</g>
<g style="fill:#000000; fill-opacity:0.0; 
stroke:#000000; stroke-width:39.3701; stroke-opacity:1; 
stroke-linecap:round; stroke-linejoin:round;">
</g>
<g style="fill:#000000; fill-opacity:0.0; 
stroke:#000000; stroke-width:59.0551; stroke-opacity:1; 
stroke-linecap:round; stroke-linejoin:round;">
<text x="112205" y="4586.61"
textLength="546.494" font-size="682.415" lengthAdjust="spacingAndGlyphs"
text-anchor="start" opacity="0">6</text>
<path d="M112575 4050
L112477 4050
L112429 4074
L112404 4099
L112356 4172
L112331 4269
L112331 4464
L112356 4513
L112380 4537
L112429 4562
L112526 4562
L112575 4537
L112599 4513
L112624 4464
L112624 4342
L112599 4294
L112575 4269
L112526 4245
L112429 4245
L112380 4269
L112356 4294
L112331 4342
" />
</g>
<g style="fill:#000000; fill-opacity:0.0; 
stroke:#000000; stroke-width:39.3701; stroke-opacity:1; 
stroke-linecap:round; stroke-linejoin:round;">
</g>
<g style="fill:#000000; fill-opacity:0.0; 
stroke:#000000; stroke-width:59.0551; stroke-opacity:1; 
stroke-linecap:round; stroke-linejoin:round;">
<path d="M23622 77955
L23622 78742
" />
</g>
<g style="fill:#000000; fill-opacity:0.0; 
stroke:#000000; stroke-width:39.3701; stroke-opacity:1; 
stroke-linecap:round; stroke-linejoin:round;">
</g>
<g style="fill:#000000; fill-opacity:0.0; 
stroke:#000000; stroke-width:59.0551; stroke-opacity:1; 
stroke-linecap:round; stroke-linejoin:round;">
<path d="M43307 77955
L43307 78742
" />
</g>
<g style="fill:#000000; fill-opacity:0.0; 
stroke:#000000; stroke-width:39.3701; stroke-opacity:1; 
stroke-linecap:round; stroke-linejoin:round;">
</g>
<g style="fill:#000000; fill-opacity:0.0; 
stroke:#000000; stroke-width:59.0551; stroke-opacity:1; 
stroke-linecap:round; stroke-linejoin:round;">
<path d="M62992 77955
L62992 78742
" />
</g>
<g style="fill:#000000; fill-opacity:0.0; 
stroke:#000000; stroke-width:39.3701; stroke-opacity:1; 
stroke-linecap:round; stroke-linejoin:round;">
</g>
<g style="fill:#000000; fill-opacity:0.0; 
stroke:#000000; stroke-width:59.0551; stroke-opacity:1; 
stroke-linecap:round; stroke-linejoin:round;">
<path d="M82677 77955
L82677 78742
" />
</g>
<g style="fill:#000000; fill-opacity:0.0; 
stroke:#000000; stroke-width:39.3701; stroke-opacity:1; 
stroke-linecap:round; stroke-linejoin:round;">
</g>
<g style="fill:#000000; fill-opacity:0.0; 
stroke:#000000; stroke-width:59.0551; stroke-opacity:1; 
stroke-linecap:round; stroke-linejoin:round;">
<path d="M102362 77955
L102362 78742
" />
</g>
<g style="fill:#000000; fill-opacity:0.0; 
stroke:#000000; stroke-width:39.3701; stroke-opacity:1; 
stroke-linecap:round; stroke-linejoin:round;">
</g>
<g style="fill:#000000; fill-opacity:0.0; 
stroke:#000000; stroke-width:59.0551; stroke-opacity:1; 
stroke-linecap:round; stroke-linejoin:round;">
<text x="13779.5" y="78605.2"
textLength="546.494" font-size="682.415" lengthAdjust="spacingAndGlyphs"
text-anchor="start" opacity="0">1</text>
<path d="M14199 78580
L13906 78580
" />
<path d="M14052 78580
L14052 78069
L14004 78142
L13955 78190
L13906 78215
" />
</g>
<g style="fill:#000000; fill-opacity:0.0; 
stroke:#000000; stroke-width:39.3701; stroke-opacity:1; 
stroke-linecap:round; stroke-linejoin:round;">
</g>
<g style="fill:#000000; fill-opacity:0.0; 
stroke:#000000; stroke-width:59.0551; stroke-opacity:1; 
stroke-linecap:round; stroke-linejoin:round;">
<text x="33464.6" y="78605.2"
textLength="546.494" font-size="682.415" lengthAdjust="spacingAndGlyphs"
text-anchor="start" opacity="0">2</text>
<path d="M33591 78117
L33615 78093
L33664 78069
L33786 78069
L33835 78093
L33859 78117
L33884 78166
L33884 78215
L33859 78288
L33567 78580
L33884 78580
" />
</g>
<g style="fill:#000000; fill-opacity:0.0; 
stroke:#000000; stroke-width:39.3701; stroke-opacity:1; 
stroke-linecap:round; stroke-linejoin:round;">
</g>
<g style="fill:#000000; fill-opacity:0.0; 
stroke:#000000; stroke-width:59.0551; stroke-opacity:1; 
stroke-linecap:round; stroke-linejoin:round;">
<text x="53149.6" y="78605.2"
textLength="546.494" font-size="682.415" lengthAdjust="spacingAndGlyphs"
text-anchor="start" opacity="0">3</text>
<path d="M53252 78069
L53569 78069
L53398 78263
L53471 78263
L53520 78288
L53544 78312
L53569 78361
L53569 78483
L53544 78532
L53520 78556
L53471 78580
L53325 78580
L53276 78556
L53252 78532
" />
</g>
<g style="fill:#000000; fill-opacity:0.0; 
stroke:#000000; stroke-width:39.3701; stroke-opacity:1; 
stroke-linecap:round; stroke-linejoin:round;">
</g>
<g style="fill:#000000; fill-opacity:0.0; 
stroke:#000000; stroke-width:59.0551; stroke-opacity:1; 
stroke-linecap:round; stroke-linejoin:round;">
<text x="72834.6" y="78605.2"
textLength="546.494" font-size="682.415" lengthAdjust="spacingAndGlyphs"
text-anchor="start" opacity="0">4</text>
<path d="M73205 78239
L73205 78580
" />
<path d="M73083 78044
L72961 78410
L73278 78410
" />
</g>
<g style="fill:#000000; fill-opacity:0.0; 
stroke:#000000; stroke-width:39.3701; stroke-opacity:1; 
stroke-linecap:round; stroke-linejoin:round;">
</g>
<g style="fill:#000000; fill-opacity:0.0; 
stroke:#000000; stroke-width:59.0551; stroke-opacity:1; 
stroke-linecap:round; stroke-linejoin:round;">
<text x="92519.7" y="78605.2"
textLength="546.494" font-size="682.415" lengthAdjust="spacingAndGlyphs"
text-anchor="start" opacity="0">5</text>
<path d="M92914 78069
L92671 78069
L92646 78312
L92671 78288
L92719 78263
L92841 78263
L92890 78288
L92914 78312
L92939 78361
L92939 78483
L92914 78532
L92890 78556
L92841 78580
L92719 78580
L92671 78556
L92646 78532
" />
</g>
<g style="fill:#000000; fill-opacity:0.0; 
stroke:#000000; stroke-width:39.3701; stroke-opacity:1; 
stroke-linecap:round; stroke-linejoin:round;">
</g>
<g style="fill:#000000; fill-opacity:0.0; 
stroke:#000000; stroke-width:59.0551; stroke-opacity:1; 
stroke-linecap:round; stroke-linejoin:round;">
<text x="112205" y="78605.2"
textLength="546.494" font-size="682.415" lengthAdjust="spacingAndGlyphs"
text-anchor="start" opacity="0">6</text>
<path d="M112575 78069
L112477 78069
L112429 78093
L112404 78117
L112356 78190
L112331 78288
L112331 78483
L112356 78532
L112380 78556
L112429 78580
L112526 78580
L112575 78556
L112599 78532
L112624 78483
L112624 78361
L112599 78312
L112575 78288
L112526 78263
L112429 78263
L112380 78288
L112356 78312
L112331 78361
" />
</g>
<g style="fill:#000000; fill-opacity:0.0; 
stroke:#000000; stroke-width:39.3701; stroke-opacity:1; 
stroke-linecap:round; stroke-linejoin:round;">
</g>
<g style="fill:#000000; fill-opacity:0.0; 
stroke:#000000; stroke-width:59.0551; stroke-opacity:1; 
stroke-linecap:round; stroke-linejoin:round;">
<path d="M3937 23622
L4724 23622
" />
</g>
<g style="fill:#000000; fill-opacity:0.0; 
stroke:#000000; stroke-width:39.3701; stroke-opacity:1; 
stroke-linecap:round; stroke-linejoin:round;">
</g>
<g style="fill:#000000; fill-opacity:0.0; 
stroke:#000000; stroke-width:59.0551; stroke-opacity:1; 
stroke-linecap:round; stroke-linejoin:round;">
<path d="M3937 43307
L4724 43307
" />
</g>
<g style="fill:#000000; fill-opacity:0.0; 
stroke:#000000; stroke-width:39.3701; stroke-opacity:1; 
stroke-linecap:round; stroke-linejoin:round;">
</g>
<g style="fill:#000000; fill-opacity:0.0; 
stroke:#000000; stroke-width:59.0551; stroke-opacity:1; 
stroke-linecap:round; stroke-linejoin:round;">
<path d="M3937 62992
L4724 62992
" />
</g>
<g style="fill:#000000; fill-opacity:0.0; 
stroke:#000000; stroke-width:39.3701; stroke-opacity:1; 
stroke-linecap:round; stroke-linejoin:round;">
</g>
<g style="fill:#000000; fill-opacity:0.0; 
stroke:#000000; stroke-width:59.0551; stroke-opacity:1; 
stroke-linecap:round; stroke-linejoin:round;">
<text x="4330.71" y="14035.4"
textLength="497.75" font-size="682.415" lengthAdjust="spacingAndGlyphs"
text-anchor="middle" opacity="0">A</text>
<path d="M4208 13864
L4452 13864
" />
<path d="M4160 14011
L4330 13499
L4501 14011
" />
</g>
<g style="fill:#000000; fill-opacity:0.0; 
stroke:#000000; stroke-width:39.3701; stroke-opacity:1; 
stroke-linecap:round; stroke-linejoin:round;">
</g>
<g style="fill:#000000; fill-opacity:0.0; 
stroke:#000000; stroke-width:59.0551; stroke-opacity:1; 
stroke-linecap:round; stroke-linejoin:round;">
<text x="4330.71" y="33720.5"
textLength="570.866" font-size="682.415" lengthAdjust="spacingAndGlyphs"
text-anchor="middle" opacity="0">B</text>
<path d="M4367 33428
L4440 33452
L4464 33476
L4489 33525
L4489 33598
L4464 33647
L4440 33671
L4391 33696
L4196 33696
L4196 33184
L4367 33184
L4416 33208
L4440 33233
L4464 33281
L4464 33330
L4440 33379
L4416 33403
L4367 33428
L4196 33428
" />
</g>
<g style="fill:#000000; fill-opacity:0.0; 
stroke:#000000; stroke-width:39.3701; stroke-opacity:1; 
stroke-linecap:round; stroke-linejoin:round;">
</g>
<g style="fill:#000000; fill-opacity:0.0; 
stroke:#000000; stroke-width:59.0551; stroke-opacity:1; 
stroke-linecap:round; stroke-linejoin:round;">
<text x="4330.71" y="53405.5"
textLength="570.866" font-size="682.415" lengthAdjust="spacingAndGlyphs"
text-anchor="middle" opacity="0">C</text>
<path d="M4489 53332
L4464 53356
L4391 53381
L4342 53381
L4269 53356
L4221 53308
L4196 53259
L4172 53161
L4172 53088
L4196 52991
L4221 52942
L4269 52893
L4342 52869
L4391 52869
L4464 52893
L4489 52918
" />
</g>
<g style="fill:#000000; fill-opacity:0.0; 
stroke:#000000; stroke-width:39.3701; stroke-opacity:1; 
stroke-linecap:round; stroke-linejoin:round;">
</g>
<g style="fill:#000000; fill-opacity:0.0; 
stroke:#000000; stroke-width:59.0551; stroke-opacity:1; 
stroke-linecap:round; stroke-linejoin:round;">
<text x="4330.71" y="73090.6"
textLength="570.866" font-size="682.415" lengthAdjust="spacingAndGlyphs"
text-anchor="middle" opacity="0">D</text>
<path d="M4196 73066
L4196 72554
L4318 72554
L4391 72578
L4440 72627
L4464 72676
L4489 72773
L4489 72846
L4464 72944
L4440 72993
L4391 73041
L4318 73066
L4196 73066
" />
</g>
<g style="fill:#000000; fill-opacity:0.0; 
stroke:#000000; stroke-width:39.3701; stroke-opacity:1; 
stroke-linecap:round; stroke-linejoin:round;">
</g>
<g style="fill:#000000; fill-opacity:0.0; 
stroke:#000000; stroke-width:59.0551; stroke-opacity:1; 
stroke-linecap:round; stroke-linejoin:round;">
<path d="M112992 23622
L112205 23622
" />
</g>
<g style="fill:#000000; fill-opacity:0.0; 
stroke:#000000; stroke-width:39.3701; stroke-opacity:1; 
stroke-linecap:round; stroke-linejoin:round;">
</g>
<g style="fill:#000000; fill-opacity:0.0; 
stroke:#000000; stroke-width:59.0551; stroke-opacity:1; 
stroke-linecap:round; stroke-linejoin:round;">
<path d="M112992 43307
L112205 43307
" />
</g>
<g style="fill:#000000; fill-opacity:0.0; 
stroke:#000000; stroke-width:39.3701; stroke-opacity:1; 
stroke-linecap:round; stroke-linejoin:round;">
</g>
<g style="fill:#000000; fill-opacity:0.0; 
stroke:#000000; stroke-width:59.0551; stroke-opacity:1; 
stroke-linecap:round; stroke-linejoin:round;">
<path d="M112992 62992
L112205 62992
" />
</g>
<g style="fill:#000000; fill-opacity:0.0; 
stroke:#000000; stroke-width:39.3701; stroke-opacity:1; 
stroke-linecap:round; stroke-linejoin:round;">
</g>
<g style="fill:#000000; fill-opacity:0.0; 
stroke:#000000; stroke-width:59.0551; stroke-opacity:1; 
stroke-linecap:round; stroke-linejoin:round;">
<text x="112599" y="14035.4"
textLength="497.75" font-size="682.415" lengthAdjust="spacingAndGlyphs"
text-anchor="middle" opacity="0">A</text>
<path d="M112477 13864
L112721 13864
" />
<path d="M112428 14011
L112599 13499
L112769 14011
" />
</g>
<g style="fill:#000000; fill-opacity:0.0; 
stroke:#000000; stroke-width:39.3701; stroke-opacity:1; 
stroke-linecap:round; stroke-linejoin:round;">
</g>
<g style="fill:#000000; fill-opacity:0.0; 
stroke:#000000; stroke-width:59.0551; stroke-opacity:1; 
stroke-linecap:round; stroke-linejoin:round;">
<text x="112599" y="33720.5"
textLength="570.866" font-size="682.415" lengthAdjust="spacingAndGlyphs"
text-anchor="middle" opacity="0">B</text>
<path d="M112635 33428
L112708 33452
L112733 33476
L112757 33525
L112757 33598
L112733 33647
L112708 33671
L112660 33696
L112465 33696
L112465 33184
L112635 33184
L112684 33208
L112708 33233
L112733 33281
L112733 33330
L112708 33379
L112684 33403
L112635 33428
L112465 33428
" />
</g>
<g style="fill:#000000; fill-opacity:0.0; 
stroke:#000000; stroke-width:39.3701; stroke-opacity:1; 
stroke-linecap:round; stroke-linejoin:round;">
</g>
<g style="fill:#000000; fill-opacity:0.0; 
stroke:#000000; stroke-width:59.0551; stroke-opacity:1; 
stroke-linecap:round; stroke-linejoin:round;">
<text x="112599" y="53405.5"
textLength="570.866" font-size="682.415" lengthAdjust="spacingAndGlyphs"
text-anchor="middle" opacity="0">C</text>
<path d="M112757 53332
L112733 53356
L112660 53381
L112611 53381
L112538 53356
L112489 53308
L112465 53259
L112440 53161
L112440 53088
L112465 52991
L112489 52942
L112538 52893
L112611 52869
L112660 52869
L112733 52893
L112757 52918
" />
</g>
<g style="fill:#000000; fill-opacity:0.0; 
stroke:#000000; stroke-width:39.3701; stroke-opacity:1; 
stroke-linecap:round; stroke-linejoin:round;">
</g>
<g style="fill:#000000; fill-opacity:0.0; 
stroke:#000000; stroke-width:59.0551; stroke-opacity:1; 
stroke-linecap:round; stroke-linejoin:round;">
<text x="112599" y="73090.6"
textLength="570.866" font-size="682.415" lengthAdjust="spacingAndGlyphs"
text-anchor="middle" opacity="0">D</text>
<path d="M112465 73066
L112465 72554
L112587 72554
L112660 72578
L112708 72627
L112733 72676
L112757 72773
L112757 72846
L112733 72944
L112708 72993
L112660 73041
L112587 73066
L112465 73066
" />
</g>
<g style="fill:#000000; fill-opacity:0.0; 
stroke:#000000; stroke-width:39.3701; stroke-opacity:1; 
stroke-linecap:round; stroke-linejoin:round;">
</g>
<g style="fill:#000000; fill-opacity:0.0; 
stroke:#000000; stroke-width:59.0551; stroke-opacity:1; 
stroke-linecap:round; stroke-linejoin:round;">
<text x="78741" y="76321.7"
textLength="2758.72" font-size="787.402" lengthAdjust="spacingAndGlyphs"
text-anchor="start" opacity="0">Date: </text>
<path d="M78911 76293
L78911 75703
L79051 75703
L79136 75731
L79192 75787
L79220 75843
L79248 75956
L79248 76040
L79220 76153
L79192 76209
L79136 76265
L79051 76293
L78911 76293
" />
<path d="M79754 76293
L79754 75984
L79726 75928
L79670 75899
L79557 75899
L79501 75928
" />
<path d="M79754 76265
L79698 76293
L79557 76293
L79501 76265
L79473 76209
L79473 76153
L79501 76096
L79557 76068
L79698 76068
L79754 76040
" />
<path d="M79951 75899
L80176 75899
" />
<path d="M80036 75703
L80036 76209
L80064 76265
L80120 76293
L80176 76293
" />
<path d="M80598 76265
L80542 76293
L80429 76293
L80373 76265
L80345 76209
L80345 75984
L80373 75928
L80429 75899
L80542 75899
L80598 75928
L80626 75984
L80626 76040
L80345 76096
" />
<path d="M80879 76237
L80907 76265
L80879 76293
L80851 76265
L80879 76237
L80879 76293
" />
<path d="M80879 75928
L80907 75956
L80879 75984
L80851 75956
L80879 75928
L80879 75984
" />
</g>
<g style="fill:#000000; fill-opacity:0.0; 
stroke:#000000; stroke-width:39.3701; stroke-opacity:1; 
stroke-linecap:round; stroke-linejoin:round;">
</g>
<g style="fill:#000000; fill-opacity:0.0; 
stroke:#000000; stroke-width:59.0551; stroke-opacity:1; 
stroke-linecap:round; stroke-linejoin:round;">
<path d="M69685 76577
L112205 76577
" />
</g>
<g style="fill:#000000; fill-opacity:0.0; 
stroke:#000000; stroke-width:39.3701; stroke-opacity:1; 
stroke-linecap:round; stroke-linejoin:round;">
</g>
<g style="fill:#000000; fill-opacity:0.0; 
stroke:#000000; stroke-width:59.0551; stroke-opacity:1; 
stroke-linecap:round; stroke-linejoin:round;">
<text x="70079.6" y="77424.1"
textLength="11448.3" font-size="787.402" lengthAdjust="spacingAndGlyphs"
text-anchor="start" opacity="0">KiCad E.D.A.  kicad 5.1.5</text>
<path d="M70249 77395
L70249 76805
" />
<path d="M70587 77395
L70334 77058
" />
<path d="M70587 76805
L70249 77142
" />
<path d="M70840 77395
L70840 77002
" />
<path d="M70840 76805
L70812 76833
L70840 76861
L70868 76833
L70840 76805
L70840 76861
" />
<path d="M71458 77339
L71430 77367
L71346 77395
L71290 77395
L71205 77367
L71149 77311
L71121 77255
L71093 77142
L71093 77058
L71121 76946
L71149 76889
L71205 76833
L71290 76805
L71346 76805
L71430 76833
L71458 76861
" />
<path d="M71965 77395
L71965 77086
L71937 77030
L71880 77002
L71768 77002
L71712 77030
" />
<path d="M71965 77367
L71908 77395
L71768 77395
L71712 77367
L71683 77311
L71683 77255
L71712 77199
L71768 77171
L71908 77171
L71965 77142
" />
<path d="M72499 77395
L72499 76805
" />
<path d="M72499 77367
L72443 77395
L72330 77395
L72274 77367
L72246 77339
L72218 77283
L72218 77114
L72246 77058
L72274 77030
L72330 77002
L72443 77002
L72499 77030
" />
<path d="M73230 77086
L73427 77086
" />
<path d="M73511 77395
L73230 77395
L73230 76805
L73511 76805
" />
<path d="M73764 77339
L73793 77367
L73764 77395
L73736 77367
L73764 77339
L73764 77395
" />
<path d="M74046 77395
L74046 76805
L74186 76805
L74271 76833
L74327 76889
L74355 76946
L74383 77058
L74383 77142
L74355 77255
L74327 77311
L74271 77367
L74186 77395
L74046 77395
" />
<path d="M74636 77339
L74664 77367
L74636 77395
L74608 77367
L74636 77339
L74636 77395
" />
<path d="M74889 77227
L75171 77227
" />
<path d="M74833 77395
L75030 76805
L75227 77395
" />
<path d="M75424 77339
L75452 77367
L75424 77395
L75395 77367
L75424 77339
L75424 77395
" />
<path d="M76605 77395
L76605 76805
" />
<path d="M76661 77171
L76830 77395
" />
<path d="M76830 77002
L76605 77227
" />
<path d="M77083 77395
L77083 77002
" />
<path d="M77083 76805
L77055 76833
L77083 76861
L77111 76833
L77083 76805
L77083 76861
" />
<path d="M77617 77367
L77561 77395
L77448 77395
L77392 77367
L77364 77339
L77336 77283
L77336 77114
L77364 77058
L77392 77030
L77448 77002
L77561 77002
L77617 77030
" />
<path d="M78123 77395
L78123 77086
L78095 77030
L78039 77002
L77926 77002
L77870 77030
" />
<path d="M78123 77367
L78067 77395
L77926 77395
L77870 77367
L77842 77311
L77842 77255
L77870 77199
L77926 77171
L78067 77171
L78123 77142
" />
<path d="M78658 77395
L78658 76805
" />
<path d="M78658 77367
L78601 77395
L78489 77395
L78433 77367
L78404 77339
L78376 77283
L78376 77114
L78404 77058
L78433 77030
L78489 77002
L78601 77002
L78658 77030
" />
<path d="M79670 76805
L79389 76805
L79361 77086
L79389 77058
L79445 77030
L79586 77030
L79642 77058
L79670 77086
L79698 77142
L79698 77283
L79670 77339
L79642 77367
L79586 77395
L79445 77395
L79389 77367
L79361 77339
" />
<path d="M79951 77339
L79979 77367
L79951 77395
L79923 77367
L79951 77339
L79951 77395
" />
<path d="M80542 77395
L80204 77395
" />
<path d="M80373 77395
L80373 76805
L80317 76889
L80260 76946
L80204 76974
" />
<path d="M80795 77339
L80823 77367
L80795 77395
L80767 77367
L80795 77339
L80795 77395
" />
<path d="M81357 76805
L81076 76805
L81048 77086
L81076 77058
L81132 77030
L81273 77030
L81329 77058
L81357 77086
L81385 77142
L81385 77283
L81357 77339
L81329 77367
L81273 77395
L81132 77395
L81076 77367
L81048 77339
" />
</g>
<g style="fill:#000000; fill-opacity:0.0; 
stroke:#000000; stroke-width:39.3701; stroke-opacity:1; 
stroke-linecap:round; stroke-linejoin:round;">
</g>
<g style="fill:#000000; fill-opacity:0.0; 
stroke:#000000; stroke-width:59.0551; stroke-opacity:1; 
stroke-linecap:round; stroke-linejoin:round;">
<path d="M69685 75396
L112205 75396
" />
</g>
<g style="fill:#000000; fill-opacity:0.0; 
stroke:#000000; stroke-width:39.3701; stroke-opacity:1; 
stroke-linecap:round; stroke-linejoin:round;">
</g>
<g style="fill:#000000; fill-opacity:0.0; 
stroke:#000000; stroke-width:118.11; stroke-opacity:1; 
stroke-linecap:round; stroke-linejoin:round;">
<text x="103544" y="76321.7"
textLength="2336.9" font-size="787.402" lengthAdjust="spacingAndGlyphs"
text-anchor="start" opacity="0">Rev: </text>
<path d="M104099 76293
L103902 76012
" />
<path d="M103761 76293
L103761 75703
L103986 75703
L104042 75731
L104070 75759
L104099 75815
L104099 75899
L104070 75956
L104042 75984
L103986 76012
L103761 76012
" />
<path d="M104577 76265
L104520 76293
L104408 76293
L104352 76265
L104323 76209
L104323 75984
L104352 75928
L104408 75899
L104520 75899
L104577 75928
L104605 75984
L104605 76040
L104323 76096
" />
<path d="M104802 75899
L104942 76293
L105083 75899
" />
<path d="M105308 76237
L105336 76265
L105308 76293
L105280 76265
L105308 76237
L105308 76293
" />
<path d="M105308 75928
L105336 75956
L105308 75984
L105280 75956
L105308 75928
L105308 75984
" />
</g>
<g style="fill:#000000; fill-opacity:0.0; 
stroke:#000000; stroke-width:39.3701; stroke-opacity:1; 
stroke-linecap:round; stroke-linejoin:round;">
</g>
<g style="fill:#000000; fill-opacity:0.0; 
stroke:#000000; stroke-width:59.0551; stroke-opacity:1; 
stroke-linecap:round; stroke-linejoin:round;">
<text x="70079.6" y="76321.7"
textLength="3781.21" font-size="787.402" lengthAdjust="spacingAndGlyphs"
text-anchor="start" opacity="0">Size: A4</text>
<path d="M70221 76265
L70305 76293
L70446 76293
L70502 76265
L70530 76237
L70559 76181
L70559 76124
L70530 76068
L70502 76040
L70446 76012
L70334 75984
L70277 75956
L70249 75928
L70221 75871
L70221 75815
L70249 75759
L70277 75731
L70334 75703
L70474 75703
L70559 75731
" />
<path d="M70812 76293
L70812 75899
" />
<path d="M70812 75703
L70784 75731
L70812 75759
L70840 75731
L70812 75703
L70812 75759
" />
<path d="M71037 75899
L71346 75899
L71037 76293
L71346 76293
" />
<path d="M71796 76265
L71740 76293
L71627 76293
L71571 76265
L71543 76209
L71543 75984
L71571 75928
L71627 75899
L71740 75899
L71796 75928
L71824 75984
L71824 76040
L71543 76096
" />
<path d="M72077 76237
L72105 76265
L72077 76293
L72049 76265
L72077 76237
L72077 76293
" />
<path d="M72077 75928
L72105 75956
L72077 75984
L72049 75956
L72077 75928
L72077 75984
" />
<path d="M72780 76124
L73061 76124
" />
<path d="M72724 76293
L72921 75703
L73118 76293
" />
<path d="M73568 75899
L73568 76293
" />
<path d="M73427 75674
L73286 76096
L73652 76096
" />
</g>
<g style="fill:#000000; fill-opacity:0.0; 
stroke:#000000; stroke-width:39.3701; stroke-opacity:1; 
stroke-linecap:round; stroke-linejoin:round;">
</g>
<g style="fill:#000000; fill-opacity:0.0; 
stroke:#000000; stroke-width:59.0551; stroke-opacity:1; 
stroke-linecap:round; stroke-linejoin:round;">
<text x="103544" y="77424.1"
textLength="3349.27" font-size="787.402" lengthAdjust="spacingAndGlyphs"
text-anchor="start" opacity="0">Id: 1/1</text>
<path d="M103714 77395
L103714 76805
" />
<path d="M104248 77395
L104248 76805
" />
<path d="M104248 77367
L104192 77395
L104079 77395
L104023 77367
L103995 77339
L103967 77283
L103967 77114
L103995 77058
L104023 77030
L104079 77002
L104192 77002
L104248 77030
" />
<path d="M104529 77339
L104557 77367
L104529 77395
L104501 77367
L104529 77339
L104529 77395
" />
<path d="M104529 77030
L104557 77058
L104529 77086
L104501 77058
L104529 77030
L104529 77086
" />
<path d="M105570 77395
L105232 77395
" />
<path d="M105401 77395
L105401 76805
L105345 76889
L105289 76946
L105232 76974
" />
<path d="M106245 76777
L105739 77536
" />
<path d="M106751 77395
L106413 77395
" />
<path d="M106582 77395
L106582 76805
L106526 76889
L106470 76946
L106413 76974
" />
</g>
<g style="fill:#000000; fill-opacity:0.0; 
stroke:#000000; stroke-width:39.3701; stroke-opacity:1; 
stroke-linecap:round; stroke-linejoin:round;">
</g>
<g style="fill:#000000; fill-opacity:0.0; 
stroke:#000000; stroke-width:59.0551; stroke-opacity:1; 
stroke-linecap:round; stroke-linejoin:round;">
<path d="M69685 73821
L112205 73821
" />
</g>
<g style="fill:#000000; fill-opacity:0.0; 
stroke:#000000; stroke-width:39.3701; stroke-opacity:1; 
stroke-linecap:round; stroke-linejoin:round;">
</g>
<g style="fill:#000000; fill-opacity:0.0; 
stroke:#000000; stroke-width:157.48; stroke-opacity:1; 
stroke-linecap:round; stroke-linejoin:round;">
<text x="70079.6" y="74924.1"
textLength="3701.14" font-size="1049.87" lengthAdjust="spacingAndGlyphs"
text-anchor="start" opacity="0">Title: </text>
<path d="M70360 74099
L70810 74099
" />
<path d="M70486 74886
L70585 74099
" />
<path d="M70974 74886
L71039 74361
" />
<path d="M71072 74099
L71030 74136
L71063 74174
L71105 74136
L71072 74099
L71063 74174
" />
<path d="M71302 74361
L71602 74361
" />
<path d="M71447 74099
L71363 74774
L71391 74849
L71461 74886
L71536 74886
" />
<path d="M71911 74886
L71841 74849
L71813 74774
L71897 74099
" />
<path d="M72516 74849
L72436 74886
L72286 74886
L72216 74849
L72187 74774
L72225 74474
L72272 74399
L72352 74361
L72501 74361
L72572 74399
L72600 74474
L72591 74549
L72206 74624
" />
<path d="M72895 74811
L72928 74849
L72886 74886
L72853 74849
L72895 74811
L72886 74886
" />
<path d="M72947 74399
L72980 74436
L72937 74474
L72905 74436
L72947 74399
L72937 74474
" />
</g>
<g style="fill:#000000; fill-opacity:0.0; 
stroke:#000000; stroke-width:39.3701; stroke-opacity:1; 
stroke-linecap:round; stroke-linejoin:round;">
</g>
<g style="fill:#000000; fill-opacity:0.0; 
stroke:#000000; stroke-width:59.0551; stroke-opacity:1; 
stroke-linecap:round; stroke-linejoin:round;">
<text x="70079.6" y="73408.3"
textLength="9062.99" font-size="787.402" lengthAdjust="spacingAndGlyphs"
text-anchor="start" opacity="0">File: mini.kicad_pcb</text>
<path d="M70446 73070
L70249 73070
" />
<path d="M70249 73380
L70249 72789
L70530 72789
" />
<path d="M70755 73380
L70755 72986
" />
<path d="M70755 72789
L70727 72817
L70755 72845
L70784 72817
L70755 72789
L70755 72845
" />
<path d="M71121 73380
L71065 73352
L71037 73295
L71037 72789
" />
<path d="M71571 73352
L71515 73380
L71402 73380
L71346 73352
L71318 73295
L71318 73070
L71346 73014
L71402 72986
L71515 72986
L71571 73014
L71599 73070
L71599 73127
L71318 73183
" />
<path d="M71852 73323
L71880 73352
L71852 73380
L71824 73352
L71852 73323
L71852 73380
" />
<path d="M71852 73014
L71880 73042
L71852 73070
L71824 73042
L71852 73014
L71852 73070
" />
<path d="M72583 73380
L72583 72986
" />
<path d="M72583 73042
L72611 73014
L72668 72986
L72752 72986
L72808 73014
L72836 73070
L72836 73380
" />
<path d="M72836 73070
L72865 73014
L72921 72986
L73005 72986
L73061 73014
L73090 73070
L73090 73380
" />
<path d="M73371 73380
L73371 72986
" />
<path d="M73371 72789
L73343 72817
L73371 72845
L73399 72817
L73371 72789
L73371 72845
" />
<path d="M73652 72986
L73652 73380
" />
<path d="M73652 73042
L73680 73014
L73736 72986
L73821 72986
L73877 73014
L73905 73070
L73905 73380
" />
<path d="M74186 73380
L74186 72986
" />
<path d="M74186 72789
L74158 72817
L74186 72845
L74214 72817
L74186 72789
L74186 72845
" />
<path d="M74467 73323
L74496 73352
L74467 73380
L74439 73352
L74467 73323
L74467 73380
" />
<path d="M74749 73380
L74749 72789
" />
<path d="M74805 73155
L74974 73380
" />
<path d="M74974 72986
L74749 73211
" />
<path d="M75227 73380
L75227 72986
" />
<path d="M75227 72789
L75199 72817
L75227 72845
L75255 72817
L75227 72789
L75227 72845
" />
<path d="M75761 73352
L75705 73380
L75592 73380
L75536 73352
L75508 73323
L75480 73267
L75480 73099
L75508 73042
L75536 73014
L75592 72986
L75705 72986
L75761 73014
" />
<path d="M76267 73380
L76267 73070
L76239 73014
L76183 72986
L76070 72986
L76014 73014
" />
<path d="M76267 73352
L76211 73380
L76070 73380
L76014 73352
L75986 73295
L75986 73239
L76014 73183
L76070 73155
L76211 73155
L76267 73127
" />
<path d="M76802 73380
L76802 72789
" />
<path d="M76802 73352
L76745 73380
L76633 73380
L76577 73352
L76548 73323
L76520 73267
L76520 73099
L76548 73042
L76577 73014
L76633 72986
L76745 72986
L76802 73014
" />
<path d="M76942 73436
L77392 73436
" />
<path d="M77533 72986
L77533 73577
" />
<path d="M77533 73014
L77589 72986
L77701 72986
L77758 73014
L77786 73042
L77814 73099
L77814 73267
L77786 73323
L77758 73352
L77701 73380
L77589 73380
L77533 73352
" />
<path d="M78320 73352
L78264 73380
L78151 73380
L78095 73352
L78067 73323
L78039 73267
L78039 73099
L78067 73042
L78095 73014
L78151 72986
L78264 72986
L78320 73014
" />
<path d="M78573 73380
L78573 72789
" />
<path d="M78573 73014
L78629 72986
L78742 72986
L78798 73014
L78826 73042
L78854 73099
L78854 73267
L78826 73323
L78798 73352
L78742 73380
L78629 73380
L78573 73352
" />
</g>
<g style="fill:#000000; fill-opacity:0.0; 
stroke:#000000; stroke-width:39.3701; stroke-opacity:1; 
stroke-linecap:round; stroke-linejoin:round;">
</g>
<g style="fill:#000000; fill-opacity:0.0; 
stroke:#000000; stroke-width:59.0551; stroke-opacity:1; 
stroke-linecap:round; stroke-linejoin:round;">
<path d="M69685 71459
L112205 71459
" />
</g>
<g style="fill:#000000; fill-opacity:0.0; 
stroke:#000000; stroke-width:39.3701; stroke-opacity:1; 
stroke-linecap:round; stroke-linejoin:round;">
</g>
<g style="fill:#000000; fill-opacity:0.0; 
stroke:#000000; stroke-width:59.0551; stroke-opacity:1; 
stroke-linecap:round; stroke-linejoin:round;">
<text x="70079.6" y="72345.4"
textLength="3236.78" font-size="787.402" lengthAdjust="spacingAndGlyphs"
text-anchor="start" opacity="0">Sheet: </text>
<path d="M70221 72289
L70305 72317
L70446 72317
L70502 72289
L70530 72260
L70559 72204
L70559 72148
L70530 72092
L70502 72064
L70446 72036
L70334 72007
L70277 71979
L70249 71951
L70221 71895
L70221 71839
L70249 71782
L70277 71754
L70334 71726
L70474 71726
L70559 71754
" />
<path d="M70812 72317
L70812 71726
" />
<path d="M71065 72317
L71065 72007
L71037 71951
L70980 71923
L70896 71923
L70840 71951
L70812 71979
" />
<path d="M71571 72289
L71515 72317
L71402 72317
L71346 72289
L71318 72232
L71318 72007
L71346 71951
L71402 71923
L71515 71923
L71571 71951
L71599 72007
L71599 72064
L71318 72120
" />
<path d="M72077 72289
L72021 72317
L71908 72317
L71852 72289
L71824 72232
L71824 72007
L71852 71951
L71908 71923
L72021 71923
L72077 71951
L72105 72007
L72105 72064
L71824 72120
" />
<path d="M72274 71923
L72499 71923
" />
<path d="M72358 71726
L72358 72232
L72386 72289
L72443 72317
L72499 72317
" />
<path d="M72696 72260
L72724 72289
L72696 72317
L72668 72289
L72696 72260
L72696 72317
" />
<path d="M72696 71951
L72724 71979
L72696 72007
L72668 71979
L72696 71951
L72696 72007
" />
</g>
<g style="fill:#000000; fill-opacity:0.0; 
stroke:#000000; stroke-width:39.3701; stroke-opacity:1; 
stroke-linecap:round; stroke-linejoin:round;">
</g>
<g style="fill:#000000; fill-opacity:0.0; 
stroke:#000000; stroke-width:59.0551; stroke-opacity:1; 
stroke-linecap:round; stroke-linejoin:round;">
<path d="M77559 75396
L77559 76577
" />
</g>
<g style="fill:#000000; fill-opacity:0.0; 
stroke:#000000; stroke-width:39.3701; stroke-opacity:1; 
stroke-linecap:round; stroke-linejoin:round;">
</g>
<g style="fill:#000000; fill-opacity:0.0; 
stroke:#000000; stroke-width:59.0551; stroke-opacity:1; 
stroke-linecap:round; stroke-linejoin:round;">
<path d="M102756 75396
L102756 77955
" />
</g>
<g style="fill:#848484; fill-opacity:0.0; 
stroke:#848484; stroke-width:59.0551; stroke-opacity:1; 
stroke-linecap:round; stroke-linejoin:round;">
</g>
<g style="fill:#848484; fill-opacity:0.0; 
stroke:#848484; stroke-width:39.3701; stroke-opacity:1; 
stroke-linecap:round; stroke-linejoin:round;">
<path d="M40000 14251
L39901 14251
" />
<path d="M40000 14114
L40196 14251
" />
<path d="M40000 14389
L40000 14114
" />
<path d="M40196 14251
L40000 14389
" />
<path d="M40196 14251
L40275 14251
" />
<path d="M40196 14389
L40196 14114
" />
<path d="M40433 13976
L40433 14527
" />
<path d="M39724 13976
L40433 13976
" />
<path d="M39724 14527
L39724 13976
" />
<path d="M40433 14527
L39724 14527
" />
<path d="M37870 14494
L39067 14494
" />
<path d="M37870 13943
L37870 14494
" />
<path d="M39069 14051
L38990 13943
" />
<path d="M39069 14051
L39069 14494
" />
<path d="M38990 13943
L37868 13943
" />
<path d="M48184 41604
L48184 40935
" />
<path d="M48184 40935
L48065 40817
" />
<path d="M48065 40817
L47711 40817
" />
<path d="M47711 40817
L47711 41604
" />
<path d="M47711 41604
L48184 41604
" />
<path d="M48711 40827
L49183 40827
" />
<path d="M49183 40827
L49183 41615
" />
<path d="M49183 41615
L48711 41615
" />
<path d="M48711 41615
L48711 40827
" />
<path d="M43488 39366
L43488 41728
" />
<path d="M43740 41728
L43488 41728
" />
<path d="M43740 39366
L43740 41728
" />
<path d="M43488 37649
L43488 38366
" />
<path d="M43740 37649
L43488 37649
" />
<path d="M43740 37649
L43740 38366
" />
<path d="M44488 39366
L44488 41728
" />
<path d="M44740 41728
L44488 41728
" />
<path d="M44740 39366
L44740 41728
" />
<path d="M44488 37649
L44488 38366
" />
<path d="M44740 37649
L44488 37649
" />
<path d="M44740 37649
L44740 38366
" />
<path d="M45488 39366
L45488 41728
" />
<path d="M45740 41728
L45488 41728
" />
<path d="M45740 39366
L45740 41728
" />
<path d="M45488 37649
L45488 38366
" />
<path d="M45740 37649
L45488 37649
" />
<path d="M45740 37649
L45740 38366
" />
<path d="M46488 39366
L46488 41728
" />
<path d="M46740 41728
L46488 41728
" />
<path d="M46740 39366
L46740 41728
" />
<path d="M46488 37649
L46488 38366
" />
<path d="M46740 37649
L46488 37649
" />
<path d="M46740 37649
L46740 38366
" />
<path d="M46864 38366
L47114 38616
" />
<path d="M43114 38366
L46864 38366
" />
<path d="M43114 39366
L43114 38366
" />
<path d="M47114 39366
L43114 39366
" />
<path d="M47114 38616
L47114 39366
" />
<path d="M40472 15275
L39685 15275
" />
<path d="M40472 14803
L40472 15275
" />
<path d="M39685 14803
L40472 14803
" />
<path d="M39685 15275
L39685 14803
" />
<path d="M33562 13937
L34783 13937
" />
<path d="M34783 13937
L34783 14645
" />
<path d="M33818 14645
L34783 14645
" />
<path d="M33562 13937
L33562 14389
" />
<path d="M33818 14645
L33562 14389
" />
<path d="M27559 12992
L28346 12992
" />
<path d="M27559 13464
L27559 12992
" />
<path d="M28346 13464
L27559 13464
" />
<path d="M28346 12992
L28346 13464
" />
<path d="M34102 11181
L34102 10708
" />
<path d="M33314 11181
L34102 11181
" />
<path d="M33314 10826
L33314 11181
" />
<path d="M33433 10708
L33314 10826
" />
<path d="M34102 10708
L33433 10708
" />
<path d="M33307 12165
L33976 12165
" />
<path d="M33976 12165
L34094 12047
" />
<path d="M34094 12047
L34094 11692
" />
<path d="M34094 11692
L33307 11692
" />
<path d="M33307 11692
L33307 12165
" />
<path d="M35314 13833
L35787 13833
" />
<path d="M35787 13833
L35787 14621
" />
<path d="M35787 14621
L35314 14621
" />
<path d="M35314 14621
L35314 13833
" />
<path d="M32559 12165
L31771 12165
" />
<path d="M32559 11692
L32559 12165
" />
<path d="M31771 11692
L32559 11692
" />
<path d="M31771 12165
L31771 11692
" />
<path d="M32544 10708
L32544 11181
" />
<path d="M32544 11181
L31756 11181
" />
<path d="M31756 11181
L31756 10708
" />
<path d="M31756 10708
L32544 10708
" />
<path d="M39685 13700
L39685 13228
" />
<path d="M39685 13228
L40472 13228
" />
<path d="M40472 13228
L40472 13700
" />
<path d="M40472 13700
L39685 13700
" />
<path d="M40472 10391
L40472 9879
" />
<path d="M40472 9879
L40393 9801
" />
<path d="M40393 9801
L40059 9801
" />
<path d="M40059 9801
L39980 9879
" />
<path d="M39980 9879
L39960 9899
" />
<path d="M39960 9899
L39960 10411
" />
<path d="M41240 11435
L41240 10411
" />
<path d="M41240 10411
L38602 10411
" />
<path d="M38602 10411
L38602 11435
" />
<path d="M38602 11435
L41240 11435
" />
<path d="M36299 13833
L36771 13833
" />
<path d="M36771 13833
L36771 14621
" />
<path d="M36771 14621
L36299 14621
" />
<path d="M36299 14621
L36299 13833
" />
<path d="M44803 11338
L44015 11338
" />
<path d="M44803 10866
L44803 11338
" />
<path d="M44015 10866
L44803 10866
" />
<path d="M44015 11338
L44015 10866
" />
<path d="M43149 10866
L43149 11338
" />
<path d="M43149 11338
L42362 11338
" />
<path d="M42362 11338
L42362 10866
" />
<path d="M42362 10866
L43149 10866
" />
</g>
<g style="fill:#848484; fill-opacity:0.0; 
stroke:#848484; stroke-width:47.2441; stroke-opacity:1; 
stroke-linecap:round; stroke-linejoin:round;">
<path d="M37854 11751
L37539 12047
" />
<path d="M34901 10098
L37854 10098
" />
<path d="M34901 12047
L34901 10098
" />
<path d="M37539 12047
L34901 12047
" />
<path d="M37854 10098
L37854 11751
" />
</g>
<g style="fill:#848484; fill-opacity:0.0; 
stroke:#848484; stroke-width:39.3701; stroke-opacity:1; 
stroke-linecap:round; stroke-linejoin:round;">
<path d="M43917 12637
L42952 12637
" />
<path d="M44141 12854
L44141 13188
" />
<path d="M43917 12637
L44141 12854
" />
<path d="M44141 13188
L42944 13188
" />
<path d="M42944 12637
L42944 13188
" />
<g >
</g>
<g >
</g>
<g >
</g>
<g >
</g>
<g >
</g>
<g >
</g>
<g >
</g>
<g >
</g>
<g >
</g>
<g >
</g>
<g >
</g>
<g >
</g>
<g >
</g>
<g >
</g>
<g >
</g>
<g >
</g>
<g >
</g>
<g >
</g>
<g >
</g>
<g >
</g>
<g >
</g>
<g >
</g>
<g >
</g>
<g >
</g>
<g >
</g>
<g >
</g>
<g >
</g>
<g >
</g>
<g >
</g>
<g >
</g>
<g >
</g>
<g >
</g>
<g >
</g>
<g >
</g>
<g >
</g>
<g >
</g>
<g >
</g>
<g >
</g>
<g >
</g>
<g >
</g>
<g >
</g>
<g >
</g>
<g >
</g>
<g >
</g>
<g >
</g>
<g >
</g>
<g >
</g>
<g >
</g>
<g >
</g>
<g >
</g>
<g >
</g>
<g >
</g>
<g >
</g>
<g >
</g>
<g >
</g>
<g >
</g>
<g >
</g>
<g >
</g>
<g >
</g>
<g >
</g>
<g >
</g>
<g >
</g>
<g >
</g>
<g >
</g>
<g >
</g>
<g >
</g>
<g >
</g>
<g >
</g>
<g >
</g>
<g >
</g>
<g >
</g>
<g >
</g>
<g >
</g>
<g >
</g>
<g >
</g>
<g >
</g>
<g >
</g>
</g>
<g style="fill:#848484; fill-opacity:0.0; 
stroke:#848484; stroke-width:39.3701; stroke-opacity:1; 
stroke-linecap:round; stroke-linejoin:round;">
</g>
<g style="fill:#848484; fill-opacity:0.0; 
stroke:#848484; stroke-width:59.0551; stroke-opacity:1; 
stroke-linecap:round; stroke-linejoin:round;">
<text x="40039.4" y="13700.8"
textLength="2739.97" font-size="524.934" lengthAdjust="spacingAndGlyphs"
text-anchor="middle" opacity="0">NSR0320</text>
<path d="M38792 13682
L38792 13288
L39017 13682
L39017 13288
" />
<path d="M39186 13663
L39242 13682
L39336 13682
L39373 13663
L39392 13644
L39411 13607
L39411 13569
L39392 13532
L39373 13513
L39336 13494
L39261 13475
L39223 13457
L39205 13438
L39186 13400
L39186 13363
L39205 13325
L39223 13307
L39261 13288
L39355 13288
L39411 13307
" />
<path d="M39805 13682
L39673 13494
" />
<path d="M39580 13682
L39580 13288
L39730 13288
L39767 13307
L39786 13325
L39805 13363
L39805 13419
L39786 13457
L39767 13475
L39730 13494
L39580 13494
" />
<path d="M40048 13288
L40086 13288
L40123 13307
L40142 13325
L40161 13363
L40179 13438
L40179 13532
L40161 13607
L40142 13644
L40123 13663
L40086 13682
L40048 13682
L40011 13663
L39992 13644
L39973 13607
L39955 13532
L39955 13438
L39973 13363
L39992 13325
L40011 13307
L40048 13288
" />
<path d="M40311 13288
L40554 13288
L40423 13438
L40479 13438
L40517 13457
L40536 13475
L40554 13513
L40554 13607
L40536 13644
L40517 13663
L40479 13682
L40367 13682
L40329 13663
L40311 13644
" />
<path d="M40704 13325
L40723 13307
L40761 13288
L40854 13288
L40892 13307
L40911 13325
L40929 13363
L40929 13400
L40911 13457
L40686 13682
L40929 13682
" />
<path d="M41173 13288
L41211 13288
L41248 13307
L41267 13325
L41286 13363
L41304 13438
L41304 13532
L41286 13607
L41267 13644
L41248 13663
L41211 13682
L41173 13682
L41136 13663
L41117 13644
L41098 13607
L41079 13532
L41079 13438
L41098 13363
L41117 13325
L41136 13307
L41173 13288
" />
<text x="40078.7" y="15177.2"
textLength="845.426" font-size="524.934" lengthAdjust="spacingAndGlyphs"
text-anchor="middle" opacity="0">D3</text>
<path d="M39788 15158
L39788 14764
L39881 14764
L39938 14783
L39975 14820
L39994 14858
L40013 14933
L40013 14989
L39994 15064
L39975 15102
L39938 15139
L39881 15158
L39788 15158
" />
<path d="M40144 14764
L40388 14764
L40256 14914
L40313 14914
L40350 14933
L40369 14952
L40388 14989
L40388 15083
L40369 15120
L40350 15139
L40313 15158
L40200 15158
L40163 15139
L40144 15120
" />
<g transform="rotate(-90 37189.4 14228.7)">
<text x="37189.4" y="14425.6"
textLength="2139.01" font-size="524.934" lengthAdjust="spacingAndGlyphs"
text-anchor="middle" opacity="0">SI2301</text>
</g>
<path d="M37348 15184
L37367 15128
L37367 15034
L37348 14997
L37329 14978
L37292 14959
L37254 14959
L37217 14978
L37198 14997
L37179 15034
L37161 15109
L37142 15147
L37123 15166
L37086 15184
L37048 15184
L37011 15166
L36992 15147
L36973 15109
L36973 15016
L36992 14959
" />
<path d="M37367 14791
L36973 14791
" />
<path d="M37011 14622
L36992 14603
L36973 14566
L36973 14472
L36992 14434
L37011 14416
L37048 14397
L37086 14397
L37142 14416
L37367 14641
L37367 14397
" />
<path d="M36973 14266
L36973 14022
L37123 14153
L37123 14097
L37142 14060
L37161 14041
L37198 14022
L37292 14022
L37329 14041
L37348 14060
L37367 14097
L37367 14209
L37348 14247
L37329 14266
" />
<path d="M36973 13778
L36973 13741
L36992 13703
L37011 13685
L37048 13666
L37123 13647
L37217 13647
L37292 13666
L37329 13685
L37348 13703
L37367 13741
L37367 13778
L37348 13816
L37329 13835
L37292 13853
L37217 13872
L37123 13872
L37048 13853
L37011 13835
L36992 13816
L36973 13778
" />
<path d="M37367 13272
L37367 13497
" />
<path d="M37367 13385
L36973 13385
L37030 13422
L37067 13460
L37086 13497
" />
</g>
<g style="fill:#848484; fill-opacity:0.0; 
stroke:#848484; stroke-width:19.685; stroke-opacity:1; 
stroke-linecap:round; stroke-linejoin:round;">
<g transform="rotate(-90 38409.8 14169.7)">
<text x="38409.8" y="14218.9"
textLength="273.622" font-size="131.233" lengthAdjust="spacingAndGlyphs"
text-anchor="middle" opacity="0">Q1</text>
</g>
<path d="M38463 14179
L38459 14188
L38449 14197
L38435 14211
L38430 14221
L38430 14230
" />
<path d="M38454 14225
L38449 14235
L38440 14244
L38421 14249
L38388 14249
L38370 14244
L38360 14235
L38355 14225
L38355 14207
L38360 14197
L38370 14188
L38388 14183
L38421 14183
L38440 14188
L38449 14197
L38454 14207
L38454 14225
" />
<path d="M38454 14090
L38454 14146
" />
<path d="M38454 14118
L38355 14118
L38370 14127
L38379 14136
L38384 14146
" />
</g>
<g style="fill:#848484; fill-opacity:0.0; 
stroke:#848484; stroke-width:59.0551; stroke-opacity:1; 
stroke-linecap:round; stroke-linejoin:round;">
<g transform="rotate(-90 47298.2 41211)">
<text x="47298.2" y="41407.9"
textLength="1769.12" font-size="524.934" lengthAdjust="spacingAndGlyphs"
text-anchor="middle" opacity="0">DIODE</text>
</g>
<path d="M47476 41989
L47082 41989
L47082 41895
L47101 41839
L47138 41801
L47176 41782
L47251 41764
L47307 41764
L47382 41782
L47420 41801
L47457 41839
L47476 41895
L47476 41989
" />
<path d="M47476 41595
L47082 41595
" />
<path d="M47082 41332
L47082 41257
L47101 41220
L47138 41182
L47213 41164
L47345 41164
L47420 41182
L47457 41220
L47476 41257
L47476 41332
L47457 41370
L47420 41407
L47345 41426
L47213 41426
L47138 41407
L47101 41370
L47082 41332
" />
<path d="M47476 40995
L47082 40995
L47082 40901
L47101 40845
L47138 40807
L47176 40789
L47251 40770
L47307 40770
L47382 40789
L47420 40807
L47457 40845
L47476 40901
L47476 40995
" />
<path d="M47270 40601
L47270 40470
" />
<path d="M47476 40414
L47476 40601
L47082 40601
L47082 40414
" />
</g>
<g style="fill:#848484; fill-opacity:0.0; 
stroke:#848484; stroke-width:31.4961; stroke-opacity:1; 
stroke-linecap:round; stroke-linejoin:round;">
<g transform="rotate(-90 47947.8 41211)">
<text x="47947.8" y="41309.5"
textLength="836.052" font-size="262.467" lengthAdjust="spacingAndGlyphs"
text-anchor="middle" opacity="0">D201</text>
</g>
<path d="M48036 41543
L47840 41543
L47840 41496
L47849 41468
L47868 41450
L47886 41440
L47924 41431
L47952 41431
L47990 41440
L48008 41450
L48027 41468
L48036 41496
L48036 41543
" />
<path d="M47858 41356
L47849 41346
L47840 41328
L47840 41281
L47849 41262
L47858 41253
L47877 41243
L47896 41243
L47924 41253
L48036 41365
L48036 41243
" />
<path d="M47840 41121
L47840 41103
L47849 41084
L47858 41075
L47877 41065
L47915 41056
L47961 41056
L47999 41065
L48018 41075
L48027 41084
L48036 41103
L48036 41121
L48027 41140
L48018 41150
L47999 41159
L47961 41168
L47915 41168
L47877 41159
L47858 41150
L47849 41140
L47840 41121
" />
<path d="M48036 40868
L48036 40981
" />
<path d="M48036 40925
L47840 40925
L47868 40943
L47886 40962
L47896 40981
" />
</g>
<g style="fill:#848484; fill-opacity:0.0; 
stroke:#848484; stroke-width:59.0551; stroke-opacity:1; 
stroke-linecap:round; stroke-linejoin:round;">
<g transform="rotate(-90 48298.1 41221.4)">
<text x="48298.1" y="41418.2"
textLength="434.646" font-size="524.934" lengthAdjust="spacingAndGlyphs"
text-anchor="middle" opacity="0">R</text>
</g>
<path d="M48476 41099
L48288 41230
" />
<path d="M48476 41324
L48082 41324
L48082 41174
L48101 41137
L48120 41118
L48157 41099
L48213 41099
L48251 41118
L48270 41137
L48288 41174
L48288 41324
" />
</g>
<g style="fill:#848484; fill-opacity:0.0; 
stroke:#848484; stroke-width:31.4961; stroke-opacity:1; 
stroke-linecap:round; stroke-linejoin:round;">
<g transform="rotate(-90 48947.7 41221.4)">
<text x="48947.7" y="41319.8"
textLength="836.052" font-size="262.467" lengthAdjust="spacingAndGlyphs"
text-anchor="middle" opacity="0">R201</text>
</g>
<path d="M49036 41441
L48943 41507
" />
<path d="M49036 41554
L48839 41554
L48839 41479
L48849 41460
L48858 41451
L48877 41441
L48905 41441
L48924 41451
L48933 41460
L48943 41479
L48943 41554
" />
<path d="M48858 41366
L48849 41357
L48839 41338
L48839 41291
L48849 41272
L48858 41263
L48877 41254
L48896 41254
L48924 41263
L49036 41376
L49036 41254
" />
<path d="M48839 41132
L48839 41113
L48849 41094
L48858 41085
L48877 41076
L48914 41066
L48961 41066
L48999 41076
L49018 41085
L49027 41094
L49036 41113
L49036 41132
L49027 41151
L49018 41160
L48999 41169
L48961 41179
L48914 41179
L48877 41169
L48858 41160
L48849 41151
L48839 41132
" />
<path d="M49036 40879
L49036 40991
" />
<path d="M49036 40935
L48839 40935
L48868 40954
L48886 40972
L48896 40991
" />
</g>
<g style="fill:#848484; fill-opacity:0.0; 
stroke:#848484; stroke-width:59.0551; stroke-opacity:1; 
stroke-linecap:round; stroke-linejoin:round;">
<text x="33917.7" y="21511.8"
textLength="1540.76" font-size="524.934" lengthAdjust="spacingAndGlyphs"
text-anchor="middle" opacity="0">Val**</text>
<path d="M33205 21099
L33336 21493
L33467 21099
" />
<path d="M33767 21493
L33767 21286
L33748 21249
L33711 21230
L33636 21230
L33599 21249
" />
<path d="M33767 21474
L33730 21493
L33636 21493
L33599 21474
L33580 21436
L33580 21399
L33599 21361
L33636 21343
L33730 21343
L33767 21324
" />
<path d="M34011 21493
L33973 21474
L33955 21436
L33955 21099
" />
<path d="M34217 21099
L34217 21193
" />
<path d="M34123 21155
L34217 21193
L34311 21155
" />
<path d="M34161 21268
L34217 21193
L34273 21268
" />
<path d="M34517 21099
L34517 21193
" />
<path d="M34423 21155
L34517 21193
L34611 21155
" />
<path d="M34461 21268
L34517 21193
L34573 21268
" />
<text x="34035.8" y="20252"
textLength="1764.06" font-size="524.934" lengthAdjust="spacingAndGlyphs"
text-anchor="middle" opacity="0">REF**</text>
<path d="M33510 20233
L33379 20045
" />
<path d="M33285 20233
L33285 19839
L33435 19839
L33473 19858
L33492 19877
L33510 19914
L33510 19970
L33492 20008
L33473 20026
L33435 20045
L33285 20045
" />
<path d="M33679 20026
L33810 20026
" />
<path d="M33867 20233
L33679 20233
L33679 19839
L33867 19839
" />
<path d="M34167 20026
L34035 20026
" />
<path d="M34035 20233
L34035 19839
L34223 19839
" />
<path d="M34429 19839
L34429 19933
" />
<path d="M34335 19895
L34429 19933
L34523 19895
" />
<path d="M34373 20008
L34429 19933
L34485 20008
" />
<path d="M34729 19839
L34729 19933
" />
<path d="M34635 19895
L34729 19933
L34823 19895
" />
<path d="M34673 20008
L34729 19933
L34785 20008
" />
<g transform="rotate(-45 49808.6 26088.1)">
<text x="49808.6" y="26284.9"
textLength="1576.58" font-size="524.934" lengthAdjust="spacingAndGlyphs"
text-anchor="middle" opacity="0">Val**</text>
</g>
<path d="M49152 26439
L49523 26624
L49337 26253
" />
<path d="M49828 26320
L49682 26174
L49642 26160
L49603 26174
L49550 26227
L49536 26267
" />
<path d="M49815 26306
L49801 26346
L49735 26412
L49695 26426
L49656 26412
L49629 26386
L49616 26346
L49629 26306
L49695 26240
L49709 26200
" />
<path d="M50000 26147
L49961 26160
L49921 26147
L49682 25909
" />
<path d="M49868 25723
L49934 25789
" />
<path d="M49841 25829
L49934 25789
L49974 25697
" />
<path d="M49947 25882
L49934 25789
L50027 25803
" />
<path d="M50080 25511
L50146 25577
" />
<path d="M50053 25617
L50146 25577
L50186 25484
" />
<path d="M50159 25670
L50146 25577
L50239 25590
" />
<g transform="rotate(-45 49001.2 25113.7)">
<text x="49001.2" y="25310.6"
textLength="1764.06" font-size="524.934" lengthAdjust="spacingAndGlyphs"
text-anchor="middle" opacity="0">REF**</text>
</g>
<path d="M48755 25610
L48530 25571
" />
<path d="M48596 25769
L48318 25491
L48424 25385
L48464 25372
L48490 25372
L48530 25385
L48570 25425
L48583 25465
L48583 25491
L48570 25531
L48464 25637
" />
<path d="M48729 25345
L48822 25252
" />
<path d="M49007 25358
L48875 25491
L48596 25213
L48729 25080
" />
<path d="M49074 25001
L48981 25093
" />
<path d="M49127 25239
L48848 24961
L48981 24828
" />
<path d="M49127 24682
L49193 24749
" />
<path d="M49100 24788
L49193 24749
L49233 24656
" />
<path d="M49206 24841
L49193 24749
L49286 24762
" />
<path d="M49339 24470
L49405 24537
" />
<path d="M49312 24576
L49405 24537
L49445 24444
" />
<path d="M49418 24629
L49405 24537
L49498 24550
" />
<text x="63917.6" y="36511.8"
textLength="1576.58" font-size="524.934" lengthAdjust="spacingAndGlyphs"
text-anchor="middle" opacity="0">Val**</text>
<path d="M63205 36099
L63336 36493
L63467 36099
" />
<path d="M63767 36493
L63767 36286
L63748 36249
L63711 36230
L63636 36230
L63598 36249
" />
<path d="M63767 36474
L63730 36493
L63636 36493
L63598 36474
L63580 36436
L63580 36399
L63598 36361
L63636 36343
L63730 36343
L63767 36324
" />
<path d="M64011 36493
L63973 36474
L63955 36436
L63955 36099
" />
<path d="M64217 36099
L64217 36193
" />
<path d="M64123 36155
L64217 36193
L64311 36155
" />
<path d="M64161 36268
L64217 36193
L64273 36268
" />
<path d="M64517 36099
L64517 36193
" />
<path d="M64423 36155
L64517 36193
L64611 36155
" />
<path d="M64461 36268
L64517 36193
L64573 36268
" />
<text x="64035.7" y="35252"
textLength="1764.06" font-size="524.934" lengthAdjust="spacingAndGlyphs"
text-anchor="middle" opacity="0">REF**</text>
<path d="M63510 35233
L63379 35045
" />
<path d="M63285 35233
L63285 34839
L63435 34839
L63473 34858
L63492 34877
L63510 34914
L63510 34970
L63492 35008
L63473 35026
L63435 35045
L63285 35045
" />
<path d="M63679 35026
L63810 35026
" />
<path d="M63867 35233
L63679 35233
L63679 34839
L63867 34839
" />
<path d="M64166 35026
L64035 35026
" />
<path d="M64035 35233
L64035 34839
L64223 34839
" />
<path d="M64429 34839
L64429 34933
" />
<path d="M64335 34895
L64429 34933
L64523 34895
" />
<path d="M64373 35008
L64429 34933
L64485 35008
" />
<path d="M64729 34839
L64729 34933
" />
<path d="M64635 34895
L64729 34933
L64823 34895
" />
<path d="M64673 35008
L64729 34933
L64785 35008
" />
<g transform="rotate(-45 64808.5 19523.5)">
<text x="64808.5" y="19720.4"
textLength="1576.58" font-size="524.934" lengthAdjust="spacingAndGlyphs"
text-anchor="middle" opacity="0">Val**</text>
</g>
<path d="M64152 19874
L64523 20060
L64337 19689
" />
<path d="M64828 19755
L64682 19609
L64642 19596
L64602 19609
L64549 19662
L64536 19702
" />
<path d="M64815 19742
L64801 19782
L64735 19848
L64695 19861
L64656 19848
L64629 19821
L64616 19782
L64629 19742
L64695 19675
L64709 19636
" />
<path d="M65000 19583
L64960 19596
L64921 19583
L64682 19344
" />
<path d="M64868 19158
L64934 19225
" />
<path d="M64841 19265
L64934 19225
L64974 19132
" />
<path d="M64947 19318
L64934 19225
L65027 19238
" />
<path d="M65080 18946
L65146 19013
" />
<path d="M65053 19052
L65146 19013
L65186 18920
" />
<path d="M65159 19105
L65146 19013
L65239 19026
" />
<g transform="rotate(-45 64001.1 18549.2)">
<text x="64001.1" y="18746"
textLength="1764.06" font-size="524.934" lengthAdjust="spacingAndGlyphs"
text-anchor="middle" opacity="0">REF**</text>
</g>
<path d="M63755 19046
L63530 19006
" />
<path d="M63596 19205
L63318 18926
L63424 18820
L63464 18807
L63490 18807
L63530 18820
L63570 18860
L63583 18900
L63583 18926
L63570 18966
L63464 19072
" />
<path d="M63729 18781
L63822 18688
" />
<path d="M64007 18794
L63875 18926
L63596 18648
L63729 18516
" />
<path d="M64074 18436
L63981 18529
" />
<path d="M64127 18675
L63848 18396
L63981 18264
" />
<path d="M64127 18118
L64193 18184
" />
<path d="M64100 18224
L64193 18184
L64233 18091
" />
<path d="M64206 18277
L64193 18184
L64286 18197
" />
<path d="M64339 17906
L64405 17972
" />
<path d="M64312 18012
L64405 17972
L64445 17879
" />
<path d="M64418 18065
L64405 17972
L64498 17985
" />
<text x="33917.7" y="36511.8"
textLength="1576.58" font-size="524.934" lengthAdjust="spacingAndGlyphs"
text-anchor="middle" opacity="0">Val**</text>
<path d="M33205 36099
L33336 36493
L33467 36099
" />
<path d="M33767 36493
L33767 36286
L33748 36249
L33711 36230
L33636 36230
L33599 36249
" />
<path d="M33767 36474
L33730 36493
L33636 36493
L33599 36474
L33580 36436
L33580 36399
L33599 36361
L33636 36343
L33730 36343
L33767 36324
" />
<path d="M34011 36493
L33973 36474
L33955 36436
L33955 36099
" />
<path d="M34217 36099
L34217 36193
" />
<path d="M34123 36155
L34217 36193
L34311 36155
" />
<path d="M34161 36268
L34217 36193
L34273 36268
" />
<path d="M34517 36099
L34517 36193
" />
<path d="M34423 36155
L34517 36193
L34611 36155
" />
<path d="M34461 36268
L34517 36193
L34573 36268
" />
<text x="34035.8" y="35252"
textLength="1764.06" font-size="524.934" lengthAdjust="spacingAndGlyphs"
text-anchor="middle" opacity="0">REF**</text>
<path d="M33510 35233
L33379 35045
" />
<path d="M33285 35233
L33285 34839
L33435 34839
L33473 34858
L33492 34877
L33510 34914
L33510 34970
L33492 35008
L33473 35026
L33435 35045
L33285 35045
" />
<path d="M33679 35026
L33810 35026
" />
<path d="M33867 35233
L33679 35233
L33679 34839
L33867 34839
" />
<path d="M34167 35026
L34035 35026
" />
<path d="M34035 35233
L34035 34839
L34223 34839
" />
<path d="M34429 34839
L34429 34933
" />
<path d="M34335 34895
L34429 34933
L34523 34895
" />
<path d="M34373 35008
L34429 34933
L34485 35008
" />
<path d="M34729 34839
L34729 34933
" />
<path d="M34635 34895
L34729 34933
L34823 34895
" />
<path d="M34673 35008
L34729 34933
L34785 35008
" />
<g transform="rotate(-90 42720.5 39502)">
<text x="42720.5" y="39698.8"
textLength="4051.27" font-size="524.934" lengthAdjust="spacingAndGlyphs"
text-anchor="middle" opacity="0">PROGRAMMER</text>
</g>
<path d="M42898 41395
L42504 41395
L42504 41245
L42523 41208
L42542 41189
L42579 41170
L42636 41170
L42673 41189
L42692 41208
L42711 41245
L42711 41395
" />
<path d="M42898 40776
L42711 40908
" />
<path d="M42898 41001
L42504 41001
L42504 40851
L42523 40814
L42542 40795
L42579 40776
L42636 40776
L42673 40795
L42692 40814
L42711 40851
L42711 41001
" />
<path d="M42504 40533
L42504 40458
L42523 40420
L42561 40383
L42636 40364
L42767 40364
L42842 40383
L42879 40420
L42898 40458
L42898 40533
L42879 40570
L42842 40608
L42767 40626
L42636 40626
L42561 40608
L42523 40570
L42504 40533
" />
<path d="M42523 39989
L42504 40026
L42504 40083
L42523 40139
L42561 40176
L42598 40195
L42673 40214
L42729 40214
L42804 40195
L42842 40176
L42879 40139
L42898 40083
L42898 40045
L42879 39989
L42861 39970
L42729 39970
L42729 40045
" />
<path d="M42898 39576
L42711 39708
" />
<path d="M42898 39801
L42504 39801
L42504 39651
L42523 39614
L42542 39595
L42579 39576
L42636 39576
L42673 39595
L42692 39614
L42711 39651
L42711 39801
" />
<path d="M42786 39426
L42786 39239
" />
<path d="M42898 39464
L42504 39333
L42898 39202
" />
<path d="M42898 39070
L42504 39070
L42786 38939
L42504 38808
L42898 38808
" />
<path d="M42898 38620
L42504 38620
L42786 38489
L42504 38358
L42898 38358
" />
<path d="M42692 38170
L42692 38039
" />
<path d="M42898 37983
L42898 38170
L42504 38170
L42504 37983
" />
<path d="M42898 37589
L42711 37720
" />
<path d="M42898 37814
L42504 37814
L42504 37664
L42523 37627
L42542 37608
L42579 37589
L42636 37589
L42673 37608
L42692 37627
L42711 37664
L42711 37814
" />
<text x="45114.2" y="39063"
textLength="4444.98" font-size="524.934" lengthAdjust="spacingAndGlyphs"
text-anchor="middle" opacity="0">J_PROG_PORT1</text>
<path d="M43136 38650
L43136 38931
L43117 38988
L43080 39025
L43023 39044
L42986 39044
" />
<path d="M43230 39081
L43529 39081
" />
<path d="M43623 39044
L43623 38650
L43773 38650
L43811 38669
L43829 38688
L43848 38725
L43848 38781
L43829 38819
L43811 38838
L43773 38856
L43623 38856
" />
<path d="M44242 39044
L44111 38856
" />
<path d="M44017 39044
L44017 38650
L44167 38650
L44204 38669
L44223 38688
L44242 38725
L44242 38781
L44223 38819
L44204 38838
L44167 38856
L44017 38856
" />
<path d="M44486 38650
L44561 38650
L44598 38669
L44636 38706
L44654 38781
L44654 38913
L44636 38988
L44598 39025
L44561 39044
L44486 39044
L44448 39025
L44411 38988
L44392 38913
L44392 38781
L44411 38706
L44448 38669
L44486 38650
" />
<path d="M45029 38669
L44992 38650
L44936 38650
L44879 38669
L44842 38706
L44823 38744
L44804 38819
L44804 38875
L44823 38950
L44842 38988
L44879 39025
L44936 39044
L44973 39044
L45029 39025
L45048 39006
L45048 38875
L44973 38875
" />
<path d="M45123 39081
L45423 39081
" />
<path d="M45517 39044
L45517 38650
L45667 38650
L45704 38669
L45723 38688
L45742 38725
L45742 38781
L45723 38819
L45704 38838
L45667 38856
L45517 38856
" />
<path d="M45985 38650
L46060 38650
L46098 38669
L46135 38706
L46154 38781
L46154 38913
L46135 38988
L46098 39025
L46060 39044
L45985 39044
L45948 39025
L45910 38988
L45892 38913
L45892 38781
L45910 38706
L45948 38669
L45985 38650
" />
<path d="M46548 39044
L46417 38856
" />
<path d="M46323 39044
L46323 38650
L46473 38650
L46510 38669
L46529 38688
L46548 38725
L46548 38781
L46529 38819
L46510 38838
L46473 38856
L46323 38856
" />
<path d="M46660 38650
L46885 38650
" />
<path d="M46773 39044
L46773 38650
" />
<path d="M47223 39044
L46998 39044
" />
<path d="M47110 39044
L47110 38650
L47073 38706
L47035 38744
L46998 38763
" />
<text x="40078.7" y="15885.8"
textLength="1145.39" font-size="524.934" lengthAdjust="spacingAndGlyphs"
text-anchor="middle" opacity="0">1uF</text>
<path d="M39844 15867
L39619 15867
" />
<path d="M39731 15867
L39731 15473
L39694 15529
L39656 15567
L39619 15585
" />
<path d="M40181 15604
L40181 15867
" />
<path d="M40013 15604
L40013 15810
L40031 15848
L40069 15867
L40125 15867
L40163 15848
L40181 15829
" />
<path d="M40500 15660
L40369 15660
" />
<path d="M40369 15867
L40369 15473
L40556 15473
" />
</g>
<g style="fill:#848484; fill-opacity:0.0; 
stroke:#848484; stroke-width:31.4961; stroke-opacity:1; 
stroke-linecap:round; stroke-linejoin:round;">
<text x="40078.7" y="15137.8"
textLength="461.098" font-size="262.467" lengthAdjust="spacingAndGlyphs"
text-anchor="middle" opacity="0">C3</text>
<path d="M40045 15109
L40036 15119
L40008 15128
L39989 15128
L39961 15119
L39942 15100
L39933 15081
L39924 15044
L39924 15015
L39933 14978
L39942 14959
L39961 14940
L39989 14931
L40008 14931
L40036 14940
L40045 14950
" />
<path d="M40111 14931
L40233 14931
L40167 15006
L40195 15006
L40214 15015
L40224 15025
L40233 15044
L40233 15090
L40224 15109
L40214 15119
L40195 15128
L40139 15128
L40120 15119
L40111 15109
" />
</g>
<g style="fill:#848484; fill-opacity:0.0; 
stroke:#848484; stroke-width:59.0551; stroke-opacity:1; 
stroke-linecap:round; stroke-linejoin:round;">
<g transform="rotate(-90 35315 14291.3)">
<text x="35315" y="14488.2"
textLength="5215.3" font-size="524.934" lengthAdjust="spacingAndGlyphs"
text-anchor="middle" opacity="0">MCP73831-2-OT</text>
</g>
<path d="M35493 16784
L35099 16784
L35380 16653
L35099 16522
L35493 16522
" />
<path d="M35455 16109
L35474 16128
L35493 16184
L35493 16222
L35474 16278
L35436 16316
L35399 16334
L35324 16353
L35268 16353
L35193 16334
L35155 16316
L35118 16278
L35099 16222
L35099 16184
L35118 16128
L35136 16109
" />
<path d="M35493 15941
L35099 15941
L35099 15791
L35118 15753
L35136 15734
L35174 15716
L35230 15716
L35268 15734
L35286 15753
L35305 15791
L35305 15941
" />
<path d="M35099 15584
L35099 15322
L35493 15491
" />
<path d="M35099 15209
L35099 14966
L35249 15097
L35249 15041
L35268 15003
L35286 14985
L35324 14966
L35418 14966
L35455 14985
L35474 15003
L35493 15041
L35493 15153
L35474 15191
L35455 15209
" />
<path d="M35268 14741
L35249 14778
L35230 14797
L35193 14816
L35174 14816
L35136 14797
L35118 14778
L35099 14741
L35099 14666
L35118 14628
L35136 14610
L35174 14591
L35193 14591
L35230 14610
L35249 14628
L35268 14666
L35268 14741
L35286 14778
L35305 14797
L35343 14816
L35418 14816
L35455 14797
L35474 14778
L35493 14741
L35493 14666
L35474 14628
L35455 14610
L35418 14591
L35343 14591
L35305 14610
L35286 14628
L35268 14666
" />
<path d="M35099 14460
L35099 14216
L35249 14347
L35249 14291
L35268 14253
L35286 14235
L35324 14216
L35418 14216
L35455 14235
L35474 14253
L35493 14291
L35493 14403
L35474 14441
L35455 14460
" />
<path d="M35493 13841
L35493 14066
" />
<path d="M35493 13953
L35099 13953
L35155 13991
L35193 14028
L35211 14066
" />
<path d="M35343 13672
L35343 13372
" />
<path d="M35136 13203
L35118 13185
L35099 13147
L35099 13053
L35118 13016
L35136 12997
L35174 12979
L35211 12979
L35268 12997
L35493 13222
L35493 12979
" />
<path d="M35343 12810
L35343 12510
" />
<path d="M35099 12247
L35099 12172
L35118 12135
L35155 12097
L35230 12079
L35361 12079
L35436 12097
L35474 12135
L35493 12172
L35493 12247
L35474 12285
L35436 12322
L35361 12341
L35230 12341
L35155 12322
L35118 12285
L35099 12247
" />
<path d="M35099 11966
L35099 11741
" />
<path d="M35493 11854
L35099 11854
" />
</g>
<g style="fill:#848484; fill-opacity:0.0; 
stroke:#848484; stroke-width:29.5276; stroke-opacity:1; 
stroke-linecap:round; stroke-linejoin:round;">
<text x="34173.2" y="14389.8"
textLength="1323.49" font-size="262.467" lengthAdjust="spacingAndGlyphs"
text-anchor="middle" opacity="0">U1_BAT1</text>
<path d="M33596 14183
L33596 14342
L33606 14361
L33615 14371
L33634 14380
L33671 14380
L33690 14371
L33699 14361
L33709 14342
L33709 14183
" />
<path d="M33906 14380
L33793 14380
" />
<path d="M33849 14380
L33849 14183
L33831 14211
L33812 14230
L33793 14239
" />
<path d="M33943 14399
L34093 14399
" />
<path d="M34206 14277
L34234 14286
L34243 14296
L34252 14314
L34252 14342
L34243 14361
L34234 14371
L34215 14380
L34140 14380
L34140 14183
L34206 14183
L34224 14192
L34234 14202
L34243 14221
L34243 14239
L34234 14258
L34224 14267
L34206 14277
L34140 14277
" />
<path d="M34327 14324
L34421 14324
" />
<path d="M34309 14380
L34374 14183
L34440 14380
" />
<path d="M34477 14183
L34590 14183
" />
<path d="M34534 14380
L34534 14183
" />
<path d="M34759 14380
L34646 14380
" />
<path d="M34702 14380
L34702 14183
L34684 14211
L34665 14230
L34646 14239
" />
</g>
<g style="fill:#848484; fill-opacity:0.0; 
stroke:#848484; stroke-width:59.0551; stroke-opacity:1; 
stroke-linecap:round; stroke-linejoin:round;">
<text x="27952.8" y="12775.6"
textLength="1481.96" font-size="524.934" lengthAdjust="spacingAndGlyphs"
text-anchor="middle" opacity="0">4u7F</text>
<path d="M27493 12494
L27493 12756
" />
<path d="M27399 12344
L27305 12625
L27549 12625
" />
<path d="M27868 12494
L27868 12756
" />
<path d="M27699 12494
L27699 12700
L27718 12738
L27755 12756
L27812 12756
L27849 12738
L27868 12719
" />
<path d="M28018 12363
L28280 12363
L28112 12756
" />
<path d="M28562 12550
L28430 12550
" />
<path d="M28430 12756
L28430 12363
L28618 12363
" />
</g>
<g style="fill:#848484; fill-opacity:0.0; 
stroke:#848484; stroke-width:31.4961; stroke-opacity:1; 
stroke-linecap:round; stroke-linejoin:round;">
<text x="27952.8" y="13326.8"
textLength="461.098" font-size="262.467" lengthAdjust="spacingAndGlyphs"
text-anchor="middle" opacity="0">C2</text>
<path d="M27919 13298
L27910 13308
L27882 13317
L27863 13317
L27835 13308
L27816 13289
L27807 13270
L27798 13233
L27798 13204
L27807 13167
L27816 13148
L27835 13129
L27863 13120
L27882 13120
L27910 13129
L27919 13139
" />
<path d="M27994 13139
L28004 13129
L28023 13120
L28069 13120
L28088 13129
L28098 13139
L28107 13158
L28107 13176
L28098 13204
L27985 13317
L28107 13317
" />
</g>
<g style="fill:#848484; fill-opacity:0.0; 
stroke:#848484; stroke-width:59.0551; stroke-opacity:1; 
stroke-linecap:round; stroke-linejoin:round;">
<text x="33708.7" y="11791.3"
textLength="1859.47" font-size="524.934" lengthAdjust="spacingAndGlyphs"
text-anchor="middle" opacity="0">READY</text>
<path d="M33118 11772
L32986 11585
" />
<path d="M32893 11772
L32893 11378
L33043 11378
L33080 11397
L33099 11416
L33118 11453
L33118 11510
L33099 11547
L33080 11566
L33043 11585
L32893 11585
" />
<path d="M33286 11566
L33418 11566
" />
<path d="M33474 11772
L33286 11772
L33286 11378
L33474 11378
" />
<path d="M33624 11660
L33811 11660
" />
<path d="M33586 11772
L33718 11378
L33849 11772
" />
<path d="M33980 11772
L33980 11378
L34074 11378
L34130 11397
L34167 11435
L34186 11472
L34205 11547
L34205 11603
L34186 11678
L34167 11716
L34130 11753
L34074 11772
L33980 11772
" />
<path d="M34449 11585
L34449 11772
" />
<path d="M34317 11378
L34449 11585
L34580 11378
" />
</g>
<g style="fill:#848484; fill-opacity:0.0; 
stroke:#848484; stroke-width:31.4961; stroke-opacity:1; 
stroke-linecap:round; stroke-linejoin:round;">
<text x="33708.7" y="11043.3"
textLength="461.098" font-size="262.467" lengthAdjust="spacingAndGlyphs"
text-anchor="middle" opacity="0">D2</text>
<path d="M33563 11033
L33563 10837
L33610 10837
L33638 10846
L33657 10865
L33666 10883
L33675 10921
L33675 10949
L33666 10987
L33657 11005
L33638 11024
L33610 11033
L33563 11033
" />
<path d="M33750 10855
L33760 10846
L33778 10837
L33825 10837
L33844 10846
L33853 10855
L33863 10874
L33863 10893
L33853 10921
L33741 11033
L33863 11033
" />
</g>
<g style="fill:#848484; fill-opacity:0.0; 
stroke:#848484; stroke-width:59.0551; stroke-opacity:1; 
stroke-linecap:round; stroke-linejoin:round;">
<text x="33700.8" y="11476.4"
textLength="2328.16" font-size="524.934" lengthAdjust="spacingAndGlyphs"
text-anchor="middle" opacity="0">CHARGE</text>
<path d="M32875 11420
L32857 11438
L32800 11457
L32763 11457
L32707 11438
L32669 11401
L32650 11363
L32632 11288
L32632 11232
L32650 11157
L32669 11120
L32707 11082
L32763 11063
L32800 11063
L32857 11082
L32875 11101
" />
<path d="M33044 11457
L33044 11063
" />
<path d="M33044 11251
L33269 11251
" />
<path d="M33269 11457
L33269 11063
" />
<path d="M33438 11345
L33625 11345
" />
<path d="M33400 11457
L33532 11063
L33663 11457
" />
<path d="M34019 11457
L33888 11270
" />
<path d="M33794 11457
L33794 11063
L33944 11063
L33982 11082
L34000 11101
L34019 11138
L34019 11195
L34000 11232
L33982 11251
L33944 11270
L33794 11270
" />
<path d="M34394 11082
L34356 11063
L34300 11063
L34244 11082
L34206 11120
L34188 11157
L34169 11232
L34169 11288
L34188 11363
L34206 11401
L34244 11438
L34300 11457
L34338 11457
L34394 11438
L34413 11420
L34413 11288
L34338 11288
" />
<path d="M34581 11251
L34713 11251
" />
<path d="M34769 11457
L34581 11457
L34581 11063
L34769 11063
" />
</g>
<g style="fill:#848484; fill-opacity:0.0; 
stroke:#848484; stroke-width:31.4961; stroke-opacity:1; 
stroke-linecap:round; stroke-linejoin:round;">
<text x="33700.8" y="12027.6"
textLength="461.098" font-size="262.467" lengthAdjust="spacingAndGlyphs"
text-anchor="middle" opacity="0">D1</text>
<path d="M33555 12018
L33555 11821
L33602 11821
L33630 11830
L33649 11849
L33658 11868
L33667 11905
L33667 11933
L33658 11971
L33649 11990
L33630 12008
L33602 12018
L33555 12018
" />
<path d="M33855 12018
L33742 12018
" />
<path d="M33799 12018
L33799 11821
L33780 11849
L33761 11868
L33742 11877
" />
</g>
<g style="fill:#848484; fill-opacity:0.0; 
stroke:#848484; stroke-width:59.0551; stroke-opacity:1; 
stroke-linecap:round; stroke-linejoin:round;">
<g transform="rotate(-90 34901.6 14227.4)">
<text x="34901.6" y="14424.2"
textLength="734.608" font-size="524.934" lengthAdjust="spacingAndGlyphs"
text-anchor="middle" opacity="0">2k</text>
</g>
<path d="M34723 14499
L34704 14480
L34685 14442
L34685 14349
L34704 14311
L34723 14292
L34760 14274
L34798 14274
L34854 14292
L35079 14517
L35079 14274
" />
<path d="M35079 14105
L34685 14105
" />
<path d="M34929 14068
L35079 13955
" />
<path d="M34817 13955
L34967 14105
" />
</g>
<g style="fill:#848484; fill-opacity:0.0; 
stroke:#848484; stroke-width:31.4961; stroke-opacity:1; 
stroke-linecap:round; stroke-linejoin:round;">
<g transform="rotate(-90 35551.2 14227.4)">
<text x="35551.2" y="14325.8"
textLength="461.098" font-size="262.467" lengthAdjust="spacingAndGlyphs"
text-anchor="middle" opacity="0">R1</text>
</g>
<path d="M35640 14260
L35546 14325
" />
<path d="M35640 14372
L35443 14372
L35443 14297
L35452 14278
L35462 14269
L35480 14260
L35508 14260
L35527 14269
L35537 14278
L35546 14297
L35546 14372
" />
<path d="M35640 14072
L35640 14185
" />
<path d="M35640 14128
L35443 14128
L35471 14147
L35490 14166
L35499 14185
" />
</g>
<g style="fill:#848484; fill-opacity:0.0; 
stroke:#848484; stroke-width:59.0551; stroke-opacity:1; 
stroke-linecap:round; stroke-linejoin:round;">
<text x="32165.4" y="12775.6"
textLength="2703.11" font-size="524.934" lengthAdjust="spacingAndGlyphs"
text-anchor="middle" opacity="0">470 ohm</text>
<path d="M31096 12494
L31096 12756
" />
<path d="M31002 12344
L30909 12625
L31152 12625
" />
<path d="M31265 12363
L31527 12363
L31359 12756
" />
<path d="M31752 12363
L31790 12363
L31827 12381
L31846 12400
L31865 12438
L31884 12513
L31884 12606
L31865 12681
L31846 12719
L31827 12738
L31790 12756
L31752 12756
L31715 12738
L31696 12719
L31677 12681
L31659 12606
L31659 12513
L31677 12438
L31696 12400
L31715 12381
L31752 12363
" />
<path d="M32409 12756
L32371 12738
L32352 12719
L32334 12681
L32334 12569
L32352 12531
L32371 12513
L32409 12494
L32465 12494
L32502 12513
L32521 12531
L32540 12569
L32540 12681
L32521 12719
L32502 12738
L32465 12756
L32409 12756
" />
<path d="M32709 12756
L32709 12363
" />
<path d="M32877 12756
L32877 12550
L32859 12513
L32821 12494
L32765 12494
L32727 12513
L32709 12531
" />
<path d="M33065 12756
L33065 12494
" />
<path d="M33065 12531
L33083 12513
L33121 12494
L33177 12494
L33215 12513
L33233 12550
L33233 12756
" />
<path d="M33233 12550
L33252 12513
L33290 12494
L33346 12494
L33383 12513
L33402 12550
L33402 12756
" />
</g>
<g style="fill:#848484; fill-opacity:0.0; 
stroke:#848484; stroke-width:31.4961; stroke-opacity:1; 
stroke-linecap:round; stroke-linejoin:round;">
<text x="32165.4" y="12027.6"
textLength="461.098" font-size="262.467" lengthAdjust="spacingAndGlyphs"
text-anchor="middle" opacity="0">R2</text>
<path d="M32132 12018
L32066 11924
" />
<path d="M32020 12018
L32020 11821
L32095 11821
L32113 11830
L32123 11840
L32132 11858
L32132 11886
L32123 11905
L32113 11915
L32095 11924
L32020 11924
" />
<path d="M32207 11840
L32216 11830
L32235 11821
L32282 11821
L32301 11830
L32310 11840
L32320 11858
L32320 11877
L32310 11905
L32198 12018
L32320 12018
" />
</g>
<g style="fill:#848484; fill-opacity:0.0; 
stroke:#848484; stroke-width:59.0551; stroke-opacity:1; 
stroke-linecap:round; stroke-linejoin:round;">
<text x="32150.6" y="10492.1"
textLength="2703.11" font-size="524.934" lengthAdjust="spacingAndGlyphs"
text-anchor="middle" opacity="0">470 ohm</text>
<path d="M31081 10210
L31081 10473
" />
<path d="M30988 10060
L30894 10342
L31138 10342
" />
<path d="M31250 10079
L31513 10079
L31344 10473
" />
<path d="M31738 10079
L31775 10079
L31813 10098
L31831 10117
L31850 10154
L31869 10229
L31869 10323
L31850 10398
L31831 10435
L31813 10454
L31775 10473
L31738 10473
L31700 10454
L31681 10435
L31663 10398
L31644 10323
L31644 10229
L31663 10154
L31681 10117
L31700 10098
L31738 10079
" />
<path d="M32394 10473
L32356 10454
L32338 10435
L32319 10398
L32319 10285
L32338 10248
L32356 10229
L32394 10210
L32450 10210
L32488 10229
L32506 10248
L32525 10285
L32525 10398
L32506 10435
L32488 10454
L32450 10473
L32394 10473
" />
<path d="M32694 10473
L32694 10079
" />
<path d="M32863 10473
L32863 10267
L32844 10229
L32806 10210
L32750 10210
L32713 10229
L32694 10248
" />
<path d="M33050 10473
L33050 10210
" />
<path d="M33050 10248
L33069 10229
L33106 10210
L33162 10210
L33200 10229
L33219 10267
L33219 10473
" />
<path d="M33219 10267
L33237 10229
L33275 10210
L33331 10210
L33369 10229
L33387 10267
L33387 10473
" />
</g>
<g style="fill:#848484; fill-opacity:0.0; 
stroke:#848484; stroke-width:31.4961; stroke-opacity:1; 
stroke-linecap:round; stroke-linejoin:round;">
<text x="32150.6" y="11043.3"
textLength="461.098" font-size="262.467" lengthAdjust="spacingAndGlyphs"
text-anchor="middle" opacity="0">R3</text>
<path d="M32117 11033
L32052 10940
" />
<path d="M32005 11033
L32005 10837
L32080 10837
L32099 10846
L32108 10855
L32117 10874
L32117 10902
L32108 10921
L32099 10930
L32080 10940
L32005 10940
" />
<path d="M32183 10837
L32305 10837
L32239 10912
L32267 10912
L32286 10921
L32295 10930
L32305 10949
L32305 10996
L32295 11015
L32286 11024
L32267 11033
L32211 11033
L32192 11024
L32183 11015
" />
</g>
<g style="fill:#848484; fill-opacity:0.0; 
stroke:#848484; stroke-width:59.0551; stroke-opacity:1; 
stroke-linecap:round; stroke-linejoin:round;">
<text x="40078.7" y="14311"
textLength="1484.51" font-size="524.934" lengthAdjust="spacingAndGlyphs"
text-anchor="middle" opacity="0">100k</text>
<path d="M39656 14292
L39431 14292
" />
<path d="M39544 14292
L39544 13898
L39506 13954
L39469 13992
L39431 14011
" />
<path d="M39900 13898
L39938 13898
L39975 13917
L39994 13936
L40013 13973
L40031 14048
L40031 14142
L40013 14217
L39994 14254
L39975 14273
L39938 14292
L39900 14292
L39863 14273
L39844 14254
L39825 14217
L39806 14142
L39806 14048
L39825 13973
L39844 13936
L39863 13917
L39900 13898
" />
<path d="M40275 13898
L40313 13898
L40350 13917
L40369 13936
L40388 13973
L40406 14048
L40406 14142
L40388 14217
L40369 14254
L40350 14273
L40313 14292
L40275 14292
L40238 14273
L40219 14254
L40200 14217
L40181 14142
L40181 14048
L40200 13973
L40219 13936
L40238 13917
L40275 13898
" />
<path d="M40575 14292
L40575 13898
" />
<path d="M40613 14142
L40725 14292
" />
<path d="M40725 14029
L40575 14179
" />
</g>
<g style="fill:#848484; fill-opacity:0.0; 
stroke:#848484; stroke-width:31.4961; stroke-opacity:1; 
stroke-linecap:round; stroke-linejoin:round;">
<text x="40078.7" y="13563"
textLength="461.098" font-size="262.467" lengthAdjust="spacingAndGlyphs"
text-anchor="middle" opacity="0">R4</text>
<path d="M40045 13553
L39980 13459
" />
<path d="M39933 13553
L39933 13356
L40008 13356
L40027 13366
L40036 13375
L40045 13394
L40045 13422
L40036 13441
L40027 13450
L40008 13459
L39933 13459
" />
<path d="M40214 13422
L40214 13553
" />
<path d="M40167 13347
L40120 13488
L40242 13488
" />
</g>
<g style="fill:#848484; fill-opacity:0.0; 
stroke:#848484; stroke-width:59.0551; stroke-opacity:1; 
stroke-linecap:round; stroke-linejoin:round;">
<text x="39921.3" y="9564.96"
textLength="4821.6" font-size="524.934" lengthAdjust="spacingAndGlyphs"
text-anchor="middle" opacity="0">Switch_SW_SPDT</text>
<path d="M37605 9527
L37662 9546
L37755 9546
L37793 9527
L37812 9508
L37830 9471
L37830 9433
L37812 9396
L37793 9377
L37755 9358
L37680 9339
L37643 9321
L37624 9302
L37605 9264
L37605 9227
L37624 9190
L37643 9171
L37680 9152
L37774 9152
L37830 9171
" />
<path d="M37962 9283
L38037 9546
L38112 9358
L38187 9546
L38262 9283
" />
<path d="M38412 9546
L38412 9283
" />
<path d="M38412 9152
L38393 9171
L38412 9190
L38430 9171
L38412 9152
L38412 9190
" />
<path d="M38543 9283
L38693 9283
" />
<path d="M38599 9152
L38599 9489
L38618 9527
L38655 9546
L38693 9546
" />
<path d="M38993 9527
L38955 9546
L38880 9546
L38843 9527
L38824 9508
L38805 9471
L38805 9358
L38824 9321
L38843 9302
L38880 9283
L38955 9283
L38993 9302
" />
<path d="M39161 9546
L39161 9152
" />
<path d="M39330 9546
L39330 9339
L39311 9302
L39274 9283
L39218 9283
L39180 9302
L39161 9321
" />
<path d="M39424 9583
L39724 9583
" />
<path d="M39799 9527
L39855 9546
L39949 9546
L39986 9527
L40005 9508
L40024 9471
L40024 9433
L40005 9396
L39986 9377
L39949 9358
L39874 9339
L39836 9321
L39818 9302
L39799 9264
L39799 9227
L39818 9190
L39836 9171
L39874 9152
L39968 9152
L40024 9171
" />
<path d="M40155 9152
L40249 9546
L40324 9264
L40399 9546
L40493 9152
" />
<path d="M40549 9583
L40849 9583
" />
<path d="M40924 9527
L40980 9546
L41074 9546
L41111 9527
L41130 9508
L41149 9471
L41149 9433
L41130 9396
L41111 9377
L41074 9358
L40999 9339
L40961 9321
L40943 9302
L40924 9264
L40924 9227
L40943 9190
L40961 9171
L40999 9152
L41092 9152
L41149 9171
" />
<path d="M41317 9546
L41317 9152
L41467 9152
L41505 9171
L41524 9190
L41542 9227
L41542 9283
L41524 9321
L41505 9339
L41467 9358
L41317 9358
" />
<path d="M41711 9546
L41711 9152
L41805 9152
L41861 9171
L41899 9208
L41917 9246
L41936 9321
L41936 9377
L41917 9452
L41899 9489
L41861 9527
L41805 9546
L41711 9546
" />
<path d="M42049 9152
L42274 9152
" />
<path d="M42161 9546
L42161 9152
" />
<text x="39921.3" y="12498"
textLength="4070.02" font-size="524.934" lengthAdjust="spacingAndGlyphs"
text-anchor="middle" opacity="0">POWER_LEFT1</text>
<path d="M38018 12479
L38018 12085
L38168 12085
L38205 12104
L38224 12123
L38243 12160
L38243 12216
L38224 12254
L38205 12273
L38168 12291
L38018 12291
" />
<path d="M38487 12085
L38562 12085
L38599 12104
L38637 12141
L38655 12216
L38655 12348
L38637 12423
L38599 12460
L38562 12479
L38487 12479
L38449 12460
L38412 12423
L38393 12348
L38393 12216
L38412 12141
L38449 12104
L38487 12085
" />
<path d="M38787 12085
L38880 12479
L38955 12198
L39030 12479
L39124 12085
" />
<path d="M39274 12273
L39405 12273
" />
<path d="M39461 12479
L39274 12479
L39274 12085
L39461 12085
" />
<path d="M39855 12479
L39724 12291
" />
<path d="M39630 12479
L39630 12085
L39780 12085
L39818 12104
L39836 12123
L39855 12160
L39855 12216
L39836 12254
L39818 12273
L39780 12291
L39630 12291
" />
<path d="M39930 12516
L40230 12516
" />
<path d="M40511 12479
L40324 12479
L40324 12085
" />
<path d="M40643 12273
L40774 12273
" />
<path d="M40830 12479
L40643 12479
L40643 12085
L40830 12085
" />
<path d="M41130 12273
L40999 12273
" />
<path d="M40999 12479
L40999 12085
L41186 12085
" />
<path d="M41280 12085
L41505 12085
" />
<path d="M41392 12479
L41392 12085
" />
<path d="M41842 12479
L41617 12479
" />
<path d="M41730 12479
L41730 12085
L41692 12141
L41655 12179
L41617 12198
" />
<g transform="rotate(-90 35885.8 14227.4)">
<text x="35885.8" y="14424.2"
textLength="1520.34" font-size="524.934" lengthAdjust="spacingAndGlyphs"
text-anchor="middle" opacity="0">4u7F</text>
</g>
<path d="M35801 14686
L36063 14686
" />
<path d="M35651 14780
L35932 14874
L35932 14630
" />
<path d="M35801 14311
L36063 14311
" />
<path d="M35801 14480
L36007 14480
L36045 14461
L36063 14424
L36063 14367
L36045 14330
L36026 14311
" />
<path d="M35670 14161
L35670 13899
L36063 14068
" />
<path d="M35857 13618
L35857 13749
" />
<path d="M36063 13749
L35670 13749
L35670 13561
" />
</g>
<g style="fill:#848484; fill-opacity:0.0; 
stroke:#848484; stroke-width:31.4961; stroke-opacity:1; 
stroke-linecap:round; stroke-linejoin:round;">
<g transform="rotate(-90 36535.4 14227.4)">
<text x="36535.4" y="14325.8"
textLength="461.098" font-size="262.467" lengthAdjust="spacingAndGlyphs"
text-anchor="middle" opacity="0">C1</text>
</g>
<path d="M36605 14260
L36615 14269
L36624 14297
L36624 14316
L36615 14344
L36596 14363
L36577 14372
L36540 14382
L36511 14382
L36474 14372
L36455 14363
L36437 14344
L36427 14316
L36427 14297
L36437 14269
L36446 14260
" />
<path d="M36624 14072
L36624 14185
" />
<path d="M36624 14128
L36427 14128
L36455 14147
L36474 14166
L36483 14185
" />
</g>
<g style="fill:#848484; fill-opacity:0.0; 
stroke:#848484; stroke-width:59.0551; stroke-opacity:1; 
stroke-linecap:round; stroke-linejoin:round;">
<text x="44409.4" y="11948.8"
textLength="1109.56" font-size="524.934" lengthAdjust="spacingAndGlyphs"
text-anchor="middle" opacity="0">1uF</text>
<path d="M44175 11930
L43950 11930
" />
<path d="M44062 11930
L44062 11536
L44025 11592
L43987 11630
L43950 11648
" />
<path d="M44512 11667
L44512 11930
" />
<path d="M44343 11667
L44343 11873
L44362 11911
L44400 11930
L44456 11930
L44493 11911
L44512 11892
" />
<path d="M44831 11723
L44700 11723
" />
<path d="M44700 11930
L44700 11536
L44887 11536
" />
</g>
<g style="fill:#848484; fill-opacity:0.0; 
stroke:#848484; stroke-width:31.4961; stroke-opacity:1; 
stroke-linecap:round; stroke-linejoin:round;">
<text x="44409.4" y="11200.8"
textLength="461.098" font-size="262.467" lengthAdjust="spacingAndGlyphs"
text-anchor="middle" opacity="0">C4</text>
<path d="M44376 11172
L44367 11182
L44339 11191
L44320 11191
L44292 11182
L44273 11163
L44264 11144
L44254 11107
L44254 11078
L44264 11041
L44273 11022
L44292 11003
L44320 10994
L44339 10994
L44367 11003
L44376 11013
" />
<path d="M44545 11060
L44545 11191
" />
<path d="M44498 10985
L44451 11125
L44573 11125
" />
</g>
<g style="fill:#848484; fill-opacity:0.0; 
stroke:#848484; stroke-width:59.0551; stroke-opacity:1; 
stroke-linecap:round; stroke-linejoin:round;">
<text x="42755.9" y="10649.6"
textLength="1109.56" font-size="524.934" lengthAdjust="spacingAndGlyphs"
text-anchor="middle" opacity="0">1uF</text>
<path d="M42521 10630
L42296 10630
" />
<path d="M42409 10630
L42409 10237
L42371 10293
L42334 10330
L42296 10349
" />
<path d="M42859 10368
L42859 10630
" />
<path d="M42690 10368
L42690 10574
L42709 10612
L42746 10630
L42802 10630
L42840 10612
L42859 10593
" />
<path d="M43177 10424
L43046 10424
" />
<path d="M43046 10630
L43046 10237
L43233 10237
" />
</g>
<g style="fill:#848484; fill-opacity:0.0; 
stroke:#848484; stroke-width:31.4961; stroke-opacity:1; 
stroke-linecap:round; stroke-linejoin:round;">
<text x="42755.9" y="11200.8"
textLength="461.098" font-size="262.467" lengthAdjust="spacingAndGlyphs"
text-anchor="middle" opacity="0">C5</text>
<path d="M42723 11172
L42713 11182
L42685 11191
L42666 11191
L42638 11182
L42619 11163
L42610 11144
L42601 11107
L42601 11078
L42610 11041
L42619 11022
L42638 11003
L42666 10994
L42685 10994
L42713 11003
L42723 11013
" />
<path d="M42901 10994
L42807 10994
L42798 11088
L42807 11078
L42826 11069
L42873 11069
L42891 11078
L42901 11088
L42910 11107
L42910 11153
L42901 11172
L42891 11182
L42873 11191
L42826 11191
L42807 11182
L42798 11172
" />
</g>
<g style="fill:#848484; fill-opacity:0.0; 
stroke:#848484; stroke-width:59.0551; stroke-opacity:1; 
stroke-linecap:round; stroke-linejoin:round;">
<text x="36378" y="9862.2"
textLength="3790.48" font-size="524.934" lengthAdjust="spacingAndGlyphs"
text-anchor="middle" opacity="0">USB_B_Micro</text>
<path d="M34596 9449
L34596 9768
L34615 9805
L34634 9824
L34671 9843
L34746 9843
L34784 9824
L34803 9805
L34821 9768
L34821 9449
" />
<path d="M34990 9824
L35046 9843
L35140 9843
L35178 9824
L35196 9805
L35215 9768
L35215 9730
L35196 9693
L35178 9674
L35140 9655
L35065 9637
L35028 9618
L35009 9599
L34990 9562
L34990 9524
L35009 9487
L35028 9468
L35065 9449
L35159 9449
L35215 9468
" />
<path d="M35515 9637
L35571 9655
L35590 9674
L35609 9712
L35609 9768
L35590 9805
L35571 9824
L35534 9843
L35384 9843
L35384 9449
L35515 9449
L35553 9468
L35571 9487
L35590 9524
L35590 9562
L35571 9599
L35553 9618
L35515 9637
L35384 9637
" />
<path d="M35684 9880
L35984 9880
" />
<path d="M36209 9637
L36265 9655
L36284 9674
L36302 9712
L36302 9768
L36284 9805
L36265 9824
L36227 9843
L36077 9843
L36077 9449
L36209 9449
L36246 9468
L36265 9487
L36284 9524
L36284 9562
L36265 9599
L36246 9618
L36209 9637
L36077 9637
" />
<path d="M36377 9880
L36677 9880
" />
<path d="M36771 9843
L36771 9449
L36902 9730
L37034 9449
L37034 9843
" />
<path d="M37221 9843
L37221 9580
" />
<path d="M37221 9449
L37202 9468
L37221 9487
L37240 9468
L37221 9449
L37221 9487
" />
<path d="M37577 9824
L37540 9843
L37465 9843
L37427 9824
L37409 9805
L37390 9768
L37390 9655
L37409 9618
L37427 9599
L37465 9580
L37540 9580
L37577 9599
" />
<path d="M37746 9843
L37746 9580
" />
<path d="M37746 9655
L37765 9618
L37784 9599
L37821 9580
L37859 9580
" />
<path d="M38046 9843
L38008 9824
L37990 9805
L37971 9768
L37971 9655
L37990 9618
L38008 9599
L38046 9580
L38102 9580
L38140 9599
L38158 9618
L38177 9655
L38177 9768
L38158 9805
L38140 9824
L38102 9843
L38046 9843
" />
<text x="36378" y="11614.2"
textLength="2738.94" font-size="524.934" lengthAdjust="spacingAndGlyphs"
text-anchor="middle" opacity="0">J1_LEFT1</text>
<path d="M35253 11201
L35253 11482
L35234 11539
L35196 11576
L35140 11595
L35103 11595
" />
<path d="M35646 11595
L35421 11595
" />
<path d="M35534 11595
L35534 11201
L35496 11257
L35459 11295
L35421 11314
" />
<path d="M35721 11632
L36021 11632
" />
<path d="M36302 11595
L36115 11595
L36115 11201
" />
<path d="M36434 11389
L36565 11389
" />
<path d="M36621 11595
L36434 11595
L36434 11201
L36621 11201
" />
<path d="M36921 11389
L36790 11389
" />
<path d="M36790 11595
L36790 11201
L36977 11201
" />
<path d="M37071 11201
L37296 11201
" />
<path d="M37184 11595
L37184 11201
" />
<path d="M37634 11595
L37409 11595
" />
<path d="M37521 11595
L37521 11201
L37484 11257
L37446 11295
L37409 11314
" />
<text x="29990.2" y="10248.8"
textLength="6450.97" font-size="524.934" lengthAdjust="spacingAndGlyphs"
text-anchor="middle" opacity="0">JST CONNECTOR_LEFT</text>
<path d="M27009 9836
L27009 10117
L26990 10173
L26953 10211
L26896 10230
L26859 10230
" />
<path d="M27178 10211
L27234 10230
L27328 10230
L27365 10211
L27384 10192
L27402 10155
L27402 10117
L27384 10080
L27365 10061
L27328 10042
L27253 10023
L27215 10005
L27196 9986
L27178 9948
L27178 9911
L27196 9873
L27215 9855
L27253 9836
L27346 9836
L27402 9855
" />
<path d="M27515 9836
L27740 9836
" />
<path d="M27627 10230
L27627 9836
" />
<path d="M28396 10192
L28377 10211
L28321 10230
L28284 10230
L28227 10211
L28190 10173
L28171 10136
L28152 10061
L28152 10005
L28171 9930
L28190 9892
L28227 9855
L28284 9836
L28321 9836
L28377 9855
L28396 9873
" />
<path d="M28640 9836
L28715 9836
L28752 9855
L28790 9892
L28809 9967
L28809 10098
L28790 10173
L28752 10211
L28715 10230
L28640 10230
L28602 10211
L28565 10173
L28546 10098
L28546 9967
L28565 9892
L28602 9855
L28640 9836
" />
<path d="M28977 10230
L28977 9836
L29202 10230
L29202 9836
" />
<path d="M29390 10230
L29390 9836
L29615 10230
L29615 9836
" />
<path d="M29802 10023
L29933 10023
" />
<path d="M29990 10230
L29802 10230
L29802 9836
L29990 9836
" />
<path d="M30383 10192
L30365 10211
L30308 10230
L30271 10230
L30215 10211
L30177 10173
L30158 10136
L30140 10061
L30140 10005
L30158 9930
L30177 9892
L30215 9855
L30271 9836
L30308 9836
L30365 9855
L30383 9873
" />
<path d="M30496 9836
L30721 9836
" />
<path d="M30608 10230
L30608 9836
" />
<path d="M30927 9836
L31002 9836
L31040 9855
L31077 9892
L31096 9967
L31096 10098
L31077 10173
L31040 10211
L31002 10230
L30927 10230
L30890 10211
L30852 10173
L30833 10098
L30833 9967
L30852 9892
L30890 9855
L30927 9836
" />
<path d="M31489 10230
L31358 10042
" />
<path d="M31265 10230
L31265 9836
L31414 9836
L31452 9855
L31471 9873
L31489 9911
L31489 9967
L31471 10005
L31452 10023
L31414 10042
L31265 10042
" />
<path d="M31564 10267
L31864 10267
" />
<path d="M32146 10230
L31958 10230
L31958 9836
" />
<path d="M32277 10023
L32408 10023
" />
<path d="M32464 10230
L32277 10230
L32277 9836
L32464 9836
" />
<path d="M32764 10023
L32633 10023
" />
<path d="M32633 10230
L32633 9836
L32821 9836
" />
<path d="M32914 9836
L33139 9836
" />
<path d="M33027 10230
L33027 9836
" />
<g transform="rotate(-90 42559.1 12913.4)">
<text x="42559.1" y="13110.2"
textLength="7275.87" font-size="524.934" lengthAdjust="spacingAndGlyphs"
text-anchor="middle" opacity="0">MCP1703A-5002_SOT23</text>
</g>
<path d="M42737 16419
L42343 16419
L42624 16287
L42343 16156
L42737 16156
" />
<path d="M42699 15744
L42718 15763
L42737 15819
L42737 15856
L42718 15913
L42680 15950
L42643 15969
L42568 15988
L42512 15988
L42437 15969
L42399 15950
L42362 15913
L42343 15856
L42343 15819
L42362 15763
L42380 15744
" />
<path d="M42737 15575
L42343 15575
L42343 15425
L42362 15388
L42380 15369
L42418 15350
L42474 15350
L42512 15369
L42530 15388
L42549 15425
L42549 15575
" />
<path d="M42737 14975
L42737 15200
" />
<path d="M42737 15088
L42343 15088
L42399 15125
L42437 15163
L42455 15200
" />
<path d="M42343 14844
L42343 14581
L42737 14750
" />
<path d="M42343 14356
L42343 14319
L42362 14281
L42380 14263
L42418 14244
L42493 14225
L42587 14225
L42662 14244
L42699 14263
L42718 14281
L42737 14319
L42737 14356
L42718 14394
L42699 14413
L42662 14431
L42587 14450
L42493 14450
L42418 14431
L42380 14413
L42362 14394
L42343 14356
" />
<path d="M42343 14094
L42343 13850
L42493 13982
L42493 13925
L42512 13888
L42530 13869
L42568 13850
L42662 13850
L42699 13869
L42718 13888
L42737 13925
L42737 14038
L42718 14075
L42699 14094
" />
<path d="M42624 13700
L42624 13513
" />
<path d="M42737 13738
L42343 13607
L42737 13475
" />
<path d="M42587 13344
L42587 13044
" />
<path d="M42343 12669
L42343 12857
L42530 12875
L42512 12857
L42493 12819
L42493 12725
L42512 12688
L42530 12669
L42568 12650
L42662 12650
L42699 12669
L42718 12688
L42737 12725
L42737 12819
L42718 12857
L42699 12875
" />
<path d="M42343 12407
L42343 12369
L42362 12332
L42380 12313
L42418 12294
L42493 12275
L42587 12275
L42662 12294
L42699 12313
L42718 12332
L42737 12369
L42737 12407
L42718 12444
L42699 12463
L42662 12482
L42587 12500
L42493 12500
L42418 12482
L42380 12463
L42362 12444
L42343 12407
" />
<path d="M42343 12032
L42343 11994
L42362 11957
L42380 11938
L42418 11919
L42493 11901
L42587 11901
L42662 11919
L42699 11938
L42718 11957
L42737 11994
L42737 12032
L42718 12069
L42699 12088
L42662 12107
L42587 12125
L42493 12125
L42418 12107
L42380 12088
L42362 12069
L42343 12032
" />
<path d="M42380 11751
L42362 11732
L42343 11694
L42343 11601
L42362 11563
L42380 11544
L42418 11526
L42455 11526
L42512 11544
L42737 11769
L42737 11526
" />
<path d="M42774 11451
L42774 11151
" />
<path d="M42718 11076
L42737 11019
L42737 10926
L42718 10888
L42699 10869
L42662 10851
L42624 10851
L42587 10869
L42568 10888
L42549 10926
L42530 11001
L42512 11038
L42493 11057
L42455 11076
L42418 11076
L42380 11057
L42362 11038
L42343 11001
L42343 10907
L42362 10851
" />
<path d="M42343 10607
L42343 10532
L42362 10494
L42399 10457
L42474 10438
L42605 10438
L42680 10457
L42718 10494
L42737 10532
L42737 10607
L42718 10644
L42680 10682
L42605 10701
L42474 10701
L42399 10682
L42362 10644
L42343 10607
" />
<path d="M42343 10326
L42343 10101
" />
<path d="M42737 10213
L42343 10213
" />
<path d="M42380 9988
L42362 9970
L42343 9932
L42343 9838
L42362 9801
L42380 9782
L42418 9763
L42455 9763
L42512 9782
L42737 10007
L42737 9763
" />
<path d="M42343 9632
L42343 9388
L42493 9520
L42493 9463
L42512 9426
L42530 9407
L42568 9388
L42662 9388
L42699 9407
L42718 9426
L42737 9463
L42737 9576
L42718 9613
L42699 9632
" />
</g>
<g style="fill:#848484; fill-opacity:0.0; 
stroke:#848484; stroke-width:29.5276; stroke-opacity:1; 
stroke-linecap:round; stroke-linejoin:round;">
<text x="43543.3" y="13011.8"
textLength="470.472" font-size="262.467" lengthAdjust="spacingAndGlyphs"
text-anchor="middle" opacity="0">U1</text>
<path d="M43393 12805
L43393 12964
L43402 12983
L43412 12993
L43430 13002
L43468 13002
L43487 12993
L43496 12983
L43505 12964
L43505 12805
" />
<path d="M43702 13002
L43590 13002
" />
<path d="M43646 13002
L43646 12805
L43627 12833
L43608 12852
L43590 12861
" />
<g >
</g>
</g>
<g style="fill:#000000; fill-opacity:0.0; 
stroke:#000000; stroke-width:29.5276; stroke-opacity:1; 
stroke-linecap:round; stroke-linejoin:round;">
</g>
<g style="fill:#C2C200; fill-opacity:0.0; 
stroke:#C2C200; stroke-width:29.5276; stroke-opacity:1; 
stroke-linecap:round; stroke-linejoin:round;">
</g>
<g style="fill:#C2C200; fill-opacity:0.0; 
stroke:#C2C200; stroke-width:78.7402; stroke-opacity:1; 
stroke-linecap:round; stroke-linejoin:round;">
<path d="M26417 12559
L28661 10314
" />
</g>
<g style="fill:#C2C200; fill-opacity:0.0; 
stroke:#C2C200; stroke-width:59.0551; stroke-opacity:1; 
stroke-linecap:round; stroke-linejoin:round;">
<path d="M41456 42047
L56417 42047
" />
<path d="M56437 42047
L70236 45748
" />
<path d="M27519 42047
L41456 42047
" />
</g>
<g style="fill:#C2C200; fill-opacity:0.0; 
stroke:#C2C200; stroke-width:78.7402; stroke-opacity:1; 
stroke-linecap:round; stroke-linejoin:round;">
<path d="M26417 40944
L27519 42047
" />
</g>
<g style="fill:#C2C200; fill-opacity:0.0; 
stroke:#C2C200; stroke-width:59.0551; stroke-opacity:1; 
stroke-linecap:round; stroke-linejoin:round;">
<path d="M71200 37637
L72125 38700
" />
<path d="M71200 34074
L71200 37637
" />
<path d="M71200 19094
L71200 34074
" />
<path d="M71200 12578
L71200 19094
" />
<path d="M68834 10271
L71200 12598
" />
<path d="M26417 40944
L26417 12578
" />
<path d="M28661 10295
L68838 10275
" />
<path d="M70236 45748
L72125 38700
" />
<g >
</g>
<g >
</g>
<g >
</g>
<g >
</g>
<g >
</g>
<g >
</g>
<g >
</g>
<g >
</g>
<g >
</g>
<g >
</g>
<g >
</g>
<g >
</g>
<g >
</g>
<g >
</g>
<g >
</g>
<g >
</g>
<g >
</g>
<g >
</g>
<g >
</g>
<g >
</g>
<g >
</g>
<g >
</g>
<g >
</g>
<g >
</g>
<g >
</g>
<g >
</g>
<g >
</g>
<g >
</g>
<g >
</g>
<g >
</g>
<g >
</g>
<g >
</g>
<g >
</g>
<g >
</g>
<g >
</g>
<g >
</g>
<g >
</g>
<g >
</g>
<g >
</g>
<g >
</g>
<g >
</g>
<g >
</g>
<g >
</g>
<g >
</g>
<g >
</g>
<g >
</g>
<g >
</g>
<g >
</g>
<g >
</g>
<g >
</g>
<g >
</g>
<g >
</g>
<g >
</g>
<g >
</g>
<g >
</g>
<g >
</g>
<g >
</g>
<g >
</g>
<g >
</g>
<g >
</g>
<g >
</g>
<g >
</g>
<g >
</g>
<g >
</g>
<g >
</g>
<g >
</g>
<g >
</g>
<g >
</g>
<g >
</g>
<g >
</g>
<g >
</g>
<g >
</g>
<g >
</g>
<g >
</g>
<g >
</g>
<g >
</g>
<g >
</g>
<g >
</g>
</g> 
</svg>
