<?xml version="1.0" standalone="no"?>
 <!DOCTYPE svg PUBLIC "-//W3C//DTD SVG 1.1//EN" 
 "http://www.w3.org/Graphics/SVG/1.1/DTD/svg11.dtd"> 
<svg xmlns="http://www.w3.org/2000/svg" version="1.1" 
    width="29.7002cm" height="21.0007cm" viewBox="0 0 116930 82680 ">
<title>SVG Picture created as mini-B_Fab.svg date 2020/05/23 11:48:22 </title>
  <desc>Picture generated by PCBNEW </desc>
<g style="fill:#000000; fill-opacity:1;stroke:#000000; stroke-opacity:1;
stroke-linecap:round; stroke-linejoin:round; "
 transform="translate(0 0) scale(1 1)">
</g>
<g style="fill:#000000; fill-opacity:0.0; 
stroke:#000000; stroke-width:-0.000393701; stroke-opacity:1; 
stroke-linecap:round; stroke-linejoin:round;">
</g>
<g style="fill:#000000; fill-opacity:0.0; 
stroke:#000000; stroke-width:39.3701; stroke-opacity:1; 
stroke-linecap:round; stroke-linejoin:round;">
</g>
<g style="fill:#000000; fill-opacity:0.0; 
stroke:#000000; stroke-width:59.0551; stroke-opacity:1; 
stroke-linecap:round; stroke-linejoin:round;">
<rect x="69685.9" y="65357.2" width="42519.7" height="12598.4" rx="0" />
</g>
<g style="fill:#000000; fill-opacity:0.0; 
stroke:#000000; stroke-width:39.3701; stroke-opacity:1; 
stroke-linecap:round; stroke-linejoin:round;">
</g>
<g style="fill:#000000; fill-opacity:0.0; 
stroke:#000000; stroke-width:59.0551; stroke-opacity:1; 
stroke-linecap:round; stroke-linejoin:round;">
<rect x="3937.01" y="3937.01" width="109056" height="74806" rx="0" />
</g>
<g style="fill:#000000; fill-opacity:0.0; 
stroke:#000000; stroke-width:39.3701; stroke-opacity:1; 
stroke-linecap:round; stroke-linejoin:round;">
</g>
<g style="fill:#000000; fill-opacity:0.0; 
stroke:#000000; stroke-width:59.0551; stroke-opacity:1; 
stroke-linecap:round; stroke-linejoin:round;">
<rect x="4724.41" y="4724.41" width="107481" height="73231.2" rx="0" />
</g>
<g style="fill:#000000; fill-opacity:0.0; 
stroke:#000000; stroke-width:39.3701; stroke-opacity:1; 
stroke-linecap:round; stroke-linejoin:round;">
</g>
<g style="fill:#000000; fill-opacity:0.0; 
stroke:#000000; stroke-width:59.0551; stroke-opacity:1; 
stroke-linecap:round; stroke-linejoin:round;">
<path d="M23622 4724
L23622 3937
" />
</g>
<g style="fill:#000000; fill-opacity:0.0; 
stroke:#000000; stroke-width:39.3701; stroke-opacity:1; 
stroke-linecap:round; stroke-linejoin:round;">
</g>
<g style="fill:#000000; fill-opacity:0.0; 
stroke:#000000; stroke-width:59.0551; stroke-opacity:1; 
stroke-linecap:round; stroke-linejoin:round;">
<path d="M43307 4724
L43307 3937
" />
</g>
<g style="fill:#000000; fill-opacity:0.0; 
stroke:#000000; stroke-width:39.3701; stroke-opacity:1; 
stroke-linecap:round; stroke-linejoin:round;">
</g>
<g style="fill:#000000; fill-opacity:0.0; 
stroke:#000000; stroke-width:59.0551; stroke-opacity:1; 
stroke-linecap:round; stroke-linejoin:round;">
<path d="M62992 4724
L62992 3937
" />
</g>
<g style="fill:#000000; fill-opacity:0.0; 
stroke:#000000; stroke-width:39.3701; stroke-opacity:1; 
stroke-linecap:round; stroke-linejoin:round;">
</g>
<g style="fill:#000000; fill-opacity:0.0; 
stroke:#000000; stroke-width:59.0551; stroke-opacity:1; 
stroke-linecap:round; stroke-linejoin:round;">
<path d="M82677 4724
L82677 3937
" />
</g>
<g style="fill:#000000; fill-opacity:0.0; 
stroke:#000000; stroke-width:39.3701; stroke-opacity:1; 
stroke-linecap:round; stroke-linejoin:round;">
</g>
<g style="fill:#000000; fill-opacity:0.0; 
stroke:#000000; stroke-width:59.0551; stroke-opacity:1; 
stroke-linecap:round; stroke-linejoin:round;">
<path d="M102362 4724
L102362 3937
" />
</g>
<g style="fill:#000000; fill-opacity:0.0; 
stroke:#000000; stroke-width:39.3701; stroke-opacity:1; 
stroke-linecap:round; stroke-linejoin:round;">
</g>
<g style="fill:#000000; fill-opacity:0.0; 
stroke:#000000; stroke-width:59.0551; stroke-opacity:1; 
stroke-linecap:round; stroke-linejoin:round;">
<text x="13779.5" y="4586.61"
textLength="546.494" font-size="682.415" lengthAdjust="spacingAndGlyphs"
text-anchor="start" opacity="0">1</text>
<path d="M14199 4562
L13906 4562
" />
<path d="M14052 4562
L14052 4050
L14004 4123
L13955 4172
L13906 4196
" />
</g>
<g style="fill:#000000; fill-opacity:0.0; 
stroke:#000000; stroke-width:39.3701; stroke-opacity:1; 
stroke-linecap:round; stroke-linejoin:round;">
</g>
<g style="fill:#000000; fill-opacity:0.0; 
stroke:#000000; stroke-width:59.0551; stroke-opacity:1; 
stroke-linecap:round; stroke-linejoin:round;">
<text x="33464.6" y="4586.61"
textLength="546.494" font-size="682.415" lengthAdjust="spacingAndGlyphs"
text-anchor="start" opacity="0">2</text>
<path d="M33591 4099
L33615 4074
L33664 4050
L33786 4050
L33835 4074
L33859 4099
L33884 4147
L33884 4196
L33859 4269
L33567 4562
L33884 4562
" />
</g>
<g style="fill:#000000; fill-opacity:0.0; 
stroke:#000000; stroke-width:39.3701; stroke-opacity:1; 
stroke-linecap:round; stroke-linejoin:round;">
</g>
<g style="fill:#000000; fill-opacity:0.0; 
stroke:#000000; stroke-width:59.0551; stroke-opacity:1; 
stroke-linecap:round; stroke-linejoin:round;">
<text x="53149.6" y="4586.61"
textLength="546.494" font-size="682.415" lengthAdjust="spacingAndGlyphs"
text-anchor="start" opacity="0">3</text>
<path d="M53252 4050
L53569 4050
L53398 4245
L53471 4245
L53520 4269
L53544 4294
L53569 4342
L53569 4464
L53544 4513
L53520 4537
L53471 4562
L53325 4562
L53276 4537
L53252 4513
" />
</g>
<g style="fill:#000000; fill-opacity:0.0; 
stroke:#000000; stroke-width:39.3701; stroke-opacity:1; 
stroke-linecap:round; stroke-linejoin:round;">
</g>
<g style="fill:#000000; fill-opacity:0.0; 
stroke:#000000; stroke-width:59.0551; stroke-opacity:1; 
stroke-linecap:round; stroke-linejoin:round;">
<text x="72834.6" y="4586.61"
textLength="546.494" font-size="682.415" lengthAdjust="spacingAndGlyphs"
text-anchor="start" opacity="0">4</text>
<path d="M73205 4221
L73205 4562
" />
<path d="M73083 4026
L72961 4391
L73278 4391
" />
</g>
<g style="fill:#000000; fill-opacity:0.0; 
stroke:#000000; stroke-width:39.3701; stroke-opacity:1; 
stroke-linecap:round; stroke-linejoin:round;">
</g>
<g style="fill:#000000; fill-opacity:0.0; 
stroke:#000000; stroke-width:59.0551; stroke-opacity:1; 
stroke-linecap:round; stroke-linejoin:round;">
<text x="92519.7" y="4586.61"
textLength="546.494" font-size="682.415" lengthAdjust="spacingAndGlyphs"
text-anchor="start" opacity="0">5</text>
<path d="M92914 4050
L92671 4050
L92646 4294
L92671 4269
L92719 4245
L92841 4245
L92890 4269
L92914 4294
L92939 4342
L92939 4464
L92914 4513
L92890 4537
L92841 4562
L92719 4562
L92671 4537
L92646 4513
" />
</g>
<g style="fill:#000000; fill-opacity:0.0; 
stroke:#000000; stroke-width:39.3701; stroke-opacity:1; 
stroke-linecap:round; stroke-linejoin:round;">
</g>
<g style="fill:#000000; fill-opacity:0.0; 
stroke:#000000; stroke-width:59.0551; stroke-opacity:1; 
stroke-linecap:round; stroke-linejoin:round;">
<text x="112205" y="4586.61"
textLength="546.494" font-size="682.415" lengthAdjust="spacingAndGlyphs"
text-anchor="start" opacity="0">6</text>
<path d="M112575 4050
L112477 4050
L112429 4074
L112404 4099
L112356 4172
L112331 4269
L112331 4464
L112356 4513
L112380 4537
L112429 4562
L112526 4562
L112575 4537
L112599 4513
L112624 4464
L112624 4342
L112599 4294
L112575 4269
L112526 4245
L112429 4245
L112380 4269
L112356 4294
L112331 4342
" />
</g>
<g style="fill:#000000; fill-opacity:0.0; 
stroke:#000000; stroke-width:39.3701; stroke-opacity:1; 
stroke-linecap:round; stroke-linejoin:round;">
</g>
<g style="fill:#000000; fill-opacity:0.0; 
stroke:#000000; stroke-width:59.0551; stroke-opacity:1; 
stroke-linecap:round; stroke-linejoin:round;">
<path d="M23622 77955
L23622 78742
" />
</g>
<g style="fill:#000000; fill-opacity:0.0; 
stroke:#000000; stroke-width:39.3701; stroke-opacity:1; 
stroke-linecap:round; stroke-linejoin:round;">
</g>
<g style="fill:#000000; fill-opacity:0.0; 
stroke:#000000; stroke-width:59.0551; stroke-opacity:1; 
stroke-linecap:round; stroke-linejoin:round;">
<path d="M43307 77955
L43307 78742
" />
</g>
<g style="fill:#000000; fill-opacity:0.0; 
stroke:#000000; stroke-width:39.3701; stroke-opacity:1; 
stroke-linecap:round; stroke-linejoin:round;">
</g>
<g style="fill:#000000; fill-opacity:0.0; 
stroke:#000000; stroke-width:59.0551; stroke-opacity:1; 
stroke-linecap:round; stroke-linejoin:round;">
<path d="M62992 77955
L62992 78742
" />
</g>
<g style="fill:#000000; fill-opacity:0.0; 
stroke:#000000; stroke-width:39.3701; stroke-opacity:1; 
stroke-linecap:round; stroke-linejoin:round;">
</g>
<g style="fill:#000000; fill-opacity:0.0; 
stroke:#000000; stroke-width:59.0551; stroke-opacity:1; 
stroke-linecap:round; stroke-linejoin:round;">
<path d="M82677 77955
L82677 78742
" />
</g>
<g style="fill:#000000; fill-opacity:0.0; 
stroke:#000000; stroke-width:39.3701; stroke-opacity:1; 
stroke-linecap:round; stroke-linejoin:round;">
</g>
<g style="fill:#000000; fill-opacity:0.0; 
stroke:#000000; stroke-width:59.0551; stroke-opacity:1; 
stroke-linecap:round; stroke-linejoin:round;">
<path d="M102362 77955
L102362 78742
" />
</g>
<g style="fill:#000000; fill-opacity:0.0; 
stroke:#000000; stroke-width:39.3701; stroke-opacity:1; 
stroke-linecap:round; stroke-linejoin:round;">
</g>
<g style="fill:#000000; fill-opacity:0.0; 
stroke:#000000; stroke-width:59.0551; stroke-opacity:1; 
stroke-linecap:round; stroke-linejoin:round;">
<text x="13779.5" y="78605.2"
textLength="546.494" font-size="682.415" lengthAdjust="spacingAndGlyphs"
text-anchor="start" opacity="0">1</text>
<path d="M14199 78580
L13906 78580
" />
<path d="M14052 78580
L14052 78069
L14004 78142
L13955 78190
L13906 78215
" />
</g>
<g style="fill:#000000; fill-opacity:0.0; 
stroke:#000000; stroke-width:39.3701; stroke-opacity:1; 
stroke-linecap:round; stroke-linejoin:round;">
</g>
<g style="fill:#000000; fill-opacity:0.0; 
stroke:#000000; stroke-width:59.0551; stroke-opacity:1; 
stroke-linecap:round; stroke-linejoin:round;">
<text x="33464.6" y="78605.2"
textLength="546.494" font-size="682.415" lengthAdjust="spacingAndGlyphs"
text-anchor="start" opacity="0">2</text>
<path d="M33591 78117
L33615 78093
L33664 78069
L33786 78069
L33835 78093
L33859 78117
L33884 78166
L33884 78215
L33859 78288
L33567 78580
L33884 78580
" />
</g>
<g style="fill:#000000; fill-opacity:0.0; 
stroke:#000000; stroke-width:39.3701; stroke-opacity:1; 
stroke-linecap:round; stroke-linejoin:round;">
</g>
<g style="fill:#000000; fill-opacity:0.0; 
stroke:#000000; stroke-width:59.0551; stroke-opacity:1; 
stroke-linecap:round; stroke-linejoin:round;">
<text x="53149.6" y="78605.2"
textLength="546.494" font-size="682.415" lengthAdjust="spacingAndGlyphs"
text-anchor="start" opacity="0">3</text>
<path d="M53252 78069
L53569 78069
L53398 78263
L53471 78263
L53520 78288
L53544 78312
L53569 78361
L53569 78483
L53544 78532
L53520 78556
L53471 78580
L53325 78580
L53276 78556
L53252 78532
" />
</g>
<g style="fill:#000000; fill-opacity:0.0; 
stroke:#000000; stroke-width:39.3701; stroke-opacity:1; 
stroke-linecap:round; stroke-linejoin:round;">
</g>
<g style="fill:#000000; fill-opacity:0.0; 
stroke:#000000; stroke-width:59.0551; stroke-opacity:1; 
stroke-linecap:round; stroke-linejoin:round;">
<text x="72834.6" y="78605.2"
textLength="546.494" font-size="682.415" lengthAdjust="spacingAndGlyphs"
text-anchor="start" opacity="0">4</text>
<path d="M73205 78239
L73205 78580
" />
<path d="M73083 78044
L72961 78410
L73278 78410
" />
</g>
<g style="fill:#000000; fill-opacity:0.0; 
stroke:#000000; stroke-width:39.3701; stroke-opacity:1; 
stroke-linecap:round; stroke-linejoin:round;">
</g>
<g style="fill:#000000; fill-opacity:0.0; 
stroke:#000000; stroke-width:59.0551; stroke-opacity:1; 
stroke-linecap:round; stroke-linejoin:round;">
<text x="92519.7" y="78605.2"
textLength="546.494" font-size="682.415" lengthAdjust="spacingAndGlyphs"
text-anchor="start" opacity="0">5</text>
<path d="M92914 78069
L92671 78069
L92646 78312
L92671 78288
L92719 78263
L92841 78263
L92890 78288
L92914 78312
L92939 78361
L92939 78483
L92914 78532
L92890 78556
L92841 78580
L92719 78580
L92671 78556
L92646 78532
" />
</g>
<g style="fill:#000000; fill-opacity:0.0; 
stroke:#000000; stroke-width:39.3701; stroke-opacity:1; 
stroke-linecap:round; stroke-linejoin:round;">
</g>
<g style="fill:#000000; fill-opacity:0.0; 
stroke:#000000; stroke-width:59.0551; stroke-opacity:1; 
stroke-linecap:round; stroke-linejoin:round;">
<text x="112205" y="78605.2"
textLength="546.494" font-size="682.415" lengthAdjust="spacingAndGlyphs"
text-anchor="start" opacity="0">6</text>
<path d="M112575 78069
L112477 78069
L112429 78093
L112404 78117
L112356 78190
L112331 78288
L112331 78483
L112356 78532
L112380 78556
L112429 78580
L112526 78580
L112575 78556
L112599 78532
L112624 78483
L112624 78361
L112599 78312
L112575 78288
L112526 78263
L112429 78263
L112380 78288
L112356 78312
L112331 78361
" />
</g>
<g style="fill:#000000; fill-opacity:0.0; 
stroke:#000000; stroke-width:39.3701; stroke-opacity:1; 
stroke-linecap:round; stroke-linejoin:round;">
</g>
<g style="fill:#000000; fill-opacity:0.0; 
stroke:#000000; stroke-width:59.0551; stroke-opacity:1; 
stroke-linecap:round; stroke-linejoin:round;">
<path d="M3937 23622
L4724 23622
" />
</g>
<g style="fill:#000000; fill-opacity:0.0; 
stroke:#000000; stroke-width:39.3701; stroke-opacity:1; 
stroke-linecap:round; stroke-linejoin:round;">
</g>
<g style="fill:#000000; fill-opacity:0.0; 
stroke:#000000; stroke-width:59.0551; stroke-opacity:1; 
stroke-linecap:round; stroke-linejoin:round;">
<path d="M3937 43307
L4724 43307
" />
</g>
<g style="fill:#000000; fill-opacity:0.0; 
stroke:#000000; stroke-width:39.3701; stroke-opacity:1; 
stroke-linecap:round; stroke-linejoin:round;">
</g>
<g style="fill:#000000; fill-opacity:0.0; 
stroke:#000000; stroke-width:59.0551; stroke-opacity:1; 
stroke-linecap:round; stroke-linejoin:round;">
<path d="M3937 62992
L4724 62992
" />
</g>
<g style="fill:#000000; fill-opacity:0.0; 
stroke:#000000; stroke-width:39.3701; stroke-opacity:1; 
stroke-linecap:round; stroke-linejoin:round;">
</g>
<g style="fill:#000000; fill-opacity:0.0; 
stroke:#000000; stroke-width:59.0551; stroke-opacity:1; 
stroke-linecap:round; stroke-linejoin:round;">
<text x="4330.71" y="14035.4"
textLength="497.75" font-size="682.415" lengthAdjust="spacingAndGlyphs"
text-anchor="middle" opacity="0">A</text>
<path d="M4208 13864
L4452 13864
" />
<path d="M4160 14011
L4330 13499
L4501 14011
" />
</g>
<g style="fill:#000000; fill-opacity:0.0; 
stroke:#000000; stroke-width:39.3701; stroke-opacity:1; 
stroke-linecap:round; stroke-linejoin:round;">
</g>
<g style="fill:#000000; fill-opacity:0.0; 
stroke:#000000; stroke-width:59.0551; stroke-opacity:1; 
stroke-linecap:round; stroke-linejoin:round;">
<text x="4330.71" y="33720.5"
textLength="570.866" font-size="682.415" lengthAdjust="spacingAndGlyphs"
text-anchor="middle" opacity="0">B</text>
<path d="M4367 33428
L4440 33452
L4464 33476
L4489 33525
L4489 33598
L4464 33647
L4440 33671
L4391 33696
L4196 33696
L4196 33184
L4367 33184
L4416 33208
L4440 33233
L4464 33281
L4464 33330
L4440 33379
L4416 33403
L4367 33428
L4196 33428
" />
</g>
<g style="fill:#000000; fill-opacity:0.0; 
stroke:#000000; stroke-width:39.3701; stroke-opacity:1; 
stroke-linecap:round; stroke-linejoin:round;">
</g>
<g style="fill:#000000; fill-opacity:0.0; 
stroke:#000000; stroke-width:59.0551; stroke-opacity:1; 
stroke-linecap:round; stroke-linejoin:round;">
<text x="4330.71" y="53405.5"
textLength="570.866" font-size="682.415" lengthAdjust="spacingAndGlyphs"
text-anchor="middle" opacity="0">C</text>
<path d="M4489 53332
L4464 53356
L4391 53381
L4342 53381
L4269 53356
L4221 53308
L4196 53259
L4172 53161
L4172 53088
L4196 52991
L4221 52942
L4269 52893
L4342 52869
L4391 52869
L4464 52893
L4489 52918
" />
</g>
<g style="fill:#000000; fill-opacity:0.0; 
stroke:#000000; stroke-width:39.3701; stroke-opacity:1; 
stroke-linecap:round; stroke-linejoin:round;">
</g>
<g style="fill:#000000; fill-opacity:0.0; 
stroke:#000000; stroke-width:59.0551; stroke-opacity:1; 
stroke-linecap:round; stroke-linejoin:round;">
<text x="4330.71" y="73090.6"
textLength="570.866" font-size="682.415" lengthAdjust="spacingAndGlyphs"
text-anchor="middle" opacity="0">D</text>
<path d="M4196 73066
L4196 72554
L4318 72554
L4391 72578
L4440 72627
L4464 72676
L4489 72773
L4489 72846
L4464 72944
L4440 72993
L4391 73041
L4318 73066
L4196 73066
" />
</g>
<g style="fill:#000000; fill-opacity:0.0; 
stroke:#000000; stroke-width:39.3701; stroke-opacity:1; 
stroke-linecap:round; stroke-linejoin:round;">
</g>
<g style="fill:#000000; fill-opacity:0.0; 
stroke:#000000; stroke-width:59.0551; stroke-opacity:1; 
stroke-linecap:round; stroke-linejoin:round;">
<path d="M112992 23622
L112205 23622
" />
</g>
<g style="fill:#000000; fill-opacity:0.0; 
stroke:#000000; stroke-width:39.3701; stroke-opacity:1; 
stroke-linecap:round; stroke-linejoin:round;">
</g>
<g style="fill:#000000; fill-opacity:0.0; 
stroke:#000000; stroke-width:59.0551; stroke-opacity:1; 
stroke-linecap:round; stroke-linejoin:round;">
<path d="M112992 43307
L112205 43307
" />
</g>
<g style="fill:#000000; fill-opacity:0.0; 
stroke:#000000; stroke-width:39.3701; stroke-opacity:1; 
stroke-linecap:round; stroke-linejoin:round;">
</g>
<g style="fill:#000000; fill-opacity:0.0; 
stroke:#000000; stroke-width:59.0551; stroke-opacity:1; 
stroke-linecap:round; stroke-linejoin:round;">
<path d="M112992 62992
L112205 62992
" />
</g>
<g style="fill:#000000; fill-opacity:0.0; 
stroke:#000000; stroke-width:39.3701; stroke-opacity:1; 
stroke-linecap:round; stroke-linejoin:round;">
</g>
<g style="fill:#000000; fill-opacity:0.0; 
stroke:#000000; stroke-width:59.0551; stroke-opacity:1; 
stroke-linecap:round; stroke-linejoin:round;">
<text x="112599" y="14035.4"
textLength="497.75" font-size="682.415" lengthAdjust="spacingAndGlyphs"
text-anchor="middle" opacity="0">A</text>
<path d="M112477 13864
L112721 13864
" />
<path d="M112428 14011
L112599 13499
L112769 14011
" />
</g>
<g style="fill:#000000; fill-opacity:0.0; 
stroke:#000000; stroke-width:39.3701; stroke-opacity:1; 
stroke-linecap:round; stroke-linejoin:round;">
</g>
<g style="fill:#000000; fill-opacity:0.0; 
stroke:#000000; stroke-width:59.0551; stroke-opacity:1; 
stroke-linecap:round; stroke-linejoin:round;">
<text x="112599" y="33720.5"
textLength="570.866" font-size="682.415" lengthAdjust="spacingAndGlyphs"
text-anchor="middle" opacity="0">B</text>
<path d="M112635 33428
L112708 33452
L112733 33476
L112757 33525
L112757 33598
L112733 33647
L112708 33671
L112660 33696
L112465 33696
L112465 33184
L112635 33184
L112684 33208
L112708 33233
L112733 33281
L112733 33330
L112708 33379
L112684 33403
L112635 33428
L112465 33428
" />
</g>
<g style="fill:#000000; fill-opacity:0.0; 
stroke:#000000; stroke-width:39.3701; stroke-opacity:1; 
stroke-linecap:round; stroke-linejoin:round;">
</g>
<g style="fill:#000000; fill-opacity:0.0; 
stroke:#000000; stroke-width:59.0551; stroke-opacity:1; 
stroke-linecap:round; stroke-linejoin:round;">
<text x="112599" y="53405.5"
textLength="570.866" font-size="682.415" lengthAdjust="spacingAndGlyphs"
text-anchor="middle" opacity="0">C</text>
<path d="M112757 53332
L112733 53356
L112660 53381
L112611 53381
L112538 53356
L112489 53308
L112465 53259
L112440 53161
L112440 53088
L112465 52991
L112489 52942
L112538 52893
L112611 52869
L112660 52869
L112733 52893
L112757 52918
" />
</g>
<g style="fill:#000000; fill-opacity:0.0; 
stroke:#000000; stroke-width:39.3701; stroke-opacity:1; 
stroke-linecap:round; stroke-linejoin:round;">
</g>
<g style="fill:#000000; fill-opacity:0.0; 
stroke:#000000; stroke-width:59.0551; stroke-opacity:1; 
stroke-linecap:round; stroke-linejoin:round;">
<text x="112599" y="73090.6"
textLength="570.866" font-size="682.415" lengthAdjust="spacingAndGlyphs"
text-anchor="middle" opacity="0">D</text>
<path d="M112465 73066
L112465 72554
L112587 72554
L112660 72578
L112708 72627
L112733 72676
L112757 72773
L112757 72846
L112733 72944
L112708 72993
L112660 73041
L112587 73066
L112465 73066
" />
</g>
<g style="fill:#000000; fill-opacity:0.0; 
stroke:#000000; stroke-width:39.3701; stroke-opacity:1; 
stroke-linecap:round; stroke-linejoin:round;">
</g>
<g style="fill:#000000; fill-opacity:0.0; 
stroke:#000000; stroke-width:59.0551; stroke-opacity:1; 
stroke-linecap:round; stroke-linejoin:round;">
<text x="78741" y="76321.7"
textLength="2758.72" font-size="787.402" lengthAdjust="spacingAndGlyphs"
text-anchor="start" opacity="0">Date: </text>
<path d="M78911 76293
L78911 75703
L79051 75703
L79136 75731
L79192 75787
L79220 75843
L79248 75956
L79248 76040
L79220 76153
L79192 76209
L79136 76265
L79051 76293
L78911 76293
" />
<path d="M79754 76293
L79754 75984
L79726 75928
L79670 75899
L79557 75899
L79501 75928
" />
<path d="M79754 76265
L79698 76293
L79557 76293
L79501 76265
L79473 76209
L79473 76153
L79501 76096
L79557 76068
L79698 76068
L79754 76040
" />
<path d="M79951 75899
L80176 75899
" />
<path d="M80036 75703
L80036 76209
L80064 76265
L80120 76293
L80176 76293
" />
<path d="M80598 76265
L80542 76293
L80429 76293
L80373 76265
L80345 76209
L80345 75984
L80373 75928
L80429 75899
L80542 75899
L80598 75928
L80626 75984
L80626 76040
L80345 76096
" />
<path d="M80879 76237
L80907 76265
L80879 76293
L80851 76265
L80879 76237
L80879 76293
" />
<path d="M80879 75928
L80907 75956
L80879 75984
L80851 75956
L80879 75928
L80879 75984
" />
</g>
<g style="fill:#000000; fill-opacity:0.0; 
stroke:#000000; stroke-width:39.3701; stroke-opacity:1; 
stroke-linecap:round; stroke-linejoin:round;">
</g>
<g style="fill:#000000; fill-opacity:0.0; 
stroke:#000000; stroke-width:59.0551; stroke-opacity:1; 
stroke-linecap:round; stroke-linejoin:round;">
<path d="M69685 76577
L112205 76577
" />
</g>
<g style="fill:#000000; fill-opacity:0.0; 
stroke:#000000; stroke-width:39.3701; stroke-opacity:1; 
stroke-linecap:round; stroke-linejoin:round;">
</g>
<g style="fill:#000000; fill-opacity:0.0; 
stroke:#000000; stroke-width:59.0551; stroke-opacity:1; 
stroke-linecap:round; stroke-linejoin:round;">
<text x="70079.6" y="77424.1"
textLength="11448.3" font-size="787.402" lengthAdjust="spacingAndGlyphs"
text-anchor="start" opacity="0">KiCad E.D.A.  kicad 5.1.5</text>
<path d="M70249 77395
L70249 76805
" />
<path d="M70587 77395
L70334 77058
" />
<path d="M70587 76805
L70249 77142
" />
<path d="M70840 77395
L70840 77002
" />
<path d="M70840 76805
L70812 76833
L70840 76861
L70868 76833
L70840 76805
L70840 76861
" />
<path d="M71458 77339
L71430 77367
L71346 77395
L71290 77395
L71205 77367
L71149 77311
L71121 77255
L71093 77142
L71093 77058
L71121 76946
L71149 76889
L71205 76833
L71290 76805
L71346 76805
L71430 76833
L71458 76861
" />
<path d="M71965 77395
L71965 77086
L71937 77030
L71880 77002
L71768 77002
L71712 77030
" />
<path d="M71965 77367
L71908 77395
L71768 77395
L71712 77367
L71683 77311
L71683 77255
L71712 77199
L71768 77171
L71908 77171
L71965 77142
" />
<path d="M72499 77395
L72499 76805
" />
<path d="M72499 77367
L72443 77395
L72330 77395
L72274 77367
L72246 77339
L72218 77283
L72218 77114
L72246 77058
L72274 77030
L72330 77002
L72443 77002
L72499 77030
" />
<path d="M73230 77086
L73427 77086
" />
<path d="M73511 77395
L73230 77395
L73230 76805
L73511 76805
" />
<path d="M73764 77339
L73793 77367
L73764 77395
L73736 77367
L73764 77339
L73764 77395
" />
<path d="M74046 77395
L74046 76805
L74186 76805
L74271 76833
L74327 76889
L74355 76946
L74383 77058
L74383 77142
L74355 77255
L74327 77311
L74271 77367
L74186 77395
L74046 77395
" />
<path d="M74636 77339
L74664 77367
L74636 77395
L74608 77367
L74636 77339
L74636 77395
" />
<path d="M74889 77227
L75171 77227
" />
<path d="M74833 77395
L75030 76805
L75227 77395
" />
<path d="M75424 77339
L75452 77367
L75424 77395
L75395 77367
L75424 77339
L75424 77395
" />
<path d="M76605 77395
L76605 76805
" />
<path d="M76661 77171
L76830 77395
" />
<path d="M76830 77002
L76605 77227
" />
<path d="M77083 77395
L77083 77002
" />
<path d="M77083 76805
L77055 76833
L77083 76861
L77111 76833
L77083 76805
L77083 76861
" />
<path d="M77617 77367
L77561 77395
L77448 77395
L77392 77367
L77364 77339
L77336 77283
L77336 77114
L77364 77058
L77392 77030
L77448 77002
L77561 77002
L77617 77030
" />
<path d="M78123 77395
L78123 77086
L78095 77030
L78039 77002
L77926 77002
L77870 77030
" />
<path d="M78123 77367
L78067 77395
L77926 77395
L77870 77367
L77842 77311
L77842 77255
L77870 77199
L77926 77171
L78067 77171
L78123 77142
" />
<path d="M78658 77395
L78658 76805
" />
<path d="M78658 77367
L78601 77395
L78489 77395
L78433 77367
L78404 77339
L78376 77283
L78376 77114
L78404 77058
L78433 77030
L78489 77002
L78601 77002
L78658 77030
" />
<path d="M79670 76805
L79389 76805
L79361 77086
L79389 77058
L79445 77030
L79586 77030
L79642 77058
L79670 77086
L79698 77142
L79698 77283
L79670 77339
L79642 77367
L79586 77395
L79445 77395
L79389 77367
L79361 77339
" />
<path d="M79951 77339
L79979 77367
L79951 77395
L79923 77367
L79951 77339
L79951 77395
" />
<path d="M80542 77395
L80204 77395
" />
<path d="M80373 77395
L80373 76805
L80317 76889
L80260 76946
L80204 76974
" />
<path d="M80795 77339
L80823 77367
L80795 77395
L80767 77367
L80795 77339
L80795 77395
" />
<path d="M81357 76805
L81076 76805
L81048 77086
L81076 77058
L81132 77030
L81273 77030
L81329 77058
L81357 77086
L81385 77142
L81385 77283
L81357 77339
L81329 77367
L81273 77395
L81132 77395
L81076 77367
L81048 77339
" />
</g>
<g style="fill:#000000; fill-opacity:0.0; 
stroke:#000000; stroke-width:39.3701; stroke-opacity:1; 
stroke-linecap:round; stroke-linejoin:round;">
</g>
<g style="fill:#000000; fill-opacity:0.0; 
stroke:#000000; stroke-width:59.0551; stroke-opacity:1; 
stroke-linecap:round; stroke-linejoin:round;">
<path d="M69685 75396
L112205 75396
" />
</g>
<g style="fill:#000000; fill-opacity:0.0; 
stroke:#000000; stroke-width:39.3701; stroke-opacity:1; 
stroke-linecap:round; stroke-linejoin:round;">
</g>
<g style="fill:#000000; fill-opacity:0.0; 
stroke:#000000; stroke-width:118.11; stroke-opacity:1; 
stroke-linecap:round; stroke-linejoin:round;">
<text x="103544" y="76321.7"
textLength="2336.9" font-size="787.402" lengthAdjust="spacingAndGlyphs"
text-anchor="start" opacity="0">Rev: </text>
<path d="M104099 76293
L103902 76012
" />
<path d="M103761 76293
L103761 75703
L103986 75703
L104042 75731
L104070 75759
L104099 75815
L104099 75899
L104070 75956
L104042 75984
L103986 76012
L103761 76012
" />
<path d="M104577 76265
L104520 76293
L104408 76293
L104352 76265
L104323 76209
L104323 75984
L104352 75928
L104408 75899
L104520 75899
L104577 75928
L104605 75984
L104605 76040
L104323 76096
" />
<path d="M104802 75899
L104942 76293
L105083 75899
" />
<path d="M105308 76237
L105336 76265
L105308 76293
L105280 76265
L105308 76237
L105308 76293
" />
<path d="M105308 75928
L105336 75956
L105308 75984
L105280 75956
L105308 75928
L105308 75984
" />
</g>
<g style="fill:#000000; fill-opacity:0.0; 
stroke:#000000; stroke-width:39.3701; stroke-opacity:1; 
stroke-linecap:round; stroke-linejoin:round;">
</g>
<g style="fill:#000000; fill-opacity:0.0; 
stroke:#000000; stroke-width:59.0551; stroke-opacity:1; 
stroke-linecap:round; stroke-linejoin:round;">
<text x="70079.6" y="76321.7"
textLength="3781.21" font-size="787.402" lengthAdjust="spacingAndGlyphs"
text-anchor="start" opacity="0">Size: A4</text>
<path d="M70221 76265
L70305 76293
L70446 76293
L70502 76265
L70530 76237
L70559 76181
L70559 76124
L70530 76068
L70502 76040
L70446 76012
L70334 75984
L70277 75956
L70249 75928
L70221 75871
L70221 75815
L70249 75759
L70277 75731
L70334 75703
L70474 75703
L70559 75731
" />
<path d="M70812 76293
L70812 75899
" />
<path d="M70812 75703
L70784 75731
L70812 75759
L70840 75731
L70812 75703
L70812 75759
" />
<path d="M71037 75899
L71346 75899
L71037 76293
L71346 76293
" />
<path d="M71796 76265
L71740 76293
L71627 76293
L71571 76265
L71543 76209
L71543 75984
L71571 75928
L71627 75899
L71740 75899
L71796 75928
L71824 75984
L71824 76040
L71543 76096
" />
<path d="M72077 76237
L72105 76265
L72077 76293
L72049 76265
L72077 76237
L72077 76293
" />
<path d="M72077 75928
L72105 75956
L72077 75984
L72049 75956
L72077 75928
L72077 75984
" />
<path d="M72780 76124
L73061 76124
" />
<path d="M72724 76293
L72921 75703
L73118 76293
" />
<path d="M73568 75899
L73568 76293
" />
<path d="M73427 75674
L73286 76096
L73652 76096
" />
</g>
<g style="fill:#000000; fill-opacity:0.0; 
stroke:#000000; stroke-width:39.3701; stroke-opacity:1; 
stroke-linecap:round; stroke-linejoin:round;">
</g>
<g style="fill:#000000; fill-opacity:0.0; 
stroke:#000000; stroke-width:59.0551; stroke-opacity:1; 
stroke-linecap:round; stroke-linejoin:round;">
<text x="103544" y="77424.1"
textLength="3349.27" font-size="787.402" lengthAdjust="spacingAndGlyphs"
text-anchor="start" opacity="0">Id: 1/1</text>
<path d="M103714 77395
L103714 76805
" />
<path d="M104248 77395
L104248 76805
" />
<path d="M104248 77367
L104192 77395
L104079 77395
L104023 77367
L103995 77339
L103967 77283
L103967 77114
L103995 77058
L104023 77030
L104079 77002
L104192 77002
L104248 77030
" />
<path d="M104529 77339
L104557 77367
L104529 77395
L104501 77367
L104529 77339
L104529 77395
" />
<path d="M104529 77030
L104557 77058
L104529 77086
L104501 77058
L104529 77030
L104529 77086
" />
<path d="M105570 77395
L105232 77395
" />
<path d="M105401 77395
L105401 76805
L105345 76889
L105289 76946
L105232 76974
" />
<path d="M106245 76777
L105739 77536
" />
<path d="M106751 77395
L106413 77395
" />
<path d="M106582 77395
L106582 76805
L106526 76889
L106470 76946
L106413 76974
" />
</g>
<g style="fill:#000000; fill-opacity:0.0; 
stroke:#000000; stroke-width:39.3701; stroke-opacity:1; 
stroke-linecap:round; stroke-linejoin:round;">
</g>
<g style="fill:#000000; fill-opacity:0.0; 
stroke:#000000; stroke-width:59.0551; stroke-opacity:1; 
stroke-linecap:round; stroke-linejoin:round;">
<path d="M69685 73821
L112205 73821
" />
</g>
<g style="fill:#000000; fill-opacity:0.0; 
stroke:#000000; stroke-width:39.3701; stroke-opacity:1; 
stroke-linecap:round; stroke-linejoin:round;">
</g>
<g style="fill:#000000; fill-opacity:0.0; 
stroke:#000000; stroke-width:157.48; stroke-opacity:1; 
stroke-linecap:round; stroke-linejoin:round;">
<text x="70079.6" y="74924.1"
textLength="3701.14" font-size="1049.87" lengthAdjust="spacingAndGlyphs"
text-anchor="start" opacity="0">Title: </text>
<path d="M70360 74099
L70810 74099
" />
<path d="M70486 74886
L70585 74099
" />
<path d="M70974 74886
L71039 74361
" />
<path d="M71072 74099
L71030 74136
L71063 74174
L71105 74136
L71072 74099
L71063 74174
" />
<path d="M71302 74361
L71602 74361
" />
<path d="M71447 74099
L71363 74774
L71391 74849
L71461 74886
L71536 74886
" />
<path d="M71911 74886
L71841 74849
L71813 74774
L71897 74099
" />
<path d="M72516 74849
L72436 74886
L72286 74886
L72216 74849
L72187 74774
L72225 74474
L72272 74399
L72352 74361
L72501 74361
L72572 74399
L72600 74474
L72591 74549
L72206 74624
" />
<path d="M72895 74811
L72928 74849
L72886 74886
L72853 74849
L72895 74811
L72886 74886
" />
<path d="M72947 74399
L72980 74436
L72937 74474
L72905 74436
L72947 74399
L72937 74474
" />
</g>
<g style="fill:#000000; fill-opacity:0.0; 
stroke:#000000; stroke-width:39.3701; stroke-opacity:1; 
stroke-linecap:round; stroke-linejoin:round;">
</g>
<g style="fill:#000000; fill-opacity:0.0; 
stroke:#000000; stroke-width:59.0551; stroke-opacity:1; 
stroke-linecap:round; stroke-linejoin:round;">
<text x="70079.6" y="73408.3"
textLength="9062.99" font-size="787.402" lengthAdjust="spacingAndGlyphs"
text-anchor="start" opacity="0">File: mini.kicad_pcb</text>
<path d="M70446 73070
L70249 73070
" />
<path d="M70249 73380
L70249 72789
L70530 72789
" />
<path d="M70755 73380
L70755 72986
" />
<path d="M70755 72789
L70727 72817
L70755 72845
L70784 72817
L70755 72789
L70755 72845
" />
<path d="M71121 73380
L71065 73352
L71037 73295
L71037 72789
" />
<path d="M71571 73352
L71515 73380
L71402 73380
L71346 73352
L71318 73295
L71318 73070
L71346 73014
L71402 72986
L71515 72986
L71571 73014
L71599 73070
L71599 73127
L71318 73183
" />
<path d="M71852 73323
L71880 73352
L71852 73380
L71824 73352
L71852 73323
L71852 73380
" />
<path d="M71852 73014
L71880 73042
L71852 73070
L71824 73042
L71852 73014
L71852 73070
" />
<path d="M72583 73380
L72583 72986
" />
<path d="M72583 73042
L72611 73014
L72668 72986
L72752 72986
L72808 73014
L72836 73070
L72836 73380
" />
<path d="M72836 73070
L72865 73014
L72921 72986
L73005 72986
L73061 73014
L73090 73070
L73090 73380
" />
<path d="M73371 73380
L73371 72986
" />
<path d="M73371 72789
L73343 72817
L73371 72845
L73399 72817
L73371 72789
L73371 72845
" />
<path d="M73652 72986
L73652 73380
" />
<path d="M73652 73042
L73680 73014
L73736 72986
L73821 72986
L73877 73014
L73905 73070
L73905 73380
" />
<path d="M74186 73380
L74186 72986
" />
<path d="M74186 72789
L74158 72817
L74186 72845
L74214 72817
L74186 72789
L74186 72845
" />
<path d="M74467 73323
L74496 73352
L74467 73380
L74439 73352
L74467 73323
L74467 73380
" />
<path d="M74749 73380
L74749 72789
" />
<path d="M74805 73155
L74974 73380
" />
<path d="M74974 72986
L74749 73211
" />
<path d="M75227 73380
L75227 72986
" />
<path d="M75227 72789
L75199 72817
L75227 72845
L75255 72817
L75227 72789
L75227 72845
" />
<path d="M75761 73352
L75705 73380
L75592 73380
L75536 73352
L75508 73323
L75480 73267
L75480 73099
L75508 73042
L75536 73014
L75592 72986
L75705 72986
L75761 73014
" />
<path d="M76267 73380
L76267 73070
L76239 73014
L76183 72986
L76070 72986
L76014 73014
" />
<path d="M76267 73352
L76211 73380
L76070 73380
L76014 73352
L75986 73295
L75986 73239
L76014 73183
L76070 73155
L76211 73155
L76267 73127
" />
<path d="M76802 73380
L76802 72789
" />
<path d="M76802 73352
L76745 73380
L76633 73380
L76577 73352
L76548 73323
L76520 73267
L76520 73099
L76548 73042
L76577 73014
L76633 72986
L76745 72986
L76802 73014
" />
<path d="M76942 73436
L77392 73436
" />
<path d="M77533 72986
L77533 73577
" />
<path d="M77533 73014
L77589 72986
L77701 72986
L77758 73014
L77786 73042
L77814 73099
L77814 73267
L77786 73323
L77758 73352
L77701 73380
L77589 73380
L77533 73352
" />
<path d="M78320 73352
L78264 73380
L78151 73380
L78095 73352
L78067 73323
L78039 73267
L78039 73099
L78067 73042
L78095 73014
L78151 72986
L78264 72986
L78320 73014
" />
<path d="M78573 73380
L78573 72789
" />
<path d="M78573 73014
L78629 72986
L78742 72986
L78798 73014
L78826 73042
L78854 73099
L78854 73267
L78826 73323
L78798 73352
L78742 73380
L78629 73380
L78573 73352
" />
</g>
<g style="fill:#000000; fill-opacity:0.0; 
stroke:#000000; stroke-width:39.3701; stroke-opacity:1; 
stroke-linecap:round; stroke-linejoin:round;">
</g>
<g style="fill:#000000; fill-opacity:0.0; 
stroke:#000000; stroke-width:59.0551; stroke-opacity:1; 
stroke-linecap:round; stroke-linejoin:round;">
<path d="M69685 71459
L112205 71459
" />
</g>
<g style="fill:#000000; fill-opacity:0.0; 
stroke:#000000; stroke-width:39.3701; stroke-opacity:1; 
stroke-linecap:round; stroke-linejoin:round;">
</g>
<g style="fill:#000000; fill-opacity:0.0; 
stroke:#000000; stroke-width:59.0551; stroke-opacity:1; 
stroke-linecap:round; stroke-linejoin:round;">
<text x="70079.6" y="72345.4"
textLength="3236.78" font-size="787.402" lengthAdjust="spacingAndGlyphs"
text-anchor="start" opacity="0">Sheet: </text>
<path d="M70221 72289
L70305 72317
L70446 72317
L70502 72289
L70530 72260
L70559 72204
L70559 72148
L70530 72092
L70502 72064
L70446 72036
L70334 72007
L70277 71979
L70249 71951
L70221 71895
L70221 71839
L70249 71782
L70277 71754
L70334 71726
L70474 71726
L70559 71754
" />
<path d="M70812 72317
L70812 71726
" />
<path d="M71065 72317
L71065 72007
L71037 71951
L70980 71923
L70896 71923
L70840 71951
L70812 71979
" />
<path d="M71571 72289
L71515 72317
L71402 72317
L71346 72289
L71318 72232
L71318 72007
L71346 71951
L71402 71923
L71515 71923
L71571 71951
L71599 72007
L71599 72064
L71318 72120
" />
<path d="M72077 72289
L72021 72317
L71908 72317
L71852 72289
L71824 72232
L71824 72007
L71852 71951
L71908 71923
L72021 71923
L72077 71951
L72105 72007
L72105 72064
L71824 72120
" />
<path d="M72274 71923
L72499 71923
" />
<path d="M72358 71726
L72358 72232
L72386 72289
L72443 72317
L72499 72317
" />
<path d="M72696 72260
L72724 72289
L72696 72317
L72668 72289
L72696 72260
L72696 72317
" />
<path d="M72696 71951
L72724 71979
L72696 72007
L72668 71979
L72696 71951
L72696 72007
" />
</g>
<g style="fill:#000000; fill-opacity:0.0; 
stroke:#000000; stroke-width:39.3701; stroke-opacity:1; 
stroke-linecap:round; stroke-linejoin:round;">
</g>
<g style="fill:#000000; fill-opacity:0.0; 
stroke:#000000; stroke-width:59.0551; stroke-opacity:1; 
stroke-linecap:round; stroke-linejoin:round;">
<path d="M77559 75396
L77559 76577
" />
</g>
<g style="fill:#000000; fill-opacity:0.0; 
stroke:#000000; stroke-width:39.3701; stroke-opacity:1; 
stroke-linecap:round; stroke-linejoin:round;">
</g>
<g style="fill:#000000; fill-opacity:0.0; 
stroke:#000000; stroke-width:59.0551; stroke-opacity:1; 
stroke-linecap:round; stroke-linejoin:round;">
<path d="M102756 75396
L102756 77955
" />
</g>
<g style="fill:#000084; fill-opacity:0.0; 
stroke:#000084; stroke-width:59.0551; stroke-opacity:1; 
stroke-linecap:round; stroke-linejoin:round;">
</g>
<g style="fill:#000084; fill-opacity:0.0; 
stroke:#000084; stroke-width:39.3701; stroke-opacity:1; 
stroke-linecap:round; stroke-linejoin:round;">
<path d="M40433 13976
L39724 13976
" />
<path d="M39724 13976
L39724 14527
" />
<path d="M39724 14527
L40433 14527
" />
<path d="M40433 14527
L40433 13976
" />
<path d="M40196 14114
L40196 14389
" />
<path d="M40196 14251
L40275 14251
" />
<path d="M40196 14251
L40000 14114
" />
<path d="M40000 14114
L40000 14389
" />
<path d="M40000 14389
L40196 14251
" />
<path d="M40000 14251
L39901 14251
" />
<path d="M37947 13943
L39069 13943
" />
<path d="M37868 14051
L37868 14494
" />
<path d="M37868 14051
L37947 13943
" />
<path d="M39067 13943
L39067 14494
" />
<path d="M39067 14494
L37870 14494
" />
<path d="M48184 41604
L47711 41604
" />
<path d="M48184 40817
L48184 41604
" />
<path d="M47829 40817
L48184 40817
" />
<path d="M47711 40935
L47829 40817
" />
<path d="M47711 41604
L47711 40935
" />
<path d="M49183 41615
L49183 40827
" />
<path d="M48711 41615
L49183 41615
" />
<path d="M48711 40827
L48711 41615
" />
<path d="M49183 40827
L48711 40827
" />
<path d="M42362 11338
L43149 11338
" />
<path d="M42362 10866
L42362 11338
" />
<path d="M43149 10866
L42362 10866
" />
<path d="M43149 11338
L43149 10866
" />
<path d="M44015 10866
L44015 11338
" />
<path d="M44015 11338
L44803 11338
" />
<path d="M44803 11338
L44803 10866
" />
<path d="M44803 10866
L44015 10866
" />
<path d="M44141 12637
L44141 13188
" />
<path d="M42944 13188
L44141 13188
" />
<path d="M43169 12637
L42944 12854
" />
<path d="M42944 12854
L42944 13188
" />
<path d="M43169 12637
L44133 12637
" />
<path d="M40472 13228
L39685 13228
" />
<path d="M40472 13700
L40472 13228
" />
<path d="M39685 13700
L40472 13700
" />
<path d="M39685 13228
L39685 13700
" />
<path d="M39685 14803
L39685 15275
" />
<path d="M39685 15275
L40472 15275
" />
<path d="M40472 15275
L40472 14803
" />
<path d="M40472 14803
L39685 14803
" />
<path d="M36771 14621
L36771 13833
" />
<path d="M36299 14621
L36771 14621
" />
<path d="M36299 13833
L36299 14621
" />
<path d="M36771 13833
L36299 13833
" />
<path d="M35787 14621
L35787 13833
" />
<path d="M35314 14621
L35787 14621
" />
<path d="M35314 13833
L35314 14621
" />
<path d="M35787 13833
L35314 13833
" />
<path d="M31756 11181
L32544 11181
" />
<path d="M31756 10708
L31756 11181
" />
<path d="M32544 10708
L31756 10708
" />
<path d="M32544 11181
L32544 10708
" />
<path d="M34102 11181
L33433 11181
" />
<path d="M33433 11181
L33314 11062
" />
<path d="M33314 11062
L33314 10708
" />
<path d="M33314 10708
L34102 10708
" />
<path d="M34102 10708
L34102 11181
" />
<path d="M33307 12165
L33307 11692
" />
<path d="M34094 12165
L33307 12165
" />
<path d="M34094 11811
L34094 12165
" />
<path d="M33976 11692
L34094 11811
" />
<path d="M33307 11692
L33976 11692
" />
<path d="M31771 11692
L31771 12165
" />
<path d="M31771 12165
L32559 12165
" />
<path d="M32559 12165
L32559 11692
" />
<path d="M32559 11692
L31771 11692
" />
<path d="M28346 13464
L28346 12992
" />
<path d="M28346 12992
L27559 12992
" />
<path d="M27559 12992
L27559 13464
" />
<path d="M27559 13464
L28346 13464
" />
<path d="M41240 11435
L38602 11435
" />
<path d="M41240 10411
L41240 11435
" />
<path d="M38602 10411
L41240 10411
" />
<path d="M38602 11435
L38602 10411
" />
<path d="M39881 9899
L39881 10411
" />
<path d="M39862 9879
L39881 9899
" />
<path d="M39783 9801
L39862 9879
" />
<path d="M39448 9801
L39783 9801
" />
<path d="M39370 9879
L39448 9801
" />
<path d="M39370 10391
L39370 9879
" />
</g>
<g style="fill:#000084; fill-opacity:0.0; 
stroke:#000084; stroke-width:47.2441; stroke-opacity:1; 
stroke-linecap:round; stroke-linejoin:round;">
<path d="M34891 10104
L34891 11757
" />
<path d="M35206 12053
L37844 12053
" />
<path d="M37844 12053
L37844 10104
" />
<path d="M37844 10104
L34891 10104
" />
<path d="M34891 11757
L35206 12053
" />
</g>
<g style="fill:#000084; fill-opacity:0.0; 
stroke:#000084; stroke-width:39.3701; stroke-opacity:1; 
stroke-linecap:round; stroke-linejoin:round;">
<path d="M34527 14645
L34783 14389
" />
<path d="M34783 13937
L34783 14389
" />
<path d="M34527 14645
L33562 14645
" />
<path d="M33562 13937
L33562 14645
" />
<path d="M34783 13937
L33562 13937
" />
<g >
</g>
<g >
</g>
<g >
</g>
<g >
</g>
<g >
</g>
<g >
</g>
<g >
</g>
<g >
</g>
<g >
</g>
<g >
</g>
<g >
</g>
<g >
</g>
<g >
</g>
<g >
</g>
<g >
</g>
<g >
</g>
<g >
</g>
<g >
</g>
<g >
</g>
<g >
</g>
<g >
</g>
<g >
</g>
<g >
</g>
<g >
</g>
<g >
</g>
<g >
</g>
<g >
</g>
<g >
</g>
<g >
</g>
<g >
</g>
<g >
</g>
<g >
</g>
<g >
</g>
<g >
</g>
<g >
</g>
<g >
</g>
<g >
</g>
<g >
</g>
<g >
</g>
<g >
</g>
<g >
</g>
<g >
</g>
<g >
</g>
<g >
</g>
<g >
</g>
<g >
</g>
<g >
</g>
<g >
</g>
<g >
</g>
<g >
</g>
<g >
</g>
<g >
</g>
<g >
</g>
<g >
</g>
<g >
</g>
<g >
</g>
<g >
</g>
<g >
</g>
<g >
</g>
<g >
</g>
<g >
</g>
<g >
</g>
<g >
</g>
<g >
</g>
<g >
</g>
<g >
</g>
<g >
</g>
<g >
</g>
<g >
</g>
<g >
</g>
<g >
</g>
<g >
</g>
<g >
</g>
<g >
</g>
<g >
</g>
<g >
</g>
<g >
</g>
</g>
<g style="fill:#000084; fill-opacity:0.0; 
stroke:#000084; stroke-width:39.3701; stroke-opacity:1; 
stroke-linecap:round; stroke-linejoin:round;">
</g>
<g style="fill:#000084; fill-opacity:0.0; 
stroke:#000084; stroke-width:59.0551; stroke-opacity:1; 
stroke-linecap:round; stroke-linejoin:round;">
<text x="40039.4" y="15196.9"
textLength="-2621.86" font-size="-524.934" lengthAdjust="spacingAndGlyphs"
text-anchor="middle" opacity="0">NSR0320</text>
<path d="M41286 15178
L41286 14784
L41061 15178
L41061 14784
" />
<path d="M40892 15159
L40836 15178
L40742 15178
L40704 15159
L40686 15140
L40667 15103
L40667 15065
L40686 15028
L40704 15009
L40742 14990
L40817 14971
L40854 14953
L40873 14934
L40892 14896
L40892 14859
L40873 14821
L40854 14803
L40817 14784
L40723 14784
L40667 14803
" />
<path d="M40273 15178
L40404 14990
" />
<path d="M40498 15178
L40498 14784
L40348 14784
L40311 14803
L40292 14821
L40273 14859
L40273 14915
L40292 14953
L40311 14971
L40348 14990
L40498 14990
" />
<path d="M40029 14784
L39992 14784
L39955 14803
L39936 14821
L39917 14859
L39898 14934
L39898 15028
L39917 15103
L39936 15140
L39955 15159
L39992 15178
L40029 15178
L40067 15159
L40086 15140
L40104 15103
L40123 15028
L40123 14934
L40104 14859
L40086 14821
L40067 14803
L40029 14784
" />
<path d="M39767 14784
L39523 14784
L39655 14934
L39598 14934
L39561 14953
L39542 14971
L39523 15009
L39523 15103
L39542 15140
L39561 15159
L39598 15178
L39711 15178
L39748 15159
L39767 15140
" />
<path d="M39373 14821
L39355 14803
L39317 14784
L39223 14784
L39186 14803
L39167 14821
L39148 14859
L39148 14896
L39167 14953
L39392 15178
L39148 15178
" />
<path d="M38905 14784
L38867 14784
L38830 14803
L38811 14821
L38792 14859
L38773 14934
L38773 15028
L38792 15103
L38811 15140
L38830 15159
L38867 15178
L38905 15178
L38942 15159
L38961 15140
L38980 15103
L38998 15028
L38998 14934
L38980 14859
L38961 14821
L38942 14803
L38905 14784
" />
<text x="40078.7" y="13720.5"
textLength="-691.882" font-size="-524.934" lengthAdjust="spacingAndGlyphs"
text-anchor="middle" opacity="0">D3</text>
<path d="M40369 13701
L40369 13308
L40275 13308
L40219 13326
L40181 13364
L40163 13401
L40144 13476
L40144 13532
L40163 13607
L40181 13645
L40219 13682
L40275 13701
L40369 13701
" />
<path d="M40013 13308
L39769 13308
L39900 13458
L39844 13458
L39806 13476
L39788 13495
L39769 13532
L39769 13626
L39788 13664
L39806 13682
L39844 13701
L39956 13701
L39994 13682
L40013 13664
" />
<g transform="rotate(-90 39748.4 14228.7)">
<text x="39748.4" y="14425.6"
textLength="-1985.47" font-size="-524.934" lengthAdjust="spacingAndGlyphs"
text-anchor="middle" opacity="0">SI2301</text>
</g>
<path d="M39907 13272
L39926 13328
L39926 13422
L39907 13460
L39889 13478
L39851 13497
L39814 13497
L39776 13478
L39757 13460
L39739 13422
L39720 13347
L39701 13310
L39682 13291
L39645 13272
L39607 13272
L39570 13291
L39551 13310
L39532 13347
L39532 13441
L39551 13497
" />
<path d="M39926 13666
L39532 13666
" />
<path d="M39570 13835
L39551 13853
L39532 13891
L39532 13985
L39551 14022
L39570 14041
L39607 14060
L39645 14060
L39701 14041
L39926 13816
L39926 14060
" />
<path d="M39532 14191
L39532 14434
L39682 14303
L39682 14359
L39701 14397
L39720 14416
L39757 14434
L39851 14434
L39889 14416
L39907 14397
L39926 14359
L39926 14247
L39907 14209
L39889 14191
" />
<path d="M39532 14678
L39532 14716
L39551 14753
L39570 14772
L39607 14791
L39682 14809
L39776 14809
L39851 14791
L39889 14772
L39907 14753
L39926 14716
L39926 14678
L39907 14641
L39889 14622
L39851 14603
L39776 14584
L39682 14584
L39607 14603
L39570 14622
L39551 14641
L39532 14678
" />
<path d="M39926 15184
L39926 14959
" />
<path d="M39926 15072
L39532 15072
L39589 15034
L39626 14997
L39645 14959
" />
</g>
<g style="fill:#000084; fill-opacity:0.0; 
stroke:#000084; stroke-width:19.685; stroke-opacity:1; 
stroke-linecap:round; stroke-linejoin:round;">
<g transform="rotate(-90 38528 14169.7)">
<text x="38528" y="14218.9"
textLength="-120.079" font-size="-131.233" lengthAdjust="spacingAndGlyphs"
text-anchor="middle" opacity="0">Q1</text>
</g>
<path d="M38581 14160
L38577 14150
L38567 14141
L38553 14127
L38549 14118
L38549 14108
" />
<path d="M38572 14113
L38567 14104
L38558 14094
L38539 14090
L38506 14090
L38488 14094
L38478 14104
L38474 14113
L38474 14132
L38478 14141
L38488 14150
L38506 14155
L38539 14155
L38558 14150
L38567 14141
L38572 14132
L38572 14113
" />
<path d="M38572 14249
L38572 14193
" />
<path d="M38572 14221
L38474 14221
L38488 14211
L38497 14202
L38502 14193
" />
</g>
<g style="fill:#000084; fill-opacity:0.0; 
stroke:#000084; stroke-width:59.0551; stroke-opacity:1; 
stroke-linecap:round; stroke-linejoin:round;">
<text x="47952.8" y="39881.9"
textLength="-1717.94" font-size="-524.934" lengthAdjust="spacingAndGlyphs"
text-anchor="middle" opacity="0">DIODE</text>
<path d="M48730 39863
L48730 39469
L48637 39469
L48580 39488
L48543 39525
L48524 39563
L48505 39638
L48505 39694
L48524 39769
L48543 39806
L48580 39844
L48637 39863
L48730 39863
" />
<path d="M48337 39863
L48337 39469
" />
<path d="M48074 39469
L47999 39469
L47962 39488
L47924 39525
L47905 39600
L47905 39731
L47924 39806
L47962 39844
L47999 39863
L48074 39863
L48112 39844
L48149 39806
L48168 39731
L48168 39600
L48149 39525
L48112 39488
L48074 39469
" />
<path d="M47737 39863
L47737 39469
L47643 39469
L47587 39488
L47549 39525
L47530 39563
L47512 39638
L47512 39694
L47530 39769
L47549 39806
L47587 39844
L47643 39863
L47737 39863
" />
<path d="M47343 39656
L47212 39656
" />
<path d="M47155 39863
L47343 39863
L47343 39469
L47155 39469
" />
</g>
<g style="fill:#000084; fill-opacity:0.0; 
stroke:#000084; stroke-width:31.4961; stroke-opacity:1; 
stroke-linecap:round; stroke-linejoin:round;">
<g transform="rotate(-90 47947.8 41211)">
<text x="47947.8" y="41309.5"
textLength="-682.508" font-size="-262.467" lengthAdjust="spacingAndGlyphs"
text-anchor="middle" opacity="0">D201</text>
</g>
<path d="M48036 40878
L47840 40878
L47840 40925
L47849 40953
L47868 40972
L47886 40981
L47924 40990
L47952 40990
L47990 40981
L48008 40972
L48027 40953
L48036 40925
L48036 40878
" />
<path d="M47858 41065
L47849 41075
L47840 41093
L47840 41140
L47849 41159
L47858 41168
L47877 41178
L47896 41178
L47924 41168
L48036 41056
L48036 41178
" />
<path d="M47840 41300
L47840 41318
L47849 41337
L47858 41346
L47877 41356
L47915 41365
L47961 41365
L47999 41356
L48018 41346
L48027 41337
L48036 41318
L48036 41300
L48027 41281
L48018 41271
L47999 41262
L47961 41253
L47915 41253
L47877 41262
L47858 41271
L47849 41281
L47840 41300
" />
<path d="M48036 41553
L48036 41440
" />
<path d="M48036 41496
L47840 41496
L47868 41478
L47886 41459
L47896 41440
" />
</g>
<g style="fill:#000084; fill-opacity:0.0; 
stroke:#000084; stroke-width:59.0551; stroke-opacity:1; 
stroke-linecap:round; stroke-linejoin:round;">
<g transform="rotate(-90 48258.8 41201.7)">
<text x="48258.8" y="41398.6"
textLength="-352.756" font-size="-524.934" lengthAdjust="spacingAndGlyphs"
text-anchor="middle" opacity="0">R</text>
</g>
<path d="M48436 41323
L48249 41192
" />
<path d="M48436 41098
L48043 41098
L48043 41248
L48061 41286
L48080 41304
L48118 41323
L48174 41323
L48211 41304
L48230 41286
L48249 41248
L48249 41098
" />
</g>
<g style="fill:#000084; fill-opacity:0.0; 
stroke:#000084; stroke-width:31.4961; stroke-opacity:1; 
stroke-linecap:round; stroke-linejoin:round;">
<g transform="rotate(-90 48947.7 41221.4)">
<text x="48947.7" y="41319.8"
textLength="-682.508" font-size="-262.467" lengthAdjust="spacingAndGlyphs"
text-anchor="middle" opacity="0">R201</text>
</g>
<path d="M49036 41001
L48943 40935
" />
<path d="M49036 40888
L48839 40888
L48839 40963
L48849 40982
L48858 40991
L48877 41001
L48905 41001
L48924 40991
L48933 40982
L48943 40963
L48943 40888
" />
<path d="M48858 41076
L48849 41085
L48839 41104
L48839 41151
L48849 41169
L48858 41179
L48877 41188
L48896 41188
L48924 41179
L49036 41066
L49036 41188
" />
<path d="M48839 41310
L48839 41329
L48849 41347
L48858 41357
L48877 41366
L48914 41376
L48961 41376
L48999 41366
L49018 41357
L49027 41347
L49036 41329
L49036 41310
L49027 41291
L49018 41282
L48999 41272
L48961 41263
L48914 41263
L48877 41272
L48858 41282
L48849 41291
L48839 41310
" />
<path d="M49036 41563
L49036 41451
" />
<path d="M49036 41507
L48839 41507
L48868 41488
L48886 41469
L48896 41451
" />
</g>
<g style="fill:#000084; fill-opacity:0.0; 
stroke:#000084; stroke-width:59.0551; stroke-opacity:1; 
stroke-linecap:round; stroke-linejoin:round;">
<text x="42755.9" y="11948.8"
textLength="-1027.67" font-size="-524.934" lengthAdjust="spacingAndGlyphs"
text-anchor="middle" opacity="0">1uF</text>
<path d="M42990 11930
L43215 11930
" />
<path d="M43102 11930
L43102 11536
L43140 11592
L43177 11630
L43215 11648
" />
<path d="M42652 11667
L42652 11930
" />
<path d="M42821 11667
L42821 11873
L42802 11911
L42765 11930
L42709 11930
L42671 11911
L42652 11892
" />
<path d="M42334 11723
L42465 11723
" />
<path d="M42465 11930
L42465 11536
L42277 11536
" />
</g>
<g style="fill:#000084; fill-opacity:0.0; 
stroke:#000084; stroke-width:31.4961; stroke-opacity:1; 
stroke-linecap:round; stroke-linejoin:round;">
<text x="42755.9" y="11200.8"
textLength="-307.555" font-size="-262.467" lengthAdjust="spacingAndGlyphs"
text-anchor="middle" opacity="0">C5</text>
<path d="M42788 11172
L42798 11182
L42826 11191
L42844 11191
L42873 11182
L42891 11163
L42901 11144
L42910 11107
L42910 11078
L42901 11041
L42891 11022
L42873 11003
L42844 10994
L42826 10994
L42798 11003
L42788 11013
" />
<path d="M42610 10994
L42704 10994
L42713 11088
L42704 11078
L42685 11069
L42638 11069
L42619 11078
L42610 11088
L42601 11107
L42601 11153
L42610 11172
L42619 11182
L42638 11191
L42685 11191
L42704 11182
L42713 11172
" />
</g>
<g style="fill:#000084; fill-opacity:0.0; 
stroke:#000084; stroke-width:59.0551; stroke-opacity:1; 
stroke-linecap:round; stroke-linejoin:round;">
<text x="44409.4" y="10649.6"
textLength="-1027.67" font-size="-524.934" lengthAdjust="spacingAndGlyphs"
text-anchor="middle" opacity="0">1uF</text>
<path d="M44643 10630
L44868 10630
" />
<path d="M44756 10630
L44756 10237
L44793 10293
L44831 10330
L44868 10349
" />
<path d="M44306 10368
L44306 10630
" />
<path d="M44475 10368
L44475 10574
L44456 10612
L44418 10630
L44362 10630
L44325 10612
L44306 10593
" />
<path d="M43987 10424
L44118 10424
" />
<path d="M44118 10630
L44118 10237
L43931 10237
" />
</g>
<g style="fill:#000084; fill-opacity:0.0; 
stroke:#000084; stroke-width:31.4961; stroke-opacity:1; 
stroke-linecap:round; stroke-linejoin:round;">
<text x="44409.4" y="11200.8"
textLength="-307.555" font-size="-262.467" lengthAdjust="spacingAndGlyphs"
text-anchor="middle" opacity="0">C4</text>
<path d="M44442 11172
L44451 11182
L44479 11191
L44498 11191
L44526 11182
L44545 11163
L44554 11144
L44564 11107
L44564 11078
L44554 11041
L44545 11022
L44526 11003
L44498 10994
L44479 10994
L44451 11003
L44442 11013
" />
<path d="M44273 11060
L44273 11191
" />
<path d="M44320 10985
L44367 11125
L44245 11125
" />
</g>
<g style="fill:#000084; fill-opacity:0.0; 
stroke:#000084; stroke-width:59.0551; stroke-opacity:1; 
stroke-linecap:round; stroke-linejoin:round;">
<g transform="rotate(-90 44527.6 12913.4)">
<text x="44527.6" y="13110.2"
textLength="-7158.16" font-size="-524.934" lengthAdjust="spacingAndGlyphs"
text-anchor="middle" opacity="0">MCP1703A-5002_SOT23</text>
</g>
<path d="M44705 9407
L44311 9407
L44593 9538
L44311 9670
L44705 9670
" />
<path d="M44668 10082
L44686 10063
L44705 10007
L44705 9970
L44686 9913
L44649 9876
L44611 9857
L44536 9838
L44480 9838
L44405 9857
L44368 9876
L44330 9913
L44311 9970
L44311 10007
L44330 10063
L44349 10082
" />
<path d="M44705 10251
L44311 10251
L44311 10401
L44330 10438
L44349 10457
L44386 10476
L44443 10476
L44480 10457
L44499 10438
L44518 10401
L44518 10251
" />
<path d="M44705 10851
L44705 10626
" />
<path d="M44705 10738
L44311 10738
L44368 10701
L44405 10663
L44424 10626
" />
<path d="M44311 10982
L44311 11244
L44705 11076
" />
<path d="M44311 11469
L44311 11507
L44330 11544
L44349 11563
L44386 11582
L44461 11601
L44555 11601
L44630 11582
L44668 11563
L44686 11544
L44705 11507
L44705 11469
L44686 11432
L44668 11413
L44630 11394
L44555 11376
L44461 11376
L44386 11394
L44349 11413
L44330 11432
L44311 11469
" />
<path d="M44311 11732
L44311 11976
L44461 11844
L44461 11901
L44480 11938
L44499 11957
L44536 11976
L44630 11976
L44668 11957
L44686 11938
L44705 11901
L44705 11788
L44686 11751
L44668 11732
" />
<path d="M44593 12125
L44593 12313
" />
<path d="M44705 12088
L44311 12219
L44705 12350
" />
<path d="M44555 12482
L44555 12782
" />
<path d="M44311 13157
L44311 12969
L44499 12950
L44480 12969
L44461 13007
L44461 13100
L44480 13138
L44499 13157
L44536 13175
L44630 13175
L44668 13157
L44686 13138
L44705 13100
L44705 13007
L44686 12969
L44668 12950
" />
<path d="M44311 13419
L44311 13457
L44330 13494
L44349 13513
L44386 13532
L44461 13550
L44555 13550
L44630 13532
L44668 13513
L44686 13494
L44705 13457
L44705 13419
L44686 13382
L44668 13363
L44630 13344
L44555 13325
L44461 13325
L44386 13344
L44349 13363
L44330 13382
L44311 13419
" />
<path d="M44311 13794
L44311 13832
L44330 13869
L44349 13888
L44386 13907
L44461 13925
L44555 13925
L44630 13907
L44668 13888
L44686 13869
L44705 13832
L44705 13794
L44686 13757
L44668 13738
L44630 13719
L44555 13700
L44461 13700
L44386 13719
L44349 13738
L44330 13757
L44311 13794
" />
<path d="M44349 14075
L44330 14094
L44311 14131
L44311 14225
L44330 14263
L44349 14281
L44386 14300
L44424 14300
L44480 14281
L44705 14056
L44705 14300
" />
<path d="M44743 14375
L44743 14675
" />
<path d="M44686 14750
L44705 14806
L44705 14900
L44686 14938
L44668 14956
L44630 14975
L44593 14975
L44555 14956
L44536 14938
L44518 14900
L44499 14825
L44480 14788
L44461 14769
L44424 14750
L44386 14750
L44349 14769
L44330 14788
L44311 14825
L44311 14919
L44330 14975
" />
<path d="M44311 15219
L44311 15294
L44330 15331
L44368 15369
L44443 15388
L44574 15388
L44649 15369
L44686 15331
L44705 15294
L44705 15219
L44686 15181
L44649 15144
L44574 15125
L44443 15125
L44368 15144
L44330 15181
L44311 15219
" />
<path d="M44311 15500
L44311 15725
" />
<path d="M44705 15613
L44311 15613
" />
<path d="M44349 15838
L44330 15856
L44311 15894
L44311 15988
L44330 16025
L44349 16044
L44386 16062
L44424 16062
L44480 16044
L44705 15819
L44705 16062
" />
<path d="M44311 16194
L44311 16437
L44461 16306
L44461 16362
L44480 16400
L44499 16419
L44536 16437
L44630 16437
L44668 16419
L44686 16400
L44705 16362
L44705 16250
L44686 16212
L44668 16194
" />
</g>
<g style="fill:#000084; fill-opacity:0.0; 
stroke:#000084; stroke-width:29.5276; stroke-opacity:1; 
stroke-linecap:round; stroke-linejoin:round;">
<text x="43543.3" y="13011.8"
textLength="-316.929" font-size="-262.467" lengthAdjust="spacingAndGlyphs"
text-anchor="middle" opacity="0">U1</text>
<path d="M43693 12805
L43693 12964
L43683 12983
L43674 12993
L43655 13002
L43618 13002
L43599 12993
L43590 12983
L43580 12964
L43580 12805
" />
<path d="M43383 13002
L43496 13002
" />
<path d="M43440 13002
L43440 12805
L43458 12833
L43477 12852
L43496 12861
" />
</g>
<g style="fill:#000084; fill-opacity:0.0; 
stroke:#000084; stroke-width:59.0551; stroke-opacity:1; 
stroke-linecap:round; stroke-linejoin:round;">
<text x="40078.7" y="13011.8"
textLength="-1405.18" font-size="-524.934" lengthAdjust="spacingAndGlyphs"
text-anchor="middle" opacity="0">100k</text>
<path d="M40500 12993
L40725 12993
" />
<path d="M40613 12993
L40613 12599
L40650 12655
L40688 12693
L40725 12711
" />
<path d="M40256 12599
L40219 12599
L40181 12618
L40163 12636
L40144 12674
L40125 12749
L40125 12843
L40144 12918
L40163 12955
L40181 12974
L40219 12993
L40256 12993
L40294 12974
L40313 12955
L40331 12918
L40350 12843
L40350 12749
L40331 12674
L40313 12636
L40294 12618
L40256 12599
" />
<path d="M39881 12599
L39844 12599
L39806 12618
L39788 12636
L39769 12674
L39750 12749
L39750 12843
L39769 12918
L39788 12955
L39806 12974
L39844 12993
L39881 12993
L39919 12974
L39938 12955
L39956 12918
L39975 12843
L39975 12749
L39956 12674
L39938 12636
L39919 12618
L39881 12599
" />
<path d="M39581 12993
L39581 12599
" />
<path d="M39544 12843
L39431 12993
" />
<path d="M39431 12730
L39581 12880
" />
</g>
<g style="fill:#000084; fill-opacity:0.0; 
stroke:#000084; stroke-width:31.4961; stroke-opacity:1; 
stroke-linecap:round; stroke-linejoin:round;">
<text x="40078.7" y="13563"
textLength="-307.555" font-size="-262.467" lengthAdjust="spacingAndGlyphs"
text-anchor="middle" opacity="0">R4</text>
<path d="M40111 13553
L40177 13459
" />
<path d="M40224 13553
L40224 13356
L40149 13356
L40130 13366
L40120 13375
L40111 13394
L40111 13422
L40120 13441
L40130 13450
L40149 13459
L40224 13459
" />
<path d="M39942 13422
L39942 13553
" />
<path d="M39989 13347
L40036 13488
L39914 13488
" />
</g>
<g style="fill:#000084; fill-opacity:0.0; 
stroke:#000084; stroke-width:59.0551; stroke-opacity:1; 
stroke-linecap:round; stroke-linejoin:round;">
<text x="40078.7" y="14586.6"
textLength="-1027.67" font-size="-524.934" lengthAdjust="spacingAndGlyphs"
text-anchor="middle" opacity="0">1uF</text>
<path d="M40313 14567
L40538 14567
" />
<path d="M40425 14567
L40425 14174
L40463 14230
L40500 14267
L40538 14286
" />
<path d="M39975 14305
L39975 14567
" />
<path d="M40144 14305
L40144 14511
L40125 14549
L40088 14567
L40031 14567
L39994 14549
L39975 14530
" />
<path d="M39656 14361
L39788 14361
" />
<path d="M39788 14567
L39788 14174
L39600 14174
" />
</g>
<g style="fill:#000084; fill-opacity:0.0; 
stroke:#000084; stroke-width:31.4961; stroke-opacity:1; 
stroke-linecap:round; stroke-linejoin:round;">
<text x="40078.7" y="15137.8"
textLength="-307.555" font-size="-262.467" lengthAdjust="spacingAndGlyphs"
text-anchor="middle" opacity="0">C3</text>
<path d="M40111 15109
L40120 15119
L40149 15128
L40167 15128
L40195 15119
L40214 15100
L40224 15081
L40233 15044
L40233 15015
L40224 14978
L40214 14959
L40195 14940
L40167 14931
L40149 14931
L40120 14940
L40111 14950
" />
<path d="M40045 14931
L39924 14931
L39989 15006
L39961 15006
L39942 15015
L39933 15025
L39924 15044
L39924 15090
L39933 15109
L39942 15119
L39961 15128
L40017 15128
L40036 15119
L40045 15109
" />
</g>
<g style="fill:#000084; fill-opacity:0.0; 
stroke:#000084; stroke-width:59.0551; stroke-opacity:1; 
stroke-linecap:round; stroke-linejoin:round;">
<g transform="rotate(-90 37185 14227.4)">
<text x="37185" y="14424.2"
textLength="-1402.62" font-size="-524.934" lengthAdjust="spacingAndGlyphs"
text-anchor="middle" opacity="0">4u7F</text>
</g>
<path d="M37100 13768
L37363 13768
" />
<path d="M36950 13674
L37231 13580
L37231 13824
" />
<path d="M37100 14142
L37363 14142
" />
<path d="M37100 13974
L37306 13974
L37344 13993
L37363 14030
L37363 14086
L37344 14124
L37325 14142
" />
<path d="M36969 14292
L36969 14555
L37363 14386
" />
<path d="M37156 14836
L37156 14705
" />
<path d="M37363 14705
L36969 14705
L36969 14892
" />
</g>
<g style="fill:#000084; fill-opacity:0.0; 
stroke:#000084; stroke-width:31.4961; stroke-opacity:1; 
stroke-linecap:round; stroke-linejoin:round;">
<g transform="rotate(-90 36535.4 14227.4)">
<text x="36535.4" y="14325.8"
textLength="-307.555" font-size="-262.467" lengthAdjust="spacingAndGlyphs"
text-anchor="middle" opacity="0">C1</text>
</g>
<path d="M36605 14194
L36615 14185
L36624 14157
L36624 14138
L36615 14110
L36596 14091
L36577 14082
L36540 14072
L36511 14072
L36474 14082
L36455 14091
L36437 14110
L36427 14138
L36427 14157
L36437 14185
L36446 14194
" />
<path d="M36624 14382
L36624 14269
" />
<path d="M36624 14325
L36427 14325
L36455 14307
L36474 14288
L36483 14269
" />
</g>
<g style="fill:#000084; fill-opacity:0.0; 
stroke:#000084; stroke-width:59.0551; stroke-opacity:1; 
stroke-linecap:round; stroke-linejoin:round;">
<g transform="rotate(-90 36200.8 14227.4)">
<text x="36200.8" y="14424.2"
textLength="-652.719" font-size="-524.934" lengthAdjust="spacingAndGlyphs"
text-anchor="middle" opacity="0">2k</text>
</g>
<path d="M36022 13955
L36003 13974
L35985 14011
L35985 14105
L36003 14142
L36022 14161
L36060 14180
L36097 14180
L36153 14161
L36378 13936
L36378 14180
" />
<path d="M36378 14349
L35985 14349
" />
<path d="M36228 14386
L36378 14499
" />
<path d="M36116 14499
L36266 14349
" />
</g>
<g style="fill:#000084; fill-opacity:0.0; 
stroke:#000084; stroke-width:31.4961; stroke-opacity:1; 
stroke-linecap:round; stroke-linejoin:round;">
<g transform="rotate(-90 35551.2 14227.4)">
<text x="35551.2" y="14325.8"
textLength="-307.555" font-size="-262.467" lengthAdjust="spacingAndGlyphs"
text-anchor="middle" opacity="0">R1</text>
</g>
<path d="M35640 14194
L35546 14128
" />
<path d="M35640 14082
L35443 14082
L35443 14157
L35452 14175
L35462 14185
L35480 14194
L35508 14194
L35527 14185
L35537 14175
L35546 14157
L35546 14082
" />
<path d="M35640 14382
L35640 14269
" />
<path d="M35640 14325
L35443 14325
L35471 14307
L35490 14288
L35499 14269
" />
</g>
<g style="fill:#000084; fill-opacity:0.0; 
stroke:#000084; stroke-width:59.0551; stroke-opacity:1; 
stroke-linecap:round; stroke-linejoin:round;">
<text x="32150.6" y="11791.3"
textLength="-2621.22" font-size="-524.934" lengthAdjust="spacingAndGlyphs"
text-anchor="middle" opacity="0">470 ohm</text>
<path d="M33219 11510
L33219 11772
" />
<path d="M33312 11360
L33406 11641
L33162 11641
" />
<path d="M33050 11378
L32788 11378
L32956 11772
" />
<path d="M32563 11378
L32525 11378
L32488 11397
L32469 11416
L32450 11453
L32431 11528
L32431 11622
L32450 11697
L32469 11735
L32488 11753
L32525 11772
L32563 11772
L32600 11753
L32619 11735
L32638 11697
L32656 11622
L32656 11528
L32638 11453
L32619 11416
L32600 11397
L32563 11378
" />
<path d="M31906 11772
L31944 11753
L31963 11735
L31981 11697
L31981 11585
L31963 11547
L31944 11528
L31906 11510
L31850 11510
L31813 11528
L31794 11547
L31775 11585
L31775 11697
L31794 11735
L31813 11753
L31850 11772
L31906 11772
" />
<path d="M31606 11772
L31606 11378
" />
<path d="M31438 11772
L31438 11566
L31456 11528
L31494 11510
L31550 11510
L31588 11528
L31606 11547
" />
<path d="M31250 11772
L31250 11510
" />
<path d="M31250 11547
L31231 11528
L31194 11510
L31138 11510
L31100 11528
L31081 11566
L31081 11772
" />
<path d="M31081 11566
L31063 11528
L31025 11510
L30969 11510
L30931 11528
L30913 11566
L30913 11772
" />
</g>
<g style="fill:#000084; fill-opacity:0.0; 
stroke:#000084; stroke-width:31.4961; stroke-opacity:1; 
stroke-linecap:round; stroke-linejoin:round;">
<text x="32150.6" y="11043.3"
textLength="-307.555" font-size="-262.467" lengthAdjust="spacingAndGlyphs"
text-anchor="middle" opacity="0">R3</text>
<path d="M32183 11033
L32249 10940
" />
<path d="M32295 11033
L32295 10837
L32220 10837
L32202 10846
L32192 10855
L32183 10874
L32183 10902
L32192 10921
L32202 10930
L32220 10940
L32295 10940
" />
<path d="M32117 10837
L31995 10837
L32061 10912
L32033 10912
L32014 10921
L32005 10930
L31995 10949
L31995 10996
L32005 11015
L32014 11024
L32033 11033
L32089 11033
L32108 11024
L32117 11015
" />
</g>
<g style="fill:#000084; fill-opacity:0.0; 
stroke:#000084; stroke-width:59.0551; stroke-opacity:1; 
stroke-linecap:round; stroke-linejoin:round;">
<text x="33708.7" y="10492.1"
textLength="-1777.58" font-size="-524.934" lengthAdjust="spacingAndGlyphs"
text-anchor="middle" opacity="0">READY</text>
<path d="M34299 10473
L34430 10285
" />
<path d="M34524 10473
L34524 10079
L34374 10079
L34336 10098
L34317 10117
L34299 10154
L34299 10210
L34317 10248
L34336 10267
L34374 10285
L34524 10285
" />
<path d="M34130 10267
L33999 10267
" />
<path d="M33943 10473
L34130 10473
L34130 10079
L33943 10079
" />
<path d="M33793 10360
L33605 10360
" />
<path d="M33830 10473
L33699 10079
L33568 10473
" />
<path d="M33436 10473
L33436 10079
L33343 10079
L33286 10098
L33249 10135
L33230 10173
L33211 10248
L33211 10304
L33230 10379
L33249 10417
L33286 10454
L33343 10473
L33436 10473
" />
<path d="M32968 10285
L32968 10473
" />
<path d="M33099 10079
L32968 10285
L32836 10079
" />
</g>
<g style="fill:#000084; fill-opacity:0.0; 
stroke:#000084; stroke-width:31.4961; stroke-opacity:1; 
stroke-linecap:round; stroke-linejoin:round;">
<text x="33708.7" y="11043.3"
textLength="-307.555" font-size="-262.467" lengthAdjust="spacingAndGlyphs"
text-anchor="middle" opacity="0">D2</text>
<path d="M33853 11033
L33853 10837
L33807 10837
L33778 10846
L33760 10865
L33750 10883
L33741 10921
L33741 10949
L33750 10987
L33760 11005
L33778 11024
L33807 11033
L33853 11033
" />
<path d="M33666 10855
L33657 10846
L33638 10837
L33591 10837
L33572 10846
L33563 10855
L33553 10874
L33553 10893
L33563 10921
L33675 11033
L33553 11033
" />
</g>
<g style="fill:#000084; fill-opacity:0.0; 
stroke:#000084; stroke-width:59.0551; stroke-opacity:1; 
stroke-linecap:round; stroke-linejoin:round;">
<text x="33700.8" y="12775.6"
textLength="-2246.27" font-size="-524.934" lengthAdjust="spacingAndGlyphs"
text-anchor="middle" opacity="0">CHARGE</text>
<path d="M34525 12719
L34544 12738
L34600 12756
L34638 12756
L34694 12738
L34731 12700
L34750 12663
L34769 12588
L34769 12531
L34750 12456
L34731 12419
L34694 12381
L34638 12363
L34600 12363
L34544 12381
L34525 12400
" />
<path d="M34356 12756
L34356 12363
" />
<path d="M34356 12550
L34131 12550
" />
<path d="M34131 12756
L34131 12363
" />
<path d="M33963 12644
L33775 12644
" />
<path d="M34000 12756
L33869 12363
L33738 12756
" />
<path d="M33382 12756
L33513 12569
" />
<path d="M33607 12756
L33607 12363
L33457 12363
L33419 12381
L33400 12400
L33382 12438
L33382 12494
L33400 12531
L33419 12550
L33457 12569
L33607 12569
" />
<path d="M33007 12381
L33044 12363
L33100 12363
L33157 12381
L33194 12419
L33213 12456
L33232 12531
L33232 12588
L33213 12663
L33194 12700
L33157 12738
L33100 12756
L33063 12756
L33007 12738
L32988 12719
L32988 12588
L33063 12588
" />
<path d="M32819 12550
L32688 12550
" />
<path d="M32632 12756
L32819 12756
L32819 12363
L32632 12363
" />
</g>
<g style="fill:#000084; fill-opacity:0.0; 
stroke:#000084; stroke-width:31.4961; stroke-opacity:1; 
stroke-linecap:round; stroke-linejoin:round;">
<text x="33700.8" y="12027.6"
textLength="-307.555" font-size="-262.467" lengthAdjust="spacingAndGlyphs"
text-anchor="middle" opacity="0">D1</text>
<path d="M33846 12018
L33846 11821
L33799 11821
L33771 11830
L33752 11849
L33742 11868
L33733 11905
L33733 11933
L33742 11971
L33752 11990
L33771 12008
L33799 12018
L33846 12018
" />
<path d="M33546 12018
L33658 12018
" />
<path d="M33602 12018
L33602 11821
L33621 11849
L33639 11868
L33658 11877
" />
</g>
<g style="fill:#000084; fill-opacity:0.0; 
stroke:#000084; stroke-width:59.0551; stroke-opacity:1; 
stroke-linecap:round; stroke-linejoin:round;">
<text x="32165.4" y="11476.4"
textLength="-2621.22" font-size="-524.934" lengthAdjust="spacingAndGlyphs"
text-anchor="middle" opacity="0">470 ohm</text>
<path d="M33233 11195
L33233 11457
" />
<path d="M33327 11045
L33421 11326
L33177 11326
" />
<path d="M33065 11063
L32802 11063
L32971 11457
" />
<path d="M32577 11063
L32540 11063
L32502 11082
L32484 11101
L32465 11138
L32446 11213
L32446 11307
L32465 11382
L32484 11420
L32502 11438
L32540 11457
L32577 11457
L32615 11438
L32634 11420
L32652 11382
L32671 11307
L32671 11213
L32652 11138
L32634 11101
L32615 11082
L32577 11063
" />
<path d="M31921 11457
L31959 11438
L31977 11420
L31996 11382
L31996 11270
L31977 11232
L31959 11213
L31921 11195
L31865 11195
L31827 11213
L31809 11232
L31790 11270
L31790 11382
L31809 11420
L31827 11438
L31865 11457
L31921 11457
" />
<path d="M31621 11457
L31621 11063
" />
<path d="M31452 11457
L31452 11251
L31471 11213
L31509 11195
L31565 11195
L31602 11213
L31621 11232
" />
<path d="M31265 11457
L31265 11195
" />
<path d="M31265 11232
L31246 11213
L31209 11195
L31152 11195
L31115 11213
L31096 11251
L31096 11457
" />
<path d="M31096 11251
L31077 11213
L31040 11195
L30984 11195
L30946 11213
L30928 11251
L30928 11457
" />
</g>
<g style="fill:#000084; fill-opacity:0.0; 
stroke:#000084; stroke-width:31.4961; stroke-opacity:1; 
stroke-linecap:round; stroke-linejoin:round;">
<text x="32165.4" y="12027.6"
textLength="-307.555" font-size="-262.467" lengthAdjust="spacingAndGlyphs"
text-anchor="middle" opacity="0">R2</text>
<path d="M32198 12018
L32263 11924
" />
<path d="M32310 12018
L32310 11821
L32235 11821
L32216 11830
L32207 11840
L32198 11858
L32198 11886
L32207 11905
L32216 11915
L32235 11924
L32310 11924
" />
<path d="M32123 11840
L32113 11830
L32095 11821
L32048 11821
L32029 11830
L32020 11840
L32010 11858
L32010 11877
L32020 11905
L32132 12018
L32010 12018
" />
</g>
<g style="fill:#000084; fill-opacity:0.0; 
stroke:#000084; stroke-width:59.0551; stroke-opacity:1; 
stroke-linecap:round; stroke-linejoin:round;">
<text x="27952.8" y="14074.8"
textLength="-1402.62" font-size="-524.934" lengthAdjust="spacingAndGlyphs"
text-anchor="middle" opacity="0">4u7F</text>
<path d="M28412 13793
L28412 14056
" />
<path d="M28505 13643
L28599 13924
L28355 13924
" />
<path d="M28037 13793
L28037 14056
" />
<path d="M28205 13793
L28205 13999
L28187 14037
L28149 14056
L28093 14056
L28055 14037
L28037 14018
" />
<path d="M27887 13662
L27624 13662
L27793 14056
" />
<path d="M27343 13849
L27474 13849
" />
<path d="M27474 14056
L27474 13662
L27287 13662
" />
</g>
<g style="fill:#000084; fill-opacity:0.0; 
stroke:#000084; stroke-width:31.4961; stroke-opacity:1; 
stroke-linecap:round; stroke-linejoin:round;">
<text x="27952.8" y="13326.8"
textLength="-307.555" font-size="-262.467" lengthAdjust="spacingAndGlyphs"
text-anchor="middle" opacity="0">C2</text>
<path d="M27985 13298
L27994 13308
L28023 13317
L28041 13317
L28069 13308
L28088 13289
L28098 13270
L28107 13233
L28107 13204
L28098 13167
L28088 13148
L28069 13129
L28041 13120
L28023 13120
L27994 13129
L27985 13139
" />
<path d="M27910 13139
L27901 13129
L27882 13120
L27835 13120
L27816 13129
L27807 13139
L27798 13158
L27798 13176
L27807 13204
L27919 13317
L27798 13317
" />
</g>
<g style="fill:#000084; fill-opacity:0.0; 
stroke:#000084; stroke-width:59.0551; stroke-opacity:1; 
stroke-linecap:round; stroke-linejoin:round;">
<text x="39921.3" y="9564.96"
textLength="-4739.71" font-size="-524.934" lengthAdjust="spacingAndGlyphs"
text-anchor="middle" opacity="0">Switch_SW_SPDT</text>
<path d="M42236 9527
L42180 9546
L42086 9546
L42049 9527
L42030 9508
L42011 9471
L42011 9433
L42030 9396
L42049 9377
L42086 9358
L42161 9339
L42199 9321
L42217 9302
L42236 9264
L42236 9227
L42217 9190
L42199 9171
L42161 9152
L42067 9152
L42011 9171
" />
<path d="M41880 9283
L41805 9546
L41730 9358
L41655 9546
L41580 9283
" />
<path d="M41430 9546
L41430 9283
" />
<path d="M41430 9152
L41449 9171
L41430 9190
L41411 9171
L41430 9152
L41430 9190
" />
<path d="M41299 9283
L41149 9283
" />
<path d="M41242 9152
L41242 9489
L41224 9527
L41186 9546
L41149 9546
" />
<path d="M40849 9527
L40886 9546
L40961 9546
L40999 9527
L41017 9508
L41036 9471
L41036 9358
L41017 9321
L40999 9302
L40961 9283
L40886 9283
L40849 9302
" />
<path d="M40680 9546
L40680 9152
" />
<path d="M40511 9546
L40511 9339
L40530 9302
L40568 9283
L40624 9283
L40661 9302
L40680 9321
" />
<path d="M40418 9583
L40118 9583
" />
<path d="M40043 9527
L39986 9546
L39893 9546
L39855 9527
L39836 9508
L39818 9471
L39818 9433
L39836 9396
L39855 9377
L39893 9358
L39968 9339
L40005 9321
L40024 9302
L40043 9264
L40043 9227
L40024 9190
L40005 9171
L39968 9152
L39874 9152
L39818 9171
" />
<path d="M39686 9152
L39593 9546
L39518 9264
L39443 9546
L39349 9152
" />
<path d="M39293 9583
L38993 9583
" />
<path d="M38918 9527
L38862 9546
L38768 9546
L38730 9527
L38712 9508
L38693 9471
L38693 9433
L38712 9396
L38730 9377
L38768 9358
L38843 9339
L38880 9321
L38899 9302
L38918 9264
L38918 9227
L38899 9190
L38880 9171
L38843 9152
L38749 9152
L38693 9171
" />
<path d="M38524 9546
L38524 9152
L38374 9152
L38337 9171
L38318 9190
L38299 9227
L38299 9283
L38318 9321
L38337 9339
L38374 9358
L38524 9358
" />
<path d="M38130 9546
L38130 9152
L38037 9152
L37980 9171
L37943 9208
L37924 9246
L37905 9321
L37905 9377
L37924 9452
L37943 9489
L37980 9527
L38037 9546
L38130 9546
" />
<path d="M37793 9152
L37568 9152
" />
<path d="M37680 9546
L37680 9152
" />
<text x="39921.3" y="12498"
textLength="-4291.43" font-size="-524.934" lengthAdjust="spacingAndGlyphs"
text-anchor="middle" opacity="0">POWER_RIGHT1</text>
<path d="M42011 12479
L42011 12085
L41861 12085
L41824 12104
L41805 12123
L41786 12160
L41786 12216
L41805 12254
L41824 12273
L41861 12291
L42011 12291
" />
<path d="M41542 12085
L41467 12085
L41430 12104
L41392 12141
L41374 12216
L41374 12348
L41392 12423
L41430 12460
L41467 12479
L41542 12479
L41580 12460
L41617 12423
L41636 12348
L41636 12216
L41617 12141
L41580 12104
L41542 12085
" />
<path d="M41242 12085
L41149 12479
L41074 12198
L40999 12479
L40905 12085
" />
<path d="M40755 12273
L40624 12273
" />
<path d="M40568 12479
L40755 12479
L40755 12085
L40568 12085
" />
<path d="M40174 12479
L40305 12291
" />
<path d="M40399 12479
L40399 12085
L40249 12085
L40211 12104
L40193 12123
L40174 12160
L40174 12216
L40193 12254
L40211 12273
L40249 12291
L40399 12291
" />
<path d="M40099 12516
L39799 12516
" />
<path d="M39480 12479
L39611 12291
" />
<path d="M39705 12479
L39705 12085
L39555 12085
L39518 12104
L39499 12123
L39480 12160
L39480 12216
L39499 12254
L39518 12273
L39555 12291
L39705 12291
" />
<path d="M39311 12479
L39311 12085
" />
<path d="M38918 12104
L38955 12085
L39011 12085
L39068 12104
L39105 12141
L39124 12179
L39143 12254
L39143 12310
L39124 12385
L39105 12423
L39068 12460
L39011 12479
L38974 12479
L38918 12460
L38899 12441
L38899 12310
L38974 12310
" />
<path d="M38730 12479
L38730 12085
" />
<path d="M38730 12273
L38505 12273
" />
<path d="M38505 12479
L38505 12085
" />
<path d="M38374 12085
L38149 12085
" />
<path d="M38262 12479
L38262 12085
" />
<path d="M37812 12479
L38037 12479
" />
<path d="M37924 12479
L37924 12085
L37962 12141
L37999 12179
L38037 12198
" />
<text x="36368.1" y="9868.11"
textLength="-3672.76" font-size="-524.934" lengthAdjust="spacingAndGlyphs"
text-anchor="middle" opacity="0">USB_B_Micro</text>
<path d="M38149 9455
L38149 9774
L38130 9811
L38111 9830
L38074 9849
L37999 9849
L37961 9830
L37942 9811
L37924 9774
L37924 9455
" />
<path d="M37755 9830
L37699 9849
L37605 9849
L37567 9830
L37549 9811
L37530 9774
L37530 9736
L37549 9699
L37567 9680
L37605 9661
L37680 9643
L37717 9624
L37736 9605
L37755 9568
L37755 9530
L37736 9493
L37717 9474
L37680 9455
L37586 9455
L37530 9474
" />
<path d="M37230 9643
L37174 9661
L37155 9680
L37136 9718
L37136 9774
L37155 9811
L37174 9830
L37211 9849
L37361 9849
L37361 9455
L37230 9455
L37193 9474
L37174 9493
L37155 9530
L37155 9568
L37174 9605
L37193 9624
L37230 9643
L37361 9643
" />
<path d="M37061 9886
L36761 9886
" />
<path d="M36536 9643
L36480 9661
L36461 9680
L36443 9718
L36443 9774
L36461 9811
L36480 9830
L36518 9849
L36668 9849
L36668 9455
L36536 9455
L36499 9474
L36480 9493
L36461 9530
L36461 9568
L36480 9605
L36499 9624
L36536 9643
L36668 9643
" />
<path d="M36368 9886
L36068 9886
" />
<path d="M35974 9849
L35974 9455
L35843 9736
L35711 9455
L35711 9849
" />
<path d="M35524 9849
L35524 9586
" />
<path d="M35524 9455
L35543 9474
L35524 9493
L35505 9474
L35524 9455
L35524 9493
" />
<path d="M35168 9830
L35205 9849
L35280 9849
L35318 9830
L35336 9811
L35355 9774
L35355 9661
L35336 9624
L35318 9605
L35280 9586
L35205 9586
L35168 9605
" />
<path d="M34999 9849
L34999 9586
" />
<path d="M34999 9661
L34980 9624
L34962 9605
L34924 9586
L34887 9586
" />
<path d="M34699 9849
L34737 9830
L34755 9811
L34774 9774
L34774 9661
L34755 9624
L34737 9605
L34699 9586
L34643 9586
L34605 9605
L34587 9624
L34568 9661
L34568 9774
L34587 9811
L34605 9830
L34643 9849
L34699 9849
" />
<text x="36368.1" y="11620.1"
textLength="-2960.35" font-size="-524.934" lengthAdjust="spacingAndGlyphs"
text-anchor="middle" opacity="0">J1_RIGHT1</text>
<path d="M37680 11207
L37680 11488
L37699 11545
L37736 11582
L37792 11601
L37830 11601
" />
<path d="M37286 11601
L37511 11601
" />
<path d="M37399 11601
L37399 11207
L37436 11263
L37474 11301
L37511 11320
" />
<path d="M37211 11638
L36911 11638
" />
<path d="M36593 11601
L36724 11413
" />
<path d="M36818 11601
L36818 11207
L36668 11207
L36630 11226
L36611 11245
L36593 11282
L36593 11338
L36611 11376
L36630 11395
L36668 11413
L36818 11413
" />
<path d="M36424 11601
L36424 11207
" />
<path d="M36030 11226
L36068 11207
L36124 11207
L36180 11226
L36218 11263
L36236 11301
L36255 11376
L36255 11432
L36236 11507
L36218 11545
L36180 11582
L36124 11601
L36086 11601
L36030 11582
L36011 11563
L36011 11432
L36086 11432
" />
<path d="M35843 11601
L35843 11207
" />
<path d="M35843 11395
L35618 11395
" />
<path d="M35618 11601
L35618 11207
" />
<path d="M35486 11207
L35261 11207
" />
<path d="M35374 11601
L35374 11207
" />
<path d="M34924 11601
L35149 11601
" />
<path d="M35037 11601
L35037 11207
L35074 11263
L35112 11301
L35149 11320
" />
<text x="29990.2" y="10258.7"
textLength="-6672.38" font-size="-524.934" lengthAdjust="spacingAndGlyphs"
text-anchor="middle" opacity="0">JST CONNECTOR_RIGHT</text>
<path d="M33158 9846
L33158 10127
L33177 10183
L33214 10221
L33271 10239
L33308 10239
" />
<path d="M32989 10221
L32933 10239
L32839 10239
L32802 10221
L32783 10202
L32764 10164
L32764 10127
L32783 10089
L32802 10071
L32839 10052
L32914 10033
L32952 10014
L32971 9996
L32989 9958
L32989 9921
L32971 9883
L32952 9864
L32914 9846
L32821 9846
L32764 9864
" />
<path d="M32652 9846
L32427 9846
" />
<path d="M32539 10239
L32539 9846
" />
<path d="M31771 10202
L31789 10221
L31846 10239
L31883 10239
L31939 10221
L31977 10183
L31996 10146
L32014 10071
L32014 10014
L31996 9939
L31977 9902
L31939 9864
L31883 9846
L31846 9846
L31789 9864
L31771 9883
" />
<path d="M31527 9846
L31452 9846
L31414 9864
L31377 9902
L31358 9977
L31358 10108
L31377 10183
L31414 10221
L31452 10239
L31527 10239
L31564 10221
L31602 10183
L31621 10108
L31621 9977
L31602 9902
L31564 9864
L31527 9846
" />
<path d="M31190 10239
L31190 9846
L30965 10239
L30965 9846
" />
<path d="M30777 10239
L30777 9846
L30552 10239
L30552 9846
" />
<path d="M30365 10033
L30233 10033
" />
<path d="M30177 10239
L30365 10239
L30365 9846
L30177 9846
" />
<path d="M29783 10202
L29802 10221
L29858 10239
L29896 10239
L29952 10221
L29990 10183
L30008 10146
L30027 10071
L30027 10014
L30008 9939
L29990 9902
L29952 9864
L29896 9846
L29858 9846
L29802 9864
L29783 9883
" />
<path d="M29671 9846
L29446 9846
" />
<path d="M29558 10239
L29558 9846
" />
<path d="M29240 9846
L29165 9846
L29127 9864
L29090 9902
L29071 9977
L29071 10108
L29090 10183
L29127 10221
L29165 10239
L29240 10239
L29277 10221
L29315 10183
L29334 10108
L29334 9977
L29315 9902
L29277 9864
L29240 9846
" />
<path d="M28677 10239
L28809 10052
" />
<path d="M28902 10239
L28902 9846
L28752 9846
L28715 9864
L28696 9883
L28677 9921
L28677 9977
L28696 10014
L28715 10033
L28752 10052
L28902 10052
" />
<path d="M28602 10277
L28302 10277
" />
<path d="M27984 10239
L28115 10052
" />
<path d="M28209 10239
L28209 9846
L28059 9846
L28021 9864
L28002 9883
L27984 9921
L27984 9977
L28002 10014
L28021 10033
L28059 10052
L28209 10052
" />
<path d="M27815 10239
L27815 9846
" />
<path d="M27421 9864
L27459 9846
L27515 9846
L27571 9864
L27609 9902
L27627 9939
L27646 10014
L27646 10071
L27627 10146
L27609 10183
L27571 10221
L27515 10239
L27477 10239
L27421 10221
L27402 10202
L27402 10071
L27477 10071
" />
<path d="M27234 10239
L27234 9846
" />
<path d="M27234 10033
L27009 10033
" />
<path d="M27009 10239
L27009 9846
" />
<path d="M26878 9846
L26653 9846
" />
<path d="M26765 10239
L26765 9846
" />
<g transform="rotate(-90 33031.5 14291.3)">
<text x="33031.5" y="14488.2"
textLength="-5097.58" font-size="-524.934" lengthAdjust="spacingAndGlyphs"
text-anchor="middle" opacity="0">MCP73831-2-OT</text>
</g>
<path d="M33209 11797
L32815 11797
L33097 11929
L32815 12060
L33209 12060
" />
<path d="M33172 12472
L33190 12454
L33209 12397
L33209 12360
L33190 12304
L33153 12266
L33115 12247
L33040 12229
L32984 12229
L32909 12247
L32872 12266
L32834 12304
L32815 12360
L32815 12397
L32834 12454
L32853 12472
" />
<path d="M33209 12641
L32815 12641
L32815 12791
L32834 12829
L32853 12847
L32890 12866
L32947 12866
L32984 12847
L33003 12829
L33022 12791
L33022 12641
" />
<path d="M32815 12997
L32815 13260
L33209 13091
" />
<path d="M32815 13372
L32815 13616
L32965 13485
L32965 13541
L32984 13578
L33003 13597
L33040 13616
L33134 13616
L33172 13597
L33190 13578
L33209 13541
L33209 13428
L33190 13391
L33172 13372
" />
<path d="M32984 13841
L32965 13803
L32947 13785
L32909 13766
L32890 13766
L32853 13785
L32834 13803
L32815 13841
L32815 13916
L32834 13953
L32853 13972
L32890 13991
L32909 13991
L32947 13972
L32965 13953
L32984 13916
L32984 13841
L33003 13803
L33022 13785
L33059 13766
L33134 13766
L33172 13785
L33190 13803
L33209 13841
L33209 13916
L33190 13953
L33172 13972
L33134 13991
L33059 13991
L33022 13972
L33003 13953
L32984 13916
" />
<path d="M32815 14122
L32815 14366
L32965 14235
L32965 14291
L32984 14328
L33003 14347
L33040 14366
L33134 14366
L33172 14347
L33190 14328
L33209 14291
L33209 14178
L33190 14141
L33172 14122
" />
<path d="M33209 14741
L33209 14516
" />
<path d="M33209 14628
L32815 14628
L32872 14591
L32909 14553
L32928 14516
" />
<path d="M33059 14910
L33059 15209
" />
<path d="M32853 15378
L32834 15397
L32815 15434
L32815 15528
L32834 15566
L32853 15584
L32890 15603
L32928 15603
L32984 15584
L33209 15359
L33209 15603
" />
<path d="M33059 15772
L33059 16072
" />
<path d="M32815 16334
L32815 16409
L32834 16447
L32872 16484
L32947 16503
L33078 16503
L33153 16484
L33190 16447
L33209 16409
L33209 16334
L33190 16297
L33153 16259
L33078 16241
L32947 16241
L32872 16259
L32834 16297
L32815 16334
" />
<path d="M32815 16616
L32815 16841
" />
<path d="M33209 16728
L32815 16728
" />
</g>
<g style="fill:#000084; fill-opacity:0.0; 
stroke:#000084; stroke-width:29.5276; stroke-opacity:1; 
stroke-linecap:round; stroke-linejoin:round;">
<text x="34173.2" y="14389.8"
textLength="-1169.95" font-size="-262.467" lengthAdjust="spacingAndGlyphs"
text-anchor="middle" opacity="0">U1_BAT1</text>
<path d="M34749 14183
L34749 14342
L34740 14361
L34730 14371
L34712 14380
L34674 14380
L34655 14371
L34646 14361
L34637 14342
L34637 14183
" />
<path d="M34440 14380
L34552 14380
" />
<path d="M34496 14380
L34496 14183
L34515 14211
L34534 14230
L34552 14239
" />
<path d="M34402 14399
L34252 14399
" />
<path d="M34140 14277
L34112 14286
L34102 14296
L34093 14314
L34093 14342
L34102 14361
L34112 14371
L34131 14380
L34206 14380
L34206 14183
L34140 14183
L34121 14192
L34112 14202
L34102 14221
L34102 14239
L34112 14258
L34121 14267
L34140 14277
L34206 14277
" />
<path d="M34018 14324
L33924 14324
" />
<path d="M34037 14380
L33971 14183
L33906 14380
" />
<path d="M33868 14183
L33756 14183
" />
<path d="M33812 14380
L33812 14183
" />
<path d="M33587 14380
L33699 14380
" />
<path d="M33643 14380
L33643 14183
L33662 14211
L33681 14230
L33699 14239
" />
<g >
</g>
</g>
<g style="fill:#000000; fill-opacity:0.0; 
stroke:#000000; stroke-width:29.5276; stroke-opacity:1; 
stroke-linecap:round; stroke-linejoin:round;">
</g>
<g style="fill:#C2C200; fill-opacity:0.0; 
stroke:#C2C200; stroke-width:29.5276; stroke-opacity:1; 
stroke-linecap:round; stroke-linejoin:round;">
</g>
<g style="fill:#C2C200; fill-opacity:0.0; 
stroke:#C2C200; stroke-width:78.7402; stroke-opacity:1; 
stroke-linecap:round; stroke-linejoin:round;">
<path d="M26417 12559
L28661 10314
" />
</g>
<g style="fill:#C2C200; fill-opacity:0.0; 
stroke:#C2C200; stroke-width:59.0551; stroke-opacity:1; 
stroke-linecap:round; stroke-linejoin:round;">
<path d="M41456 42047
L56417 42047
" />
<path d="M56437 42047
L70236 45748
" />
<path d="M27519 42047
L41456 42047
" />
</g>
<g style="fill:#C2C200; fill-opacity:0.0; 
stroke:#C2C200; stroke-width:78.7402; stroke-opacity:1; 
stroke-linecap:round; stroke-linejoin:round;">
<path d="M26417 40944
L27519 42047
" />
</g>
<g style="fill:#C2C200; fill-opacity:0.0; 
stroke:#C2C200; stroke-width:59.0551; stroke-opacity:1; 
stroke-linecap:round; stroke-linejoin:round;">
<path d="M71200 37637
L72125 38700
" />
<path d="M71200 34074
L71200 37637
" />
<path d="M71200 19094
L71200 34074
" />
<path d="M71200 12578
L71200 19094
" />
<path d="M68834 10271
L71200 12598
" />
<path d="M26417 40944
L26417 12578
" />
<path d="M28661 10295
L68838 10275
" />
<path d="M70236 45748
L72125 38700
" />
<g >
</g>
<g >
</g>
<g >
</g>
<g >
</g>
<g >
</g>
<g >
</g>
<g >
</g>
<g >
</g>
<g >
</g>
<g >
</g>
<g >
</g>
<g >
</g>
<g >
</g>
<g >
</g>
<g >
</g>
<g >
</g>
<g >
</g>
<g >
</g>
<g >
</g>
<g >
</g>
<g >
</g>
<g >
</g>
<g >
</g>
<g >
</g>
<g >
</g>
<g >
</g>
<g >
</g>
<g >
</g>
<g >
</g>
<g >
</g>
<g >
</g>
<g >
</g>
<g >
</g>
<g >
</g>
<g >
</g>
<g >
</g>
<g >
</g>
<g >
</g>
<g >
</g>
<g >
</g>
<g >
</g>
<g >
</g>
<g >
</g>
<g >
</g>
<g >
</g>
<g >
</g>
<g >
</g>
<g >
</g>
<g >
</g>
<g >
</g>
<g >
</g>
<g >
</g>
<g >
</g>
<g >
</g>
<g >
</g>
<g >
</g>
<g >
</g>
<g >
</g>
<g >
</g>
<g >
</g>
<g >
</g>
<g >
</g>
<g >
</g>
<g >
</g>
<g >
</g>
<g >
</g>
<g >
</g>
<g >
</g>
<g >
</g>
<g >
</g>
<g >
</g>
<g >
</g>
<g >
</g>
<g >
</g>
<g >
</g>
<g >
</g>
<g >
</g>
<g >
</g>
</g> 
</svg>
